<svg width="351" height="160" viewBox="0 0 351 160" fill="none" xmlns="http://www.w3.org/2000/svg">
<path d="M10.2656 82.3359V80.6719L20.1562 73.3125L21.1406 74.6719L12.0469 81.5156L21.1406 88.3594L20.1562 89.7188L10.2656 82.3359ZM23.3672 83.6016C23.3672 81.6328 23.8984 80.0391 24.9609 78.8203C26.0234 77.5859 27.3984 76.9688 29.0859 76.9688C30.8047 76.9688 32.1562 77.5703 33.1406 78.7734C34.125 79.9609 34.6172 81.4844 34.6172 83.3438C34.6172 83.5625 34.6016 83.875 34.5703 84.2812H25.1953C25.1953 85.5469 25.5469 86.6328 26.25 87.5391C26.9531 88.4453 27.9297 88.8984 29.1797 88.8984C29.9922 88.8984 30.7109 88.7109 31.3359 88.3359C31.9609 87.9453 32.4453 87.4297 32.7891 86.7891L34.3359 87.2578C33.9453 88.1797 33.3125 88.9375 32.4375 89.5312C31.5625 90.125 30.4766 90.4219 29.1797 90.4219C27.4297 90.4219 26.0234 89.7969 24.9609 88.5469C23.8984 87.2969 23.3672 85.6484 23.3672 83.6016ZM25.2422 82.8984H32.7891C32.7891 81.6641 32.4531 80.625 31.7812 79.7812C31.1094 78.9219 30.2109 78.4922 29.0859 78.4922C27.9453 78.4922 27.0234 78.9297 26.3203 79.8047C25.6328 80.6797 25.2734 81.7109 25.2422 82.8984ZM37.4766 90V77.3906H39.2578V79.2891C39.4766 78.7109 39.8906 78.1797 40.5 77.6953C41.1094 77.2109 41.8828 76.9688 42.8203 76.9688C43.7422 76.9688 44.4453 77.2344 44.9297 77.7656C45.4141 78.2812 45.7891 78.9531 46.0547 79.7812C46.1328 79.5781 46.2578 79.3438 46.4297 79.0781C46.6016 78.8125 46.8438 78.5078 47.1562 78.1641C47.4688 77.8203 47.8828 77.5391 48.3984 77.3203C48.9297 77.0859 49.5078 76.9688 50.1328 76.9688C52.5703 76.9688 53.7891 78.5938 53.7891 81.8438V90H51.9609V81.9844C51.9609 80.8281 51.8047 79.9609 51.4922 79.3828C51.1797 78.7891 50.5859 78.4922 49.7109 78.4922C48.8047 78.4922 48.0469 78.875 47.4375 79.6406C46.8281 80.3906 46.5234 81.3438 46.5234 82.5V90H44.7422V81.9609C44.7422 79.6484 43.9766 78.4922 42.4453 78.4922C41.4922 78.4922 40.7266 78.8516 40.1484 79.5703C39.5859 80.2891 39.3047 81.2266 39.3047 82.3828V90H37.4766ZM57.6797 89.7188L56.7422 88.3594L65.7891 81.5156L56.7422 74.6719L57.6797 73.3125L67.6172 80.6719V82.3359L57.6797 89.7188ZM274.336 82.3359V80.6719L284.227 73.3125L285.211 74.6719L276.117 81.5156L285.211 88.3594L284.227 89.7188L274.336 82.3359ZM286.102 91.3359L292.852 71.3438H294.773L288.023 91.3359H286.102ZM295.5 83.6016C295.5 81.6328 296.031 80.0391 297.094 78.8203C298.156 77.5859 299.531 76.9688 301.219 76.9688C302.938 76.9688 304.289 77.5703 305.273 78.7734C306.258 79.9609 306.75 81.4844 306.75 83.3438C306.75 83.5625 306.734 83.875 306.703 84.2812H297.328C297.328 85.5469 297.68 86.6328 298.383 87.5391C299.086 88.4453 300.062 88.8984 301.312 88.8984C302.125 88.8984 302.844 88.7109 303.469 88.3359C304.094 87.9453 304.578 87.4297 304.922 86.7891L306.469 87.2578C306.078 88.1797 305.445 88.9375 304.57 89.5312C303.695 90.125 302.609 90.4219 301.312 90.4219C299.562 90.4219 298.156 89.7969 297.094 88.5469C296.031 87.2969 295.5 85.6484 295.5 83.6016ZM297.375 82.8984H304.922C304.922 81.6641 304.586 80.625 303.914 79.7812C303.242 78.9219 302.344 78.4922 301.219 78.4922C300.078 78.4922 299.156 78.9297 298.453 79.8047C297.766 80.6797 297.406 81.7109 297.375 82.8984ZM309.609 90V77.3906H311.391V79.2891C311.609 78.7109 312.023 78.1797 312.633 77.6953C313.242 77.2109 314.016 76.9688 314.953 76.9688C315.875 76.9688 316.578 77.2344 317.062 77.7656C317.547 78.2812 317.922 78.9531 318.188 79.7812C318.266 79.5781 318.391 79.3438 318.562 79.0781C318.734 78.8125 318.977 78.5078 319.289 78.1641C319.602 77.8203 320.016 77.5391 320.531 77.3203C321.062 77.0859 321.641 76.9688 322.266 76.9688C324.703 76.9688 325.922 78.5938 325.922 81.8438V90H324.094V81.9844C324.094 80.8281 323.938 79.9609 323.625 79.3828C323.312 78.7891 322.719 78.4922 321.844 78.4922C320.938 78.4922 320.18 78.875 319.57 79.6406C318.961 80.3906 318.656 81.3438 318.656 82.5V90H316.875V81.9609C316.875 79.6484 316.109 78.4922 314.578 78.4922C313.625 78.4922 312.859 78.8516 312.281 79.5703C311.719 80.2891 311.438 81.2266 311.438 82.3828V90H309.609ZM329.812 89.7188L328.875 88.3594L337.922 81.5156L328.875 74.6719L329.812 73.3125L339.75 80.6719V82.3359L329.812 89.7188Z" fill="#FF4500"/>
<path d="M69.1406 74.0391V72.4453H81.7031V74.0391H76.3594V90H74.4844V74.0391H69.1406ZM83.9531 90V71.7891H85.7344V79.4297H85.7812C86.0938 78.7578 86.5938 78.1797 87.2812 77.6953C87.9844 77.2109 88.7812 76.9688 89.6719 76.9688C92.3906 76.9688 93.75 78.5938 93.75 81.8438V90H91.9688V82.1484C91.9688 79.7109 91.0938 78.4922 89.3438 78.4922C88.375 78.4922 87.5312 78.8906 86.8125 79.6875C86.0938 80.4844 85.7344 81.4297 85.7344 82.5234V90H83.9531ZM96.5391 83.6016C96.5391 81.6328 97.0703 80.0391 98.1328 78.8203C99.1953 77.5859 100.57 76.9688 102.258 76.9688C103.977 76.9688 105.328 77.5703 106.312 78.7734C107.297 79.9609 107.789 81.4844 107.789 83.3438C107.789 83.5625 107.773 83.875 107.742 84.2812H98.3672C98.3672 85.5469 98.7188 86.6328 99.4219 87.5391C100.125 88.4453 101.102 88.8984 102.352 88.8984C103.164 88.8984 103.883 88.7109 104.508 88.3359C105.133 87.9453 105.617 87.4297 105.961 86.7891L107.508 87.2578C107.117 88.1797 106.484 88.9375 105.609 89.5312C104.734 90.125 103.648 90.4219 102.352 90.4219C100.602 90.4219 99.1953 89.7969 98.1328 88.5469C97.0703 87.2969 96.5391 85.6484 96.5391 83.6016ZM98.4141 82.8984H105.961C105.961 81.6641 105.625 80.625 104.953 79.7812C104.281 78.9219 103.383 78.4922 102.258 78.4922C101.117 78.4922 100.195 78.9297 99.4922 79.8047C98.8047 80.6797 98.4453 81.7109 98.4141 82.8984ZM116.648 90V71.7891H118.43V79.4297H118.477C118.789 78.7578 119.289 78.1797 119.977 77.6953C120.68 77.2109 121.477 76.9688 122.367 76.9688C125.086 76.9688 126.445 78.5938 126.445 81.8438V90H124.664V82.1484C124.664 79.7109 123.789 78.4922 122.039 78.4922C121.07 78.4922 120.227 78.8906 119.508 79.6875C118.789 80.4844 118.43 81.4297 118.43 82.5234V90H116.648ZM131.016 86.7656C131.016 87.3594 131.266 87.8672 131.766 88.2891C132.266 88.6953 132.953 88.8984 133.828 88.8984C134.938 88.8984 135.883 88.5391 136.664 87.8203C137.461 87.1016 137.859 86.1875 137.859 85.0781V83.3203C137.172 83.4922 136.078 83.6953 134.578 83.9297C133.359 84.1484 132.461 84.4844 131.883 84.9375C131.305 85.3906 131.016 86 131.016 86.7656ZM129.188 86.9062C129.188 84.5625 131 83.1094 134.625 82.5469C136.25 82.2812 137.328 82.0625 137.859 81.8906V81.1641C137.859 80.3828 137.578 79.7344 137.016 79.2188C136.453 78.7031 135.656 78.4453 134.625 78.4453C133.875 78.4453 133.148 78.625 132.445 78.9844C131.758 79.3281 131.172 79.7969 130.688 80.3906L129.516 79.4062C130.141 78.6875 130.891 78.1016 131.766 77.6484C132.656 77.1953 133.594 76.9688 134.578 76.9688C137.953 76.9688 139.641 78.6172 139.641 81.9141V90H137.906V87.9375C137.656 88.6094 137.141 89.1953 136.359 89.6953C135.578 90.1797 134.656 90.4219 133.594 90.4219C132.203 90.4219 131.117 90.0938 130.336 89.4375C129.57 88.7812 129.188 87.9375 129.188 86.9062ZM143.133 85.5703V77.3906H144.961V85.1953C144.961 87.6641 145.867 88.8984 147.68 88.8984C148.789 88.8984 149.633 88.4688 150.211 87.6094C150.805 86.75 151.102 85.7344 151.102 84.5625V77.3906H152.883V90H151.148V87.9609C151.023 88.4766 150.633 89.0156 149.977 89.5781C149.336 90.1406 148.43 90.4219 147.258 90.4219C146.055 90.4219 145.062 90.0156 144.281 89.2031C143.516 88.375 143.133 87.1641 143.133 85.5703ZM155.625 87.5156L156.984 86.7188C157.906 88.1719 159.156 88.8984 160.734 88.8984C161.688 88.8984 162.445 88.7266 163.008 88.3828C163.586 88.0391 163.875 87.5391 163.875 86.8828C163.875 86.6016 163.805 86.3516 163.664 86.1328C163.523 85.8984 163.367 85.7109 163.195 85.5703C163.039 85.4141 162.75 85.25 162.328 85.0781C161.906 84.8906 161.555 84.7578 161.273 84.6797C161.008 84.5859 160.562 84.4375 159.938 84.2344C159.391 84.0625 158.922 83.8906 158.531 83.7188C158.141 83.5469 157.734 83.3203 157.312 83.0391C156.891 82.7422 156.562 82.3828 156.328 81.9609C156.109 81.5391 156 81.0547 156 80.5078C156 79.4609 156.422 78.6094 157.266 77.9531C158.109 77.2969 159.266 76.9688 160.734 76.9688C161.766 76.9688 162.711 77.2422 163.57 77.7891C164.43 78.3359 165.047 78.9766 165.422 79.7109L164.203 80.5078C163.875 79.9609 163.398 79.4922 162.773 79.1016C162.164 78.6953 161.484 78.4922 160.734 78.4922C159.781 78.4922 159.055 78.6797 158.555 79.0547C158.07 79.4141 157.828 79.9062 157.828 80.5312C157.828 80.8906 157.922 81.2188 158.109 81.5156C158.297 81.7969 158.578 82.0469 158.953 82.2656C159.344 82.4688 159.695 82.6328 160.008 82.7578C160.336 82.8672 160.766 83.0078 161.297 83.1797C161.75 83.3203 162.148 83.4531 162.492 83.5781C162.852 83.7031 163.242 83.875 163.664 84.0938C164.086 84.3125 164.438 84.5469 164.719 84.7969C165 85.0312 165.234 85.3359 165.422 85.7109C165.609 86.0703 165.703 86.4609 165.703 86.8828C165.703 87.8828 165.258 88.7266 164.367 89.4141C163.492 90.0859 162.281 90.4219 160.734 90.4219C159.609 90.4219 158.609 90.1719 157.734 89.6719C156.859 89.1562 156.156 88.4375 155.625 87.5156ZM174.445 74.5547V72.1875H176.742V74.5547H174.445ZM174.727 90V77.3906H176.508V90H174.727ZM179.672 87.5156L181.031 86.7188C181.953 88.1719 183.203 88.8984 184.781 88.8984C185.734 88.8984 186.492 88.7266 187.055 88.3828C187.633 88.0391 187.922 87.5391 187.922 86.8828C187.922 86.6016 187.852 86.3516 187.711 86.1328C187.57 85.8984 187.414 85.7109 187.242 85.5703C187.086 85.4141 186.797 85.25 186.375 85.0781C185.953 84.8906 185.602 84.7578 185.32 84.6797C185.055 84.5859 184.609 84.4375 183.984 84.2344C183.438 84.0625 182.969 83.8906 182.578 83.7188C182.188 83.5469 181.781 83.3203 181.359 83.0391C180.938 82.7422 180.609 82.3828 180.375 81.9609C180.156 81.5391 180.047 81.0547 180.047 80.5078C180.047 79.4609 180.469 78.6094 181.312 77.9531C182.156 77.2969 183.312 76.9688 184.781 76.9688C185.812 76.9688 186.758 77.2422 187.617 77.7891C188.477 78.3359 189.094 78.9766 189.469 79.7109L188.25 80.5078C187.922 79.9609 187.445 79.4922 186.82 79.1016C186.211 78.6953 185.531 78.4922 184.781 78.4922C183.828 78.4922 183.102 78.6797 182.602 79.0547C182.117 79.4141 181.875 79.9062 181.875 80.5312C181.875 80.8906 181.969 81.2188 182.156 81.5156C182.344 81.7969 182.625 82.0469 183 82.2656C183.391 82.4688 183.742 82.6328 184.055 82.7578C184.383 82.8672 184.812 83.0078 185.344 83.1797C185.797 83.3203 186.195 83.4531 186.539 83.5781C186.898 83.7031 187.289 83.875 187.711 84.0938C188.133 84.3125 188.484 84.5469 188.766 84.7969C189.047 85.0312 189.281 85.3359 189.469 85.7109C189.656 86.0703 189.75 86.4609 189.75 86.8828C189.75 87.8828 189.305 88.7266 188.414 89.4141C187.539 90.0859 186.328 90.4219 184.781 90.4219C183.656 90.4219 182.656 90.1719 181.781 89.6719C180.906 89.1562 180.203 88.4375 179.672 87.5156ZM199.289 83.6953C199.289 85.2891 199.656 86.5547 200.391 87.4922C201.125 88.4297 202.039 88.8984 203.133 88.8984C204.211 88.8984 205.117 88.4297 205.852 87.4922C206.602 86.5547 206.977 85.2891 206.977 83.6953C206.977 82.0703 206.602 80.7969 205.852 79.875C205.102 78.9531 204.195 78.4922 203.133 78.4922C202.055 78.4922 201.141 78.9531 200.391 79.875C199.656 80.7969 199.289 82.0703 199.289 83.6953ZM197.461 83.6953C197.461 81.7734 197.953 80.1719 198.938 78.8906C199.938 77.6094 201.336 76.9688 203.133 76.9688C204.914 76.9688 206.305 77.6094 207.305 78.8906C208.305 80.1719 208.805 81.7734 208.805 83.6953C208.805 84.5078 208.695 85.2969 208.477 86.0625C208.273 86.8281 207.953 87.5469 207.516 88.2188C207.094 88.875 206.5 89.4062 205.734 89.8125C204.984 90.2188 204.117 90.4219 203.133 90.4219C202.164 90.4219 201.297 90.2266 200.531 89.8359C199.781 89.4297 199.188 88.8984 198.75 88.2422C198.328 87.5703 198.008 86.8516 197.789 86.0859C197.57 85.3203 197.461 84.5234 197.461 83.6953ZM211.711 90V77.3906H213.492V79.5469H213.516C213.703 78.9219 214.164 78.3359 214.898 77.7891C215.633 77.2422 216.508 76.9688 217.523 76.9688C218.695 76.9688 219.656 77.3359 220.406 78.0703C221.172 78.8047 221.555 80.0625 221.555 81.8438V90H219.727V82.1484C219.727 79.7109 218.852 78.4922 217.102 78.4922C216.133 78.4922 215.297 78.8828 214.594 79.6641C213.891 80.4453 213.539 81.3828 213.539 82.4766V90H211.711ZM229.711 78.9141V77.3906H231.867V75.4453C231.867 74.2109 232.18 73.2969 232.805 72.7031C233.43 72.0938 234.289 71.7891 235.383 71.7891H237.023V73.2891H235.617C234.336 73.2891 233.695 74.0703 233.695 75.6328V77.3906H236.695V78.9141H233.695V90H231.867V78.9141H229.711ZM239.227 74.5547V72.1875H241.523V74.5547H239.227ZM239.508 90V77.3906H241.289V90H239.508ZM245.484 90V77.3906H247.219V79.2188C247.469 78.6562 247.883 78.1406 248.461 77.6719C249.039 77.2031 249.781 76.9688 250.688 76.9688C251.359 76.9688 251.953 77.0781 252.469 77.2969V78.9375C251.906 78.7188 251.312 78.6094 250.688 78.6094C249.625 78.6094 248.797 79.0078 248.203 79.8047C247.609 80.6016 247.312 81.6562 247.312 82.9688V90H245.484ZM253.43 83.6016C253.43 81.6328 253.961 80.0391 255.023 78.8203C256.086 77.5859 257.461 76.9688 259.148 76.9688C260.867 76.9688 262.219 77.5703 263.203 78.7734C264.188 79.9609 264.68 81.4844 264.68 83.3438C264.68 83.5625 264.664 83.875 264.633 84.2812H255.258C255.258 85.5469 255.609 86.6328 256.312 87.5391C257.016 88.4453 257.992 88.8984 259.242 88.8984C260.055 88.8984 260.773 88.7109 261.398 88.3359C262.023 87.9453 262.508 87.4297 262.852 86.7891L264.398 87.2578C264.008 88.1797 263.375 88.9375 262.5 89.5312C261.625 90.125 260.539 90.4219 259.242 90.4219C257.492 90.4219 256.086 89.7969 255.023 88.5469C253.961 87.2969 253.43 85.6484 253.43 83.6016ZM255.305 82.8984H262.852C262.852 81.6641 262.516 80.625 261.844 79.7812C261.172 78.9219 260.273 78.4922 259.148 78.4922C258.008 78.4922 257.086 78.9297 256.383 79.8047C255.695 80.6797 255.336 81.7109 255.305 82.8984ZM267.891 90.2344V87.5391H270.844V90.2344H267.891ZM270.211 85.125H268.547L268.336 72.4219H270.422L270.211 85.125Z" fill="black"/>
<path d="M41.0607 105.939C40.4749 105.354 39.5251 105.354 38.9393 105.939L29.3934 115.485C28.8076 116.071 28.8076 117.021 29.3934 117.607C29.9792 118.192 30.9289 118.192 31.5147 117.607L40 109.121L48.4853 117.607C49.0711 118.192 50.0208 118.192 50.6066 117.607C51.1924 117.021 51.1924 116.071 50.6066 115.485L41.0607 105.939ZM41.5 132V107H38.5V132H41.5Z" fill="#FF3D00"/>
<path d="M310.061 105.939C309.475 105.354 308.525 105.354 307.939 105.939L298.393 115.485C297.808 116.071 297.808 117.021 298.393 117.607C298.979 118.192 299.929 118.192 300.515 117.607L309 109.121L317.485 117.607C318.071 118.192 319.021 118.192 319.607 117.607C320.192 117.021 320.192 116.071 319.607 115.485L310.061 105.939ZM310.5 132V107H307.5V132H310.5Z" fill="#FF3D00"/>
<path d="M19.3047 153.061C19.2109 153.436 19.0352 153.67 18.7773 153.764C18.5195 153.846 18.2617 153.834 18.0039 153.729C17.7578 153.623 17.5469 153.441 17.3711 153.184C17.207 152.926 17.1602 152.645 17.2305 152.34C17.4062 151.543 17.6582 150.664 17.9863 149.703C18.3262 148.73 18.6602 147.764 18.9883 146.803C18.8125 146.533 18.6719 146.264 18.5664 145.994C18.4609 145.713 18.4082 145.42 18.4082 145.115C18.4082 144.811 18.5195 144.494 18.7422 144.166C18.9766 143.826 19.252 143.516 19.5684 143.234C19.8965 142.953 20.2305 142.725 20.5703 142.549C20.9219 142.361 21.2207 142.268 21.4668 142.268C21.9004 142.268 22.2227 142.414 22.4336 142.707C22.6562 143 22.7676 143.393 22.7676 143.885C22.7676 144.154 22.7207 144.424 22.627 144.693C22.5449 144.951 22.4512 145.197 22.3457 145.432C22.2402 145.654 22.1406 145.848 22.0469 146.012C21.9648 146.176 21.918 146.281 21.9062 146.328C22.3281 147.078 22.7676 147.74 23.2246 148.314C23.6816 148.889 24.0977 149.457 24.4727 150.02C24.8594 150.582 25.1758 151.18 25.4219 151.812C25.668 152.445 25.791 153.189 25.791 154.045C25.791 154.256 25.7734 154.473 25.7383 154.695C25.7148 154.918 25.6738 155.129 25.6152 155.328C26.0371 155.246 26.4062 155.117 26.7227 154.941C27.0508 154.766 27.332 154.566 27.5664 154.344C27.8125 154.109 28.0117 153.857 28.1641 153.588C28.3281 153.318 28.4629 153.037 28.5684 152.744C28.6973 152.404 28.8262 152.158 28.9551 152.006C29.084 151.854 29.2305 151.777 29.3945 151.777C29.5469 151.777 29.6992 151.83 29.8516 151.936C30.0156 152.029 30.1562 152.152 30.2734 152.305C30.4023 152.457 30.502 152.615 30.5723 152.779C30.6543 152.943 30.6953 153.09 30.6953 153.219C30.6953 153.395 30.6484 153.605 30.5547 153.852C30.4609 154.098 30.332 154.35 30.168 154.607C30.0156 154.865 29.8398 155.117 29.6406 155.363C29.4414 155.598 29.2363 155.803 29.0254 155.979C28.4629 156.436 27.8008 156.822 27.0391 157.139C26.2773 157.443 25.334 157.637 24.209 157.719C23.7754 158.094 23.2598 158.398 22.6621 158.633C22.0762 158.879 21.4141 159.002 20.6758 159.002C20.3008 159.002 19.9141 158.955 19.5156 158.861C19.1289 158.768 18.7539 158.645 18.3906 158.492C18.0391 158.352 17.7168 158.193 17.4238 158.018C17.1309 157.842 16.8965 157.666 16.7207 157.49C16.2754 157.068 15.9883 156.646 15.8594 156.225C15.7305 155.791 15.7012 155.404 15.7715 155.064C15.8301 154.725 15.9531 154.449 16.1406 154.238C16.3281 154.016 16.5215 153.904 16.7207 153.904C16.8379 153.904 17.0195 153.957 17.2656 154.062C17.5234 154.156 17.8164 154.285 18.1445 154.449C18.4727 154.602 18.8301 154.766 19.2168 154.941C19.6035 155.117 19.9902 155.287 20.377 155.451C20.7637 155.604 21.1387 155.732 21.502 155.838C21.877 155.932 22.2168 155.979 22.5215 155.979C22.7207 155.744 22.9023 155.434 23.0664 155.047C23.2305 154.66 23.3125 154.238 23.3125 153.781C23.3125 153.219 23.2363 152.697 23.084 152.217C22.9316 151.736 22.7324 151.291 22.4863 150.881C22.2402 150.471 21.959 150.09 21.6426 149.738C21.3379 149.375 21.0273 149.035 20.7109 148.719C20.4297 149.41 20.1836 150.096 19.9727 150.775C19.7617 151.443 19.5391 152.205 19.3047 153.061ZM25.5098 141.072C25.7793 141.096 26.0781 141.113 26.4062 141.125C26.6875 141.148 27.0273 141.166 27.4258 141.178C27.8242 141.178 28.2695 141.184 28.7617 141.195V135.096C28.7617 134.838 28.7383 134.633 28.6914 134.48C28.6562 134.328 28.6152 134.211 28.5684 134.129C28.5332 134.035 28.4922 133.965 28.4453 133.918C28.4102 133.859 28.3926 133.801 28.3926 133.742C28.3926 133.672 28.4277 133.613 28.498 133.566C28.5684 133.52 28.6621 133.479 28.7793 133.443C28.8965 133.408 29.0195 133.385 29.1484 133.373C29.2891 133.35 29.4238 133.338 29.5527 133.338C30.1504 133.338 30.6191 133.496 30.959 133.812C31.3105 134.117 31.4863 134.486 31.4863 134.92V141.23C32.5879 141.23 33.748 141.219 34.9668 141.195C36.1973 141.172 37.4277 141.131 38.6582 141.072C38.8223 140.896 38.9512 140.832 39.0449 140.879C39.1504 140.926 39.2148 141.037 39.2383 141.213C39.2734 141.389 39.2793 141.605 39.2559 141.863C39.2324 142.121 39.1855 142.373 39.1152 142.619C39.0449 142.854 38.9453 143.059 38.8164 143.234C38.6992 143.41 38.5645 143.498 38.4121 143.498C36.9707 143.533 35.6934 143.557 34.5801 143.568C33.4785 143.568 32.4473 143.568 31.4863 143.568V154.977C31.4863 155.562 31.5977 155.984 31.8203 156.242C32.043 156.5 32.3418 156.629 32.7168 156.629C33.0801 156.629 33.3906 156.5 33.6484 156.242C33.918 155.984 34.1465 155.662 34.334 155.275C34.5332 154.889 34.6914 154.473 34.8086 154.027C34.9375 153.57 35.043 153.143 35.125 152.744C35.1953 152.369 35.3125 152.1 35.4766 151.936C35.6406 151.76 35.8105 151.672 35.9863 151.672C36.127 151.672 36.2734 151.719 36.4258 151.812C36.5781 151.895 36.7129 152.006 36.8301 152.146C36.959 152.287 37.0586 152.445 37.1289 152.621C37.2109 152.797 37.252 152.973 37.252 153.148C37.252 153.172 37.252 153.201 37.252 153.236C37.252 153.271 37.2402 153.324 37.2168 153.395C37.0645 153.992 36.8535 154.619 36.584 155.275C36.3262 155.932 35.9863 156.535 35.5645 157.086C35.1543 157.637 34.6621 158.094 34.0879 158.457C33.5137 158.82 32.8398 159.002 32.0664 159.002C31.5859 159.002 31.1406 158.926 30.7305 158.773C30.332 158.633 29.9863 158.398 29.6934 158.07C29.4004 157.754 29.1719 157.344 29.0078 156.84C28.8438 156.336 28.7617 155.727 28.7617 155.012V143.568C28.3633 143.568 28.0059 143.568 27.6895 143.568C27.3848 143.557 27.127 143.545 26.916 143.533C26.6699 143.521 26.4531 143.51 26.2656 143.498C25.9844 143.498 25.7383 143.375 25.5273 143.129C25.3047 142.871 25.1523 142.59 25.0703 142.285C24.9766 141.98 24.9648 141.705 25.0352 141.459C25.0938 141.201 25.252 141.072 25.5098 141.072ZM45.4785 156.629C45.8418 156.629 46.1523 156.5 46.4102 156.242C46.6797 155.984 46.9082 155.662 47.0957 155.275C47.2949 154.889 47.4531 154.473 47.5703 154.027C47.6992 153.57 47.8047 153.143 47.8867 152.744C47.9688 152.369 48.0859 152.1 48.2383 151.936C48.4023 151.76 48.5781 151.672 48.7656 151.672C48.9062 151.672 49.0469 151.719 49.1875 151.812C49.3398 151.895 49.4746 152.006 49.5918 152.146C49.7207 152.287 49.8203 152.445 49.8906 152.621C49.9727 152.797 50.0137 152.973 50.0137 153.148C50.0137 153.172 50.0137 153.201 50.0137 153.236C50.0137 153.271 50.002 153.324 49.9785 153.395C49.8262 153.992 49.6152 154.619 49.3457 155.275C49.0879 155.932 48.7539 156.535 48.3438 157.086C47.9336 157.637 47.4355 158.094 46.8496 158.457C46.2754 158.82 45.6016 159.002 44.8281 159.002C44.1953 159.002 43.6445 158.867 43.1758 158.598C42.707 158.328 42.3379 157.971 42.0684 157.525C41.7051 157.936 41.2656 158.281 40.75 158.562C40.2461 158.855 39.6543 159.002 38.9746 159.002C38.2715 159.002 37.6504 158.861 37.1113 158.58C36.584 158.299 36.1387 157.918 35.7754 157.438C35.4121 156.945 35.1367 156.371 34.9492 155.715C34.7734 155.047 34.6855 154.332 34.6855 153.57C34.6855 152.07 34.9258 150.723 35.4062 149.527C35.8867 148.332 36.5254 147.318 37.3223 146.486C38.1191 145.643 39.0273 144.998 40.0469 144.553C41.0781 144.107 42.1445 143.885 43.2461 143.885C43.7383 143.885 44.1367 144.02 44.4414 144.289C44.7461 144.559 44.8984 144.928 44.8984 145.396C44.8984 145.701 44.8633 145.918 44.793 146.047C44.7344 146.164 44.6172 146.223 44.4414 146.223C44.2773 146.223 44.1074 146.211 43.9316 146.188C43.7559 146.164 43.5742 146.152 43.3867 146.152C42.707 146.152 42.0156 146.305 41.3125 146.609C40.6094 146.902 39.9707 147.359 39.3965 147.98C38.834 148.59 38.3711 149.369 38.0078 150.318C37.6445 151.256 37.4629 152.375 37.4629 153.676C37.4629 154.625 37.6445 155.357 38.0078 155.873C38.3711 156.377 38.8691 156.629 39.502 156.629C39.9941 156.629 40.4043 156.447 40.7324 156.084C41.0605 155.709 41.3242 155.27 41.5234 154.766V149.211C41.5234 149.035 41.5117 148.889 41.4883 148.771C41.4766 148.654 41.459 148.555 41.4355 148.473C41.4238 148.391 41.4121 148.32 41.4004 148.262C41.3887 148.191 41.3828 148.127 41.3828 148.068C41.3828 147.881 41.4707 147.734 41.6465 147.629C41.834 147.512 42.0566 147.453 42.3145 147.453C42.9121 147.453 43.3867 147.611 43.7383 147.928C44.0898 148.232 44.2656 148.602 44.2656 149.035V154.977C44.2656 155.176 44.2891 155.375 44.3359 155.574C44.3828 155.762 44.4531 155.938 44.5469 156.102C44.6406 156.254 44.7637 156.383 44.916 156.488C45.0801 156.582 45.2676 156.629 45.4785 156.629ZM55.9023 159.002C55.4805 159.002 55.0469 158.938 54.6016 158.809C54.168 158.68 53.7695 158.457 53.4062 158.141C53.0547 157.824 52.7617 157.408 52.5273 156.893C52.3047 156.365 52.1934 155.703 52.1934 154.906C52.1934 153.746 52.3457 152.521 52.6504 151.232C52.9668 149.932 53.418 148.502 54.0039 146.943H51.2617H50.8574C50.8457 147.295 50.8223 147.74 50.7871 148.279C50.7637 148.818 50.7168 149.393 50.6465 150.002C50.5762 150.611 50.4824 151.227 50.3652 151.848C50.2598 152.469 50.125 153.043 49.9609 153.57C49.8438 153.945 49.6562 154.162 49.3984 154.221C49.1523 154.279 48.9062 154.238 48.6602 154.098C48.4141 153.945 48.2148 153.729 48.0625 153.447C47.9102 153.166 47.875 152.873 47.957 152.568C48.0508 152.205 48.1328 151.766 48.2031 151.25C48.2734 150.723 48.3262 150.172 48.3613 149.598C48.4082 149.012 48.4434 148.432 48.4668 147.857C48.4902 147.271 48.5078 146.75 48.5195 146.293C48.0742 146.047 47.7051 145.736 47.4121 145.361C47.1191 144.975 46.9727 144.518 46.9727 143.99C46.9727 143.744 47.0195 143.521 47.1133 143.322C47.2188 143.111 47.3535 142.936 47.5176 142.795C47.6816 142.643 47.875 142.531 48.0977 142.461C48.3203 142.379 48.5488 142.338 48.7832 142.338C48.9941 142.338 49.2109 142.367 49.4336 142.426C49.668 142.484 49.8848 142.59 50.084 142.742C50.2949 142.895 50.4824 143.094 50.6465 143.34C50.8105 143.586 50.9453 143.891 51.0508 144.254C51.3438 144.289 51.5898 144.318 51.7891 144.342C52 144.354 52.1758 144.365 52.3164 144.377C52.457 144.389 52.5742 144.395 52.668 144.395C52.7617 144.395 52.8555 144.395 52.9492 144.395H54.8301C54.9355 144.395 55.0879 144.459 55.2871 144.588C55.498 144.717 55.7031 144.887 55.9023 145.098C56.1016 145.297 56.2656 145.514 56.3945 145.748C56.5352 145.982 56.5879 146.205 56.5527 146.416C56.5527 146.486 56.5117 146.656 56.4297 146.926C56.3477 147.195 56.248 147.535 56.1309 147.945C56.0137 148.355 55.8848 148.83 55.7441 149.369C55.6035 149.896 55.4746 150.453 55.3574 151.039C55.2402 151.625 55.1406 152.234 55.0586 152.867C54.9766 153.488 54.9355 154.098 54.9355 154.695C54.9355 154.941 54.9648 155.182 55.0234 155.416C55.082 155.65 55.1699 155.861 55.2871 156.049C55.4043 156.225 55.5508 156.365 55.7266 156.471C55.9141 156.576 56.1309 156.629 56.377 156.629C56.7871 156.629 57.1387 156.5 57.4316 156.242C57.7246 155.984 57.9707 155.662 58.1699 155.275C58.3691 154.889 58.5273 154.473 58.6445 154.027C58.7734 153.57 58.8789 153.143 58.9609 152.744C59.0312 152.369 59.1484 152.1 59.3125 151.936C59.4766 151.76 59.6465 151.672 59.8223 151.672C59.9629 151.672 60.1094 151.719 60.2617 151.812C60.4141 151.895 60.5488 152.006 60.666 152.146C60.7949 152.287 60.8945 152.445 60.9648 152.621C61.0469 152.797 61.0879 152.973 61.0879 153.148C61.0879 153.207 61.082 153.254 61.0703 153.289C61.0586 153.324 61.0527 153.359 61.0527 153.395C60.8887 153.992 60.6719 154.619 60.4023 155.275C60.1445 155.932 59.8105 156.535 59.4004 157.086C58.9902 157.637 58.498 158.094 57.9238 158.457C57.3496 158.82 56.6758 159.002 55.9023 159.002ZM55.8848 141.072C56.1543 141.096 56.4531 141.113 56.7812 141.125C57.0625 141.148 57.4023 141.166 57.8008 141.178C58.1992 141.178 58.6445 141.184 59.1367 141.195V135.096C59.1367 134.838 59.1133 134.633 59.0664 134.48C59.0312 134.328 58.9902 134.211 58.9434 134.129C58.9082 134.035 58.8672 133.965 58.8203 133.918C58.7852 133.859 58.7676 133.801 58.7676 133.742C58.7676 133.672 58.8027 133.613 58.873 133.566C58.9434 133.52 59.0371 133.479 59.1543 133.443C59.2715 133.408 59.3945 133.385 59.5234 133.373C59.6641 133.35 59.7988 133.338 59.9277 133.338C60.5254 133.338 60.9941 133.496 61.334 133.812C61.6855 134.117 61.8613 134.486 61.8613 134.92V141.23C62.9629 141.23 64.123 141.219 65.3418 141.195C66.5723 141.172 67.8027 141.131 69.0332 141.072C69.1973 140.896 69.3262 140.832 69.4199 140.879C69.5254 140.926 69.5898 141.037 69.6133 141.213C69.6484 141.389 69.6543 141.605 69.6309 141.863C69.6074 142.121 69.5605 142.373 69.4902 142.619C69.4199 142.854 69.3203 143.059 69.1914 143.234C69.0742 143.41 68.9395 143.498 68.7871 143.498C67.3457 143.533 66.0684 143.557 64.9551 143.568C63.8535 143.568 62.8223 143.568 61.8613 143.568V154.977C61.8613 155.562 61.9727 155.984 62.1953 156.242C62.418 156.5 62.7168 156.629 63.0918 156.629C63.4551 156.629 63.7656 156.5 64.0234 156.242C64.293 155.984 64.5215 155.662 64.709 155.275C64.9082 154.889 65.0664 154.473 65.1836 154.027C65.3125 153.57 65.418 153.143 65.5 152.744C65.5703 152.369 65.6875 152.1 65.8516 151.936C66.0156 151.76 66.1855 151.672 66.3613 151.672C66.502 151.672 66.6484 151.719 66.8008 151.812C66.9531 151.895 67.0879 152.006 67.2051 152.146C67.334 152.287 67.4336 152.445 67.5039 152.621C67.5859 152.797 67.627 152.973 67.627 153.148C67.627 153.172 67.627 153.201 67.627 153.236C67.627 153.271 67.6152 153.324 67.5918 153.395C67.4395 153.992 67.2285 154.619 66.959 155.275C66.7012 155.932 66.3613 156.535 65.9395 157.086C65.5293 157.637 65.0371 158.094 64.4629 158.457C63.8887 158.82 63.2148 159.002 62.4414 159.002C61.9609 159.002 61.5156 158.926 61.1055 158.773C60.707 158.633 60.3613 158.398 60.0684 158.07C59.7754 157.754 59.5469 157.344 59.3828 156.84C59.2188 156.336 59.1367 155.727 59.1367 155.012V143.568C58.7383 143.568 58.3809 143.568 58.0645 143.568C57.7598 143.557 57.502 143.545 57.291 143.533C57.0449 143.521 56.8281 143.51 56.6406 143.498C56.3594 143.498 56.1133 143.375 55.9023 143.129C55.6797 142.871 55.5273 142.59 55.4453 142.285C55.3516 141.98 55.3398 141.705 55.4102 141.459C55.4688 141.201 55.627 141.072 55.8848 141.072Z" fill="black"/>
<path d="M299.545 147.523C299.545 148.191 299.428 148.877 299.193 149.58C298.971 150.283 298.631 150.951 298.174 151.584C297.729 152.205 297.172 152.768 296.504 153.271C295.848 153.764 295.086 154.139 294.219 154.396C294.336 154.701 294.488 154.994 294.676 155.275C294.875 155.545 295.109 155.779 295.379 155.979C295.648 156.178 295.959 156.336 296.311 156.453C296.674 156.57 297.09 156.629 297.559 156.629C298.262 156.629 298.865 156.5 299.369 156.242C299.873 155.973 300.295 155.621 300.635 155.188C300.986 154.754 301.268 154.268 301.479 153.729C301.689 153.189 301.848 152.645 301.953 152.094C302.035 151.695 302.199 151.432 302.445 151.303C302.703 151.162 302.961 151.127 303.219 151.197C303.488 151.268 303.717 151.42 303.904 151.654C304.104 151.877 304.186 152.146 304.15 152.463C304.104 152.826 304.021 153.242 303.904 153.711C303.799 154.18 303.635 154.654 303.412 155.135C303.189 155.615 302.902 156.09 302.551 156.559C302.211 157.016 301.789 157.426 301.285 157.789C300.781 158.152 300.189 158.445 299.51 158.668C298.83 158.891 298.051 159.002 297.172 159.002C296.352 159.002 295.555 158.838 294.781 158.51C294.02 158.193 293.34 157.736 292.742 157.139C292.156 156.529 291.682 155.785 291.318 154.906C290.967 154.016 290.791 153.008 290.791 151.883C290.791 150.746 290.949 149.691 291.266 148.719C291.582 147.734 291.998 146.885 292.514 146.17C293.029 145.455 293.615 144.898 294.271 144.5C294.928 144.09 295.602 143.885 296.293 143.885C296.797 143.885 297.248 143.973 297.646 144.148C298.057 144.324 298.402 144.576 298.684 144.904C298.965 145.221 299.176 145.602 299.316 146.047C299.469 146.492 299.545 146.984 299.545 147.523ZM293.744 151.777C293.744 151.883 293.75 151.988 293.762 152.094C293.773 152.199 293.779 152.311 293.779 152.428C294.225 152.217 294.629 151.947 294.992 151.619C295.355 151.291 295.666 150.916 295.924 150.494C296.182 150.072 296.381 149.615 296.521 149.123C296.662 148.619 296.732 148.098 296.732 147.559C296.732 147.16 296.662 146.85 296.521 146.627C296.393 146.404 296.211 146.293 295.977 146.293C295.684 146.293 295.42 146.393 295.186 146.592C294.963 146.791 294.764 147.055 294.588 147.383C294.424 147.699 294.283 148.062 294.166 148.473C294.061 148.871 293.973 149.275 293.902 149.686C293.832 150.096 293.785 150.488 293.762 150.863C293.738 151.227 293.732 151.531 293.744 151.777ZM301.953 146.012C301.953 145.672 301.924 145.426 301.865 145.273C301.818 145.121 301.795 144.98 301.795 144.852C301.795 144.676 301.889 144.535 302.076 144.43C302.264 144.312 302.486 144.254 302.744 144.254C303.342 144.254 303.811 144.412 304.15 144.729C304.502 145.033 304.678 145.402 304.678 145.836V147.453C304.924 146.949 305.188 146.48 305.469 146.047C305.762 145.613 306.072 145.238 306.4 144.922C306.74 144.594 307.098 144.342 307.473 144.166C307.859 143.979 308.275 143.885 308.721 143.885C309.318 143.885 309.811 143.996 310.197 144.219C310.584 144.441 310.889 144.729 311.111 145.08C311.334 145.432 311.486 145.824 311.568 146.258C311.662 146.691 311.709 147.113 311.709 147.523V154.977C311.709 155.059 311.715 155.193 311.727 155.381C311.738 155.557 311.773 155.738 311.832 155.926C311.891 156.113 311.979 156.277 312.096 156.418C312.225 156.559 312.406 156.629 312.641 156.629C313.004 156.629 313.314 156.5 313.572 156.242C313.842 155.984 314.07 155.662 314.258 155.275C314.457 154.889 314.615 154.473 314.732 154.027C314.861 153.57 314.967 153.143 315.049 152.744C315.119 152.369 315.236 152.1 315.4 151.936C315.564 151.76 315.734 151.672 315.91 151.672C316.051 151.672 316.197 151.719 316.35 151.812C316.502 151.895 316.637 152.006 316.754 152.146C316.883 152.287 316.982 152.445 317.053 152.621C317.135 152.797 317.176 152.973 317.176 153.148C317.176 153.172 317.176 153.201 317.176 153.236C317.176 153.271 317.164 153.324 317.141 153.395C316.988 153.992 316.777 154.619 316.508 155.275C316.25 155.932 315.91 156.535 315.488 157.086C315.078 157.637 314.586 158.094 314.012 158.457C313.438 158.82 312.764 159.002 311.99 159.002C311.51 159.002 311.082 158.908 310.707 158.721C310.344 158.545 310.027 158.305 309.758 158C309.5 157.695 309.301 157.338 309.16 156.928C309.031 156.518 308.967 156.084 308.967 155.627V148.314C308.967 148.033 308.961 147.77 308.949 147.523C308.938 147.277 308.902 147.061 308.844 146.873C308.797 146.686 308.721 146.539 308.615 146.434C308.521 146.316 308.387 146.258 308.211 146.258C307.953 146.258 307.637 146.434 307.262 146.785C306.887 147.137 306.518 147.594 306.154 148.156C305.791 148.719 305.469 149.357 305.188 150.072C304.918 150.775 304.748 151.484 304.678 152.199V157.455C304.678 157.631 304.672 157.812 304.66 158C304.66 158.176 304.625 158.334 304.555 158.475C304.496 158.627 304.396 158.75 304.256 158.844C304.127 158.949 303.934 159.002 303.676 159.002C303.5 159.002 303.307 158.979 303.096 158.932C302.896 158.896 302.709 158.82 302.533 158.703C302.369 158.598 302.229 158.439 302.111 158.229C302.006 158.029 301.953 157.76 301.953 157.42V146.012ZM318.986 159.002C318.283 159.002 317.645 158.879 317.07 158.633C316.496 158.387 316.004 158.023 315.594 157.543C315.195 157.051 314.885 156.447 314.662 155.732C314.451 155.006 314.346 154.168 314.346 153.219C314.346 151.836 314.539 150.605 314.926 149.527C315.312 148.438 315.84 147.506 316.508 146.732C317.176 145.947 317.949 145.326 318.828 144.869C319.707 144.4 320.639 144.096 321.623 143.955V135.816C321.623 135.559 321.6 135.354 321.553 135.201C321.518 135.049 321.477 134.932 321.43 134.85C321.395 134.756 321.354 134.686 321.307 134.639C321.271 134.58 321.254 134.521 321.254 134.463C321.254 134.393 321.289 134.334 321.359 134.287C321.43 134.24 321.523 134.199 321.641 134.164C321.758 134.129 321.881 134.105 322.01 134.094C322.15 134.07 322.285 134.059 322.414 134.059C323.012 134.059 323.48 134.217 323.82 134.533C324.172 134.838 324.348 135.207 324.348 135.641V154.977C324.348 155.176 324.371 155.375 324.418 155.574C324.465 155.762 324.535 155.938 324.629 156.102C324.734 156.254 324.863 156.383 325.016 156.488C325.18 156.582 325.367 156.629 325.578 156.629C325.941 156.629 326.252 156.5 326.51 156.242C326.779 155.984 327.008 155.662 327.195 155.275C327.395 154.889 327.553 154.473 327.67 154.027C327.799 153.57 327.904 153.143 327.986 152.744C328.057 152.369 328.174 152.1 328.338 151.936C328.502 151.76 328.672 151.672 328.848 151.672C328.988 151.672 329.135 151.719 329.287 151.812C329.439 151.895 329.574 152.006 329.691 152.146C329.82 152.287 329.92 152.445 329.99 152.621C330.072 152.797 330.113 152.973 330.113 153.148C330.113 153.172 330.113 153.201 330.113 153.236C330.113 153.271 330.102 153.324 330.078 153.395C329.926 153.992 329.715 154.619 329.445 155.275C329.188 155.932 328.848 156.535 328.426 157.086C328.016 157.637 327.523 158.094 326.949 158.457C326.375 158.82 325.701 159.002 324.928 159.002C324.307 159.002 323.762 158.873 323.293 158.615C322.824 158.357 322.455 158.018 322.186 157.596C321.787 158.006 321.324 158.34 320.797 158.598C320.281 158.867 319.678 159.002 318.986 159.002ZM319.531 156.629C320 156.629 320.404 156.494 320.744 156.225C321.096 155.955 321.389 155.621 321.623 155.223V146.328C321.037 146.434 320.469 146.633 319.918 146.926C319.379 147.207 318.898 147.605 318.477 148.121C318.066 148.637 317.738 149.293 317.492 150.09C317.246 150.875 317.123 151.83 317.123 152.955C317.123 153.611 317.188 154.174 317.316 154.643C317.457 155.1 317.633 155.475 317.844 155.768C318.066 156.061 318.324 156.277 318.617 156.418C318.91 156.559 319.215 156.629 319.531 156.629Z" fill="black"/>
<line y1="54" x2="350" y2="54" stroke="#FF3D00" stroke-width="2"/>
<line x1="1.00276" y1="55" x2="1.00276" y2="68" stroke="#FF3D00" stroke-width="2"/>
<line x1="349.003" y1="55" x2="349.003" y2="68" stroke="#FF3D00" stroke-width="2"/>
<path d="M174.5 40L195.718 53.5H153.282L174.5 40Z" fill="#FF3D00"/>
<path d="M144.545 14.5234C144.545 15.1914 144.428 15.877 144.193 16.5801C143.971 17.2832 143.631 17.9512 143.174 18.584C142.729 19.2051 142.172 19.7676 141.504 20.2715C140.848 20.7637 140.086 21.1387 139.219 21.3965C139.336 21.7012 139.488 21.9941 139.676 22.2754C139.875 22.5449 140.109 22.7793 140.379 22.9785C140.648 23.1777 140.959 23.3359 141.311 23.4531C141.674 23.5703 142.09 23.6289 142.559 23.6289C143.262 23.6289 143.865 23.5 144.369 23.2422C144.873 22.9727 145.295 22.6211 145.635 22.1875C145.986 21.7539 146.268 21.2676 146.479 20.7285C146.689 20.1895 146.848 19.6445 146.953 19.0938C147.035 18.6953 147.199 18.4316 147.445 18.3027C147.703 18.1621 147.961 18.127 148.219 18.1973C148.488 18.2676 148.717 18.4199 148.904 18.6543C149.104 18.877 149.186 19.1465 149.15 19.4629C149.104 19.8262 149.021 20.2422 148.904 20.7109C148.799 21.1797 148.635 21.6543 148.412 22.1348C148.189 22.6152 147.902 23.0898 147.551 23.5586C147.211 24.0156 146.789 24.4258 146.285 24.7891C145.781 25.1523 145.189 25.4453 144.51 25.668C143.83 25.8906 143.051 26.002 142.172 26.002C141.352 26.002 140.555 25.8379 139.781 25.5098C139.02 25.1934 138.34 24.7363 137.742 24.1387C137.156 23.5293 136.682 22.7852 136.318 21.9062C135.967 21.0156 135.791 20.0078 135.791 18.8828C135.791 17.7461 135.949 16.6914 136.266 15.7188C136.582 14.7344 136.998 13.8848 137.514 13.1699C138.029 12.4551 138.615 11.8984 139.271 11.5C139.928 11.0898 140.602 10.8848 141.293 10.8848C141.797 10.8848 142.248 10.9727 142.646 11.1484C143.057 11.3242 143.402 11.5762 143.684 11.9043C143.965 12.2207 144.176 12.6016 144.316 13.0469C144.469 13.4922 144.545 13.9844 144.545 14.5234ZM138.744 18.7773C138.744 18.8828 138.75 18.9883 138.762 19.0938C138.773 19.1992 138.779 19.3105 138.779 19.4277C139.225 19.2168 139.629 18.9473 139.992 18.6191C140.355 18.291 140.666 17.916 140.924 17.4941C141.182 17.0723 141.381 16.6152 141.521 16.123C141.662 15.6191 141.732 15.0977 141.732 14.5586C141.732 14.1602 141.662 13.8496 141.521 13.627C141.393 13.4043 141.211 13.293 140.977 13.293C140.684 13.293 140.42 13.3926 140.186 13.5918C139.963 13.791 139.764 14.0547 139.588 14.3828C139.424 14.6992 139.283 15.0625 139.166 15.4727C139.061 15.8711 138.973 16.2754 138.902 16.6855C138.832 17.0957 138.785 17.4883 138.762 17.8633C138.738 18.2266 138.732 18.5312 138.744 18.7773ZM149.678 14.3477C149.807 14.1016 149.93 13.7734 150.047 13.3633C150.176 12.9414 150.293 12.4785 150.398 11.9746C150.516 11.4707 150.621 10.9434 150.715 10.3926C150.809 9.8418 150.891 9.30273 150.961 8.77539C151.031 8.24805 151.084 7.75586 151.119 7.29883C151.166 6.83008 151.189 6.43164 151.189 6.10352C151.189 4.9082 151.102 4.03516 150.926 3.48438C150.75 2.92188 150.516 2.64062 150.223 2.64062C150.129 2.64062 150.047 2.6875 149.977 2.78125C149.906 2.875 149.848 2.99805 149.801 3.15039C149.754 3.29102 149.719 3.44922 149.695 3.625C149.684 3.78906 149.678 3.94141 149.678 4.08203V14.3477ZM154.793 19.7793C154.863 19.4277 154.969 19.1758 155.109 19.0234C155.262 18.8594 155.42 18.7715 155.584 18.7598C155.76 18.7363 155.936 18.7773 156.111 18.8828C156.287 18.9766 156.439 19.1055 156.568 19.2695C156.697 19.4336 156.791 19.6211 156.85 19.832C156.92 20.0312 156.932 20.2305 156.885 20.4297C156.721 20.9102 156.486 21.4727 156.182 22.1172C155.877 22.7617 155.49 23.3711 155.021 23.9453C154.553 24.5195 154.002 25.0059 153.369 25.4043C152.736 25.8027 152.01 26.002 151.189 26.002C150.498 26.002 149.889 25.8848 149.361 25.6504C148.834 25.4277 148.389 25.1113 148.025 24.7012C147.674 24.2793 147.404 23.7812 147.217 23.207C147.041 22.6211 146.953 21.9707 146.953 21.2559V4.87305C146.953 4.20508 147.035 3.58984 147.199 3.02734C147.375 2.45312 147.609 1.9668 147.902 1.56836C148.207 1.1582 148.559 0.841797 148.957 0.619141C149.355 0.384766 149.777 0.267578 150.223 0.267578C150.75 0.267578 151.195 0.367188 151.559 0.566406C151.922 0.753906 152.221 1.00586 152.455 1.32227C152.689 1.63867 152.871 2.00195 153 2.41211C153.141 2.82227 153.24 3.24414 153.299 3.67773C153.357 4.09961 153.393 4.52148 153.404 4.94336C153.416 5.35352 153.422 5.72852 153.422 6.06836C153.422 6.94727 153.34 7.87305 153.176 8.8457C153.012 9.80664 152.801 10.7559 152.543 11.6934C152.297 12.6309 152.021 13.5332 151.717 14.4004C151.424 15.2559 151.137 16.0176 150.855 16.6855C150.586 17.3535 150.34 17.8984 150.117 18.3203C149.906 18.7422 149.76 18.9883 149.678 19.0586V21.1504C149.678 21.877 149.83 22.4746 150.135 22.9434C150.439 23.4004 150.926 23.6289 151.594 23.6289C152.004 23.6289 152.385 23.5059 152.736 23.2598C153.1 23.002 153.416 22.6855 153.686 22.3105C153.967 21.9238 154.201 21.5078 154.389 21.0625C154.576 20.6055 154.711 20.1777 154.793 19.7793ZM163.178 14.5234C163.178 15.1914 163.061 15.877 162.826 16.5801C162.604 17.2832 162.264 17.9512 161.807 18.584C161.361 19.2051 160.805 19.7676 160.137 20.2715C159.48 20.7637 158.719 21.1387 157.852 21.3965C157.969 21.7012 158.121 21.9941 158.309 22.2754C158.508 22.5449 158.742 22.7793 159.012 22.9785C159.281 23.1777 159.592 23.3359 159.943 23.4531C160.307 23.5703 160.723 23.6289 161.191 23.6289C161.895 23.6289 162.498 23.5 163.002 23.2422C163.506 22.9727 163.928 22.6211 164.268 22.1875C164.619 21.7539 164.9 21.2676 165.111 20.7285C165.322 20.1895 165.48 19.6445 165.586 19.0938C165.668 18.6953 165.832 18.4316 166.078 18.3027C166.336 18.1621 166.594 18.127 166.852 18.1973C167.121 18.2676 167.35 18.4199 167.537 18.6543C167.736 18.877 167.818 19.1465 167.783 19.4629C167.736 19.8262 167.654 20.2422 167.537 20.7109C167.432 21.1797 167.268 21.6543 167.045 22.1348C166.822 22.6152 166.535 23.0898 166.184 23.5586C165.844 24.0156 165.422 24.4258 164.918 24.7891C164.414 25.1523 163.822 25.4453 163.143 25.668C162.463 25.8906 161.684 26.002 160.805 26.002C159.984 26.002 159.188 25.8379 158.414 25.5098C157.652 25.1934 156.973 24.7363 156.375 24.1387C155.789 23.5293 155.314 22.7852 154.951 21.9062C154.6 21.0156 154.424 20.0078 154.424 18.8828C154.424 17.7461 154.582 16.6914 154.898 15.7188C155.215 14.7344 155.631 13.8848 156.146 13.1699C156.662 12.4551 157.248 11.8984 157.904 11.5C158.561 11.0898 159.234 10.8848 159.926 10.8848C160.43 10.8848 160.881 10.9727 161.279 11.1484C161.689 11.3242 162.035 11.5762 162.316 11.9043C162.598 12.2207 162.809 12.6016 162.949 13.0469C163.102 13.4922 163.178 13.9844 163.178 14.5234ZM157.377 18.7773C157.377 18.8828 157.383 18.9883 157.395 19.0938C157.406 19.1992 157.412 19.3105 157.412 19.4277C157.857 19.2168 158.262 18.9473 158.625 18.6191C158.988 18.291 159.299 17.916 159.557 17.4941C159.814 17.0723 160.014 16.6152 160.154 16.123C160.295 15.6191 160.365 15.0977 160.365 14.5586C160.365 14.1602 160.295 13.8496 160.154 13.627C160.025 13.4043 159.844 13.293 159.609 13.293C159.316 13.293 159.053 13.3926 158.818 13.5918C158.596 13.791 158.396 14.0547 158.221 14.3828C158.057 14.6992 157.916 15.0625 157.799 15.4727C157.693 15.8711 157.605 16.2754 157.535 16.6855C157.465 17.0957 157.418 17.4883 157.395 17.8633C157.371 18.2266 157.365 18.5312 157.377 18.7773ZM187.066 20.3945C186.902 20.9922 186.686 21.6191 186.416 22.2754C186.158 22.9316 185.824 23.5352 185.414 24.0859C185.004 24.6367 184.512 25.0938 183.938 25.457C183.363 25.8203 182.689 26.002 181.916 26.002C181.436 26.002 181.008 25.9082 180.633 25.7207C180.27 25.5449 179.953 25.3047 179.684 25C179.426 24.6953 179.227 24.3379 179.086 23.9277C178.957 23.5176 178.893 23.084 178.893 22.627V15.3145C178.893 15.0332 178.887 14.7695 178.875 14.5234C178.863 14.2773 178.834 14.0605 178.787 13.873C178.74 13.6855 178.67 13.5391 178.576 13.4336C178.494 13.3164 178.377 13.2578 178.225 13.2578C177.979 13.2578 177.68 13.4336 177.328 13.7852C176.977 14.1367 176.637 14.5938 176.309 15.1562C175.98 15.7188 175.688 16.3574 175.43 17.0723C175.172 17.7754 175.02 18.4844 174.973 19.1992V24.4551C174.973 24.6309 174.967 24.8125 174.955 25C174.955 25.1758 174.92 25.334 174.85 25.4746C174.791 25.627 174.691 25.75 174.551 25.8438C174.422 25.9492 174.229 26.002 173.971 26.002C173.795 26.002 173.602 25.9785 173.391 25.9316C173.191 25.8965 173.004 25.8203 172.828 25.7031C172.664 25.5977 172.523 25.4395 172.406 25.2285C172.301 25.0293 172.248 24.7598 172.248 24.4199V15.3145C172.248 15.0332 172.236 14.7695 172.213 14.5234C172.201 14.2773 172.172 14.0605 172.125 13.873C172.078 13.6855 172.008 13.5391 171.914 13.4336C171.832 13.3164 171.715 13.2578 171.562 13.2578C171.316 13.2578 171.018 13.4336 170.666 13.7852C170.326 14.1367 169.986 14.5938 169.646 15.1562C169.318 15.7188 169.025 16.3574 168.768 17.0723C168.521 17.7754 168.369 18.4844 168.311 19.1992V24.4551C168.311 24.6309 168.305 24.8125 168.293 25C168.293 25.1758 168.258 25.334 168.188 25.4746C168.129 25.627 168.029 25.75 167.889 25.8438C167.76 25.9492 167.566 26.002 167.309 26.002C167.133 26.002 166.939 25.9785 166.729 25.9316C166.529 25.8965 166.342 25.8203 166.166 25.7031C166.002 25.5977 165.861 25.4395 165.744 25.2285C165.639 25.0293 165.586 24.7598 165.586 24.4199V13.0117C165.586 12.6719 165.557 12.4258 165.498 12.2734C165.451 12.1211 165.428 11.9805 165.428 11.8516C165.428 11.6758 165.521 11.5352 165.709 11.4297C165.896 11.3125 166.119 11.2539 166.377 11.2539C166.975 11.2539 167.443 11.4121 167.783 11.7285C168.135 12.0332 168.311 12.4023 168.311 12.8359V14.3477C168.545 13.8555 168.797 13.3984 169.066 12.9766C169.348 12.5547 169.646 12.1914 169.963 11.8867C170.279 11.5703 170.613 11.3242 170.965 11.1484C171.328 10.9727 171.715 10.8848 172.125 10.8848C172.664 10.8848 173.109 10.9844 173.461 11.1836C173.824 11.3828 174.111 11.6465 174.322 11.9746C174.545 12.3027 174.703 12.6719 174.797 13.082C174.891 13.4805 174.949 13.8789 174.973 14.2773C175.195 13.7969 175.441 13.3516 175.711 12.9414C175.98 12.5312 176.273 12.1738 176.59 11.8691C176.906 11.5645 177.24 11.3242 177.592 11.1484C177.955 10.9727 178.342 10.8848 178.752 10.8848C179.338 10.8848 179.818 10.9961 180.193 11.2188C180.568 11.4414 180.861 11.7285 181.072 12.0801C181.283 12.4316 181.43 12.8242 181.512 13.2578C181.594 13.6914 181.635 14.1133 181.635 14.5234V21.9766C181.635 22.0586 181.641 22.1934 181.652 22.3809C181.664 22.5566 181.699 22.7383 181.758 22.9258C181.816 23.1133 181.904 23.2773 182.021 23.418C182.15 23.5586 182.332 23.6289 182.566 23.6289C182.93 23.6289 183.24 23.5 183.498 23.2422C183.768 22.9844 183.996 22.6621 184.184 22.2754C184.383 21.8887 184.547 21.4727 184.676 21.0273C184.805 20.5703 184.91 20.1426 184.992 19.7441C185.062 19.3691 185.174 19.0996 185.326 18.9355C185.49 18.7598 185.666 18.6719 185.854 18.6719C185.994 18.6719 186.135 18.7188 186.275 18.8125C186.428 18.8945 186.562 19.0059 186.68 19.1465C186.809 19.2871 186.908 19.4453 186.979 19.6211C187.061 19.7969 187.102 19.9727 187.102 20.1484C187.102 20.1719 187.102 20.2012 187.102 20.2363C187.102 20.2715 187.09 20.3242 187.066 20.3945ZM193.412 14.5234C193.412 15.1914 193.295 15.877 193.061 16.5801C192.838 17.2832 192.498 17.9512 192.041 18.584C191.596 19.2051 191.039 19.7676 190.371 20.2715C189.715 20.7637 188.953 21.1387 188.086 21.3965C188.203 21.7012 188.355 21.9941 188.543 22.2754C188.742 22.5449 188.977 22.7793 189.246 22.9785C189.516 23.1777 189.826 23.3359 190.178 23.4531C190.541 23.5703 190.957 23.6289 191.426 23.6289C192.129 23.6289 192.732 23.5 193.236 23.2422C193.74 22.9727 194.162 22.6211 194.502 22.1875C194.854 21.7539 195.135 21.2676 195.346 20.7285C195.557 20.1895 195.715 19.6445 195.82 19.0938C195.902 18.6953 196.066 18.4316 196.312 18.3027C196.57 18.1621 196.828 18.127 197.086 18.1973C197.355 18.2676 197.584 18.4199 197.771 18.6543C197.971 18.877 198.053 19.1465 198.018 19.4629C197.971 19.8262 197.889 20.2422 197.771 20.7109C197.666 21.1797 197.502 21.6543 197.279 22.1348C197.057 22.6152 196.77 23.0898 196.418 23.5586C196.078 24.0156 195.656 24.4258 195.152 24.7891C194.648 25.1523 194.057 25.4453 193.377 25.668C192.697 25.8906 191.918 26.002 191.039 26.002C190.219 26.002 189.422 25.8379 188.648 25.5098C187.887 25.1934 187.207 24.7363 186.609 24.1387C186.023 23.5293 185.549 22.7852 185.186 21.9062C184.834 21.0156 184.658 20.0078 184.658 18.8828C184.658 17.7461 184.816 16.6914 185.133 15.7188C185.449 14.7344 185.865 13.8848 186.381 13.1699C186.896 12.4551 187.482 11.8984 188.139 11.5C188.795 11.0898 189.469 10.8848 190.16 10.8848C190.664 10.8848 191.115 10.9727 191.514 11.1484C191.924 11.3242 192.27 11.5762 192.551 11.9043C192.832 12.2207 193.043 12.6016 193.184 13.0469C193.336 13.4922 193.412 13.9844 193.412 14.5234ZM187.611 18.7773C187.611 18.8828 187.617 18.9883 187.629 19.0938C187.641 19.1992 187.646 19.3105 187.646 19.4277C188.092 19.2168 188.496 18.9473 188.859 18.6191C189.223 18.291 189.533 17.916 189.791 17.4941C190.049 17.0723 190.248 16.6152 190.389 16.123C190.529 15.6191 190.6 15.0977 190.6 14.5586C190.6 14.1602 190.529 13.8496 190.389 13.627C190.26 13.4043 190.078 13.293 189.844 13.293C189.551 13.293 189.287 13.3926 189.053 13.5918C188.83 13.791 188.631 14.0547 188.455 14.3828C188.291 14.6992 188.15 15.0625 188.033 15.4727C187.928 15.8711 187.84 16.2754 187.77 16.6855C187.699 17.0957 187.652 17.4883 187.629 17.8633C187.605 18.2266 187.6 18.5312 187.611 18.7773ZM195.82 13.0117C195.82 12.6719 195.791 12.4258 195.732 12.2734C195.686 12.1211 195.662 11.9805 195.662 11.8516C195.662 11.6758 195.756 11.5352 195.943 11.4297C196.131 11.3125 196.354 11.2539 196.611 11.2539C197.209 11.2539 197.678 11.4121 198.018 11.7285C198.369 12.0332 198.545 12.4023 198.545 12.8359V14.4531C198.791 13.9492 199.055 13.4805 199.336 13.0469C199.629 12.6133 199.939 12.2383 200.268 11.9219C200.607 11.5938 200.965 11.3418 201.34 11.166C201.727 10.9785 202.143 10.8848 202.588 10.8848C203.186 10.8848 203.678 10.9961 204.064 11.2188C204.451 11.4414 204.756 11.7285 204.979 12.0801C205.201 12.4316 205.354 12.8242 205.436 13.2578C205.529 13.6914 205.576 14.1133 205.576 14.5234V21.9766C205.576 22.0586 205.582 22.1934 205.594 22.3809C205.605 22.5566 205.641 22.7383 205.699 22.9258C205.758 23.1133 205.846 23.2773 205.963 23.418C206.092 23.5586 206.273 23.6289 206.508 23.6289C206.871 23.6289 207.182 23.5 207.439 23.2422C207.709 22.9844 207.938 22.6621 208.125 22.2754C208.324 21.8887 208.482 21.4727 208.6 21.0273C208.729 20.5703 208.834 20.1426 208.916 19.7441C208.986 19.3691 209.104 19.0996 209.268 18.9355C209.432 18.7598 209.602 18.6719 209.777 18.6719C209.918 18.6719 210.064 18.7188 210.217 18.8125C210.369 18.8945 210.504 19.0059 210.621 19.1465C210.75 19.2871 210.85 19.4453 210.92 19.6211C211.002 19.7969 211.043 19.9727 211.043 20.1484C211.043 20.1719 211.043 20.2012 211.043 20.2363C211.043 20.2715 211.031 20.3242 211.008 20.3945C210.855 20.9922 210.645 21.6191 210.375 22.2754C210.117 22.9316 209.777 23.5352 209.355 24.0859C208.945 24.6367 208.453 25.0938 207.879 25.457C207.305 25.8203 206.631 26.002 205.857 26.002C205.377 26.002 204.949 25.9082 204.574 25.7207C204.211 25.5449 203.895 25.3047 203.625 25C203.367 24.6953 203.168 24.3379 203.027 23.9277C202.898 23.5176 202.834 23.084 202.834 22.627V15.3145C202.834 15.0332 202.828 14.7695 202.816 14.5234C202.805 14.2773 202.77 14.0605 202.711 13.873C202.664 13.6855 202.588 13.5391 202.482 13.4336C202.389 13.3164 202.254 13.2578 202.078 13.2578C201.82 13.2578 201.504 13.4336 201.129 13.7852C200.754 14.1367 200.385 14.5938 200.021 15.1562C199.658 15.7188 199.336 16.3574 199.055 17.0723C198.785 17.7754 198.615 18.4844 198.545 19.1992V24.4551C198.545 24.6309 198.539 24.8125 198.527 25C198.527 25.1758 198.492 25.334 198.422 25.4746C198.363 25.627 198.264 25.75 198.123 25.8438C197.994 25.9492 197.801 26.002 197.543 26.002C197.367 26.002 197.174 25.9785 196.963 25.9316C196.764 25.8965 196.576 25.8203 196.4 25.7031C196.236 25.5977 196.096 25.4395 195.979 25.2285C195.873 25.0293 195.82 24.7598 195.82 24.4199V13.0117ZM205.576 8.07227C205.846 8.0957 206.145 8.11328 206.473 8.125C206.754 8.14844 207.094 8.16602 207.492 8.17773C207.891 8.17773 208.336 8.18359 208.828 8.19531V2.0957C208.828 1.83789 208.805 1.63281 208.758 1.48047C208.723 1.32812 208.682 1.21094 208.635 1.12891C208.6 1.03516 208.559 0.964844 208.512 0.917969C208.477 0.859375 208.459 0.800781 208.459 0.742188C208.459 0.671875 208.494 0.613281 208.564 0.566406C208.635 0.519531 208.729 0.478516 208.846 0.443359C208.963 0.408203 209.086 0.384766 209.215 0.373047C209.355 0.349609 209.49 0.337891 209.619 0.337891C210.217 0.337891 210.686 0.496094 211.025 0.8125C211.377 1.11719 211.553 1.48633 211.553 1.91992V8.23047C212.654 8.23047 213.814 8.21875 215.033 8.19531C216.264 8.17188 217.494 8.13086 218.725 8.07227C218.889 7.89648 219.018 7.83203 219.111 7.87891C219.217 7.92578 219.281 8.03711 219.305 8.21289C219.34 8.38867 219.346 8.60547 219.322 8.86328C219.299 9.12109 219.252 9.37305 219.182 9.61914C219.111 9.85352 219.012 10.0586 218.883 10.2344C218.766 10.4102 218.631 10.498 218.479 10.498C217.037 10.5332 215.76 10.5566 214.646 10.5684C213.545 10.5684 212.514 10.5684 211.553 10.5684V21.9766C211.553 22.5625 211.664 22.9844 211.887 23.2422C212.109 23.5 212.408 23.6289 212.783 23.6289C213.146 23.6289 213.457 23.5 213.715 23.2422C213.984 22.9844 214.213 22.6621 214.4 22.2754C214.6 21.8887 214.758 21.4727 214.875 21.0273C215.004 20.5703 215.109 20.1426 215.191 19.7441C215.262 19.3691 215.379 19.0996 215.543 18.9355C215.707 18.7598 215.877 18.6719 216.053 18.6719C216.193 18.6719 216.34 18.7188 216.492 18.8125C216.645 18.8945 216.779 19.0059 216.896 19.1465C217.025 19.2871 217.125 19.4453 217.195 19.6211C217.277 19.7969 217.318 19.9727 217.318 20.1484C217.318 20.1719 217.318 20.2012 217.318 20.2363C217.318 20.2715 217.307 20.3242 217.283 20.3945C217.131 20.9922 216.92 21.6191 216.65 22.2754C216.393 22.9316 216.053 23.5352 215.631 24.0859C215.221 24.6367 214.729 25.0938 214.154 25.457C213.58 25.8203 212.906 26.002 212.133 26.002C211.652 26.002 211.207 25.9258 210.797 25.7734C210.398 25.6328 210.053 25.3984 209.76 25.0703C209.467 24.7539 209.238 24.3438 209.074 23.8398C208.91 23.3359 208.828 22.7266 208.828 22.0117V10.5684C208.43 10.5684 208.072 10.5684 207.756 10.5684C207.451 10.5566 207.193 10.5449 206.982 10.5332C206.736 10.5215 206.52 10.5098 206.332 10.498C206.051 10.498 205.805 10.375 205.594 10.1289C205.371 9.87109 205.219 9.58984 205.137 9.28516C205.043 8.98047 205.031 8.70508 205.102 8.45898C205.16 8.20117 205.318 8.07227 205.576 8.07227Z" fill="black"/>
</svg>
