<svg width="375" height="160" viewBox="0 0 375 160" fill="none" xmlns="http://www.w3.org/2000/svg">
<path d="M1.26562 82.3359V80.6719L11.1562 73.3125L12.1406 74.6719L3.04688 81.5156L12.1406 88.3594L11.1562 89.7188L1.26562 82.3359ZM15.2109 90V77.3906H16.9922V79.2891C17.2109 78.7109 17.625 78.1797 18.2344 77.6953C18.8438 77.2109 19.6172 76.9688 20.5547 76.9688C21.4766 76.9688 22.1797 77.2344 22.6641 77.7656C23.1484 78.2812 23.5234 78.9531 23.7891 79.7812C23.8672 79.5781 23.9922 79.3438 24.1641 79.0781C24.3359 78.8125 24.5781 78.5078 24.8906 78.1641C25.2031 77.8203 25.6172 77.5391 26.1328 77.3203C26.6641 77.0859 27.2422 76.9688 27.8672 76.9688C30.3047 76.9688 31.5234 78.5938 31.5234 81.8438V90H29.6953V81.9844C29.6953 80.8281 29.5391 79.9609 29.2266 79.3828C28.9141 78.7891 28.3203 78.4922 27.4453 78.4922C26.5391 78.4922 25.7812 78.875 25.1719 79.6406C24.5625 80.3906 24.2578 81.3438 24.2578 82.5V90H22.4766V81.9609C22.4766 79.6484 21.7109 78.4922 20.1797 78.4922C19.2266 78.4922 18.4609 78.8516 17.8828 79.5703C17.3203 80.2891 17.0391 81.2266 17.0391 82.3828V90H15.2109ZM36.0703 86.7656C36.0703 87.3594 36.3203 87.8672 36.8203 88.2891C37.3203 88.6953 38.0078 88.8984 38.8828 88.8984C39.9922 88.8984 40.9375 88.5391 41.7188 87.8203C42.5156 87.1016 42.9141 86.1875 42.9141 85.0781V83.3203C42.2266 83.4922 41.1328 83.6953 39.6328 83.9297C38.4141 84.1484 37.5156 84.4844 36.9375 84.9375C36.3594 85.3906 36.0703 86 36.0703 86.7656ZM34.2422 86.9062C34.2422 84.5625 36.0547 83.1094 39.6797 82.5469C41.3047 82.2812 42.3828 82.0625 42.9141 81.8906V81.1641C42.9141 80.3828 42.6328 79.7344 42.0703 79.2188C41.5078 78.7031 40.7109 78.4453 39.6797 78.4453C38.9297 78.4453 38.2031 78.625 37.5 78.9844C36.8125 79.3281 36.2266 79.7969 35.7422 80.3906L34.5703 79.4062C35.1953 78.6875 35.9453 78.1016 36.8203 77.6484C37.7109 77.1953 38.6484 76.9688 39.6328 76.9688C43.0078 76.9688 44.6953 78.6172 44.6953 81.9141V90H42.9609V87.9375C42.7109 88.6094 42.1953 89.1953 41.4141 89.6953C40.6328 90.1797 39.7109 90.4219 38.6484 90.4219C37.2578 90.4219 36.1719 90.0938 35.3906 89.4375C34.625 88.7812 34.2422 87.9375 34.2422 86.9062ZM48.3281 90V77.3906H50.0625V79.2188C50.3125 78.6562 50.7266 78.1406 51.3047 77.6719C51.8828 77.2031 52.625 76.9688 53.5312 76.9688C54.2031 76.9688 54.7969 77.0781 55.3125 77.2969V78.9375C54.75 78.7188 54.1562 78.6094 53.5312 78.6094C52.4688 78.6094 51.6406 79.0078 51.0469 79.8047C50.4531 80.6016 50.1562 81.6562 50.1562 82.9688V90H48.3281ZM57.3047 90V71.7891H59.1328V83.7188L64.6172 77.3906H67.0078L62.5078 82.4297L67.5234 90H65.3203L61.3359 83.6953L59.1328 86.1562V90H57.3047ZM69.5391 89.7188L68.6016 88.3594L77.6484 81.5156L68.6016 74.6719L69.5391 73.3125L79.4766 80.6719V82.3359L69.5391 89.7188ZM286.195 82.3359V80.6719L296.086 73.3125L297.07 74.6719L287.977 81.5156L297.07 88.3594L296.086 89.7188L286.195 82.3359ZM297.961 91.3359L304.711 71.3438H306.633L299.883 91.3359H297.961ZM308.203 90V77.3906H309.984V79.2891C310.203 78.7109 310.617 78.1797 311.227 77.6953C311.836 77.2109 312.609 76.9688 313.547 76.9688C314.469 76.9688 315.172 77.2344 315.656 77.7656C316.141 78.2812 316.516 78.9531 316.781 79.7812C316.859 79.5781 316.984 79.3438 317.156 79.0781C317.328 78.8125 317.57 78.5078 317.883 78.1641C318.195 77.8203 318.609 77.5391 319.125 77.3203C319.656 77.0859 320.234 76.9688 320.859 76.9688C323.297 76.9688 324.516 78.5938 324.516 81.8438V90H322.688V81.9844C322.688 80.8281 322.531 79.9609 322.219 79.3828C321.906 78.7891 321.312 78.4922 320.438 78.4922C319.531 78.4922 318.773 78.875 318.164 79.6406C317.555 80.3906 317.25 81.3438 317.25 82.5V90H315.469V81.9609C315.469 79.6484 314.703 78.4922 313.172 78.4922C312.219 78.4922 311.453 78.8516 310.875 79.5703C310.312 80.2891 310.031 81.2266 310.031 82.3828V90H308.203ZM329.062 86.7656C329.062 87.3594 329.312 87.8672 329.812 88.2891C330.312 88.6953 331 88.8984 331.875 88.8984C332.984 88.8984 333.93 88.5391 334.711 87.8203C335.508 87.1016 335.906 86.1875 335.906 85.0781V83.3203C335.219 83.4922 334.125 83.6953 332.625 83.9297C331.406 84.1484 330.508 84.4844 329.93 84.9375C329.352 85.3906 329.062 86 329.062 86.7656ZM327.234 86.9062C327.234 84.5625 329.047 83.1094 332.672 82.5469C334.297 82.2812 335.375 82.0625 335.906 81.8906V81.1641C335.906 80.3828 335.625 79.7344 335.062 79.2188C334.5 78.7031 333.703 78.4453 332.672 78.4453C331.922 78.4453 331.195 78.625 330.492 78.9844C329.805 79.3281 329.219 79.7969 328.734 80.3906L327.562 79.4062C328.188 78.6875 328.938 78.1016 329.812 77.6484C330.703 77.1953 331.641 76.9688 332.625 76.9688C336 76.9688 337.688 78.6172 337.688 81.9141V90H335.953V87.9375C335.703 88.6094 335.188 89.1953 334.406 89.6953C333.625 90.1797 332.703 90.4219 331.641 90.4219C330.25 90.4219 329.164 90.0938 328.383 89.4375C327.617 88.7812 327.234 87.9375 327.234 86.9062ZM341.32 90V77.3906H343.055V79.2188C343.305 78.6562 343.719 78.1406 344.297 77.6719C344.875 77.2031 345.617 76.9688 346.523 76.9688C347.195 76.9688 347.789 77.0781 348.305 77.2969V78.9375C347.742 78.7188 347.148 78.6094 346.523 78.6094C345.461 78.6094 344.633 79.0078 344.039 79.8047C343.445 80.6016 343.148 81.6562 343.148 82.9688V90H341.32ZM350.297 90V71.7891H352.125V83.7188L357.609 77.3906H360L355.5 82.4297L360.516 90H358.312L354.328 83.6953L352.125 86.1562V90H350.297ZM362.531 89.7188L361.594 88.3594L370.641 81.5156L361.594 74.6719L362.531 73.3125L372.469 80.6719V82.3359L362.531 89.7188Z" fill="#FF4500"/>
<path d="M81 74.0391V72.4453H93.5625V74.0391H88.2188V90H86.3438V74.0391H81ZM95.8125 90V71.7891H97.5938V79.4297H97.6406C97.9531 78.7578 98.4531 78.1797 99.1406 77.6953C99.8438 77.2109 100.641 76.9688 101.531 76.9688C104.25 76.9688 105.609 78.5938 105.609 81.8438V90H103.828V82.1484C103.828 79.7109 102.953 78.4922 101.203 78.4922C100.234 78.4922 99.3906 78.8906 98.6719 79.6875C97.9531 80.4844 97.5938 81.4297 97.5938 82.5234V90H95.8125ZM108.398 83.6016C108.398 81.6328 108.93 80.0391 109.992 78.8203C111.055 77.5859 112.43 76.9688 114.117 76.9688C115.836 76.9688 117.188 77.5703 118.172 78.7734C119.156 79.9609 119.648 81.4844 119.648 83.3438C119.648 83.5625 119.633 83.875 119.602 84.2812H110.227C110.227 85.5469 110.578 86.6328 111.281 87.5391C111.984 88.4453 112.961 88.8984 114.211 88.8984C115.023 88.8984 115.742 88.7109 116.367 88.3359C116.992 87.9453 117.477 87.4297 117.82 86.7891L119.367 87.2578C118.977 88.1797 118.344 88.9375 117.469 89.5312C116.594 90.125 115.508 90.4219 114.211 90.4219C112.461 90.4219 111.055 89.7969 109.992 88.5469C108.93 87.2969 108.398 85.6484 108.398 83.6016ZM110.273 82.8984H117.82C117.82 81.6641 117.484 80.625 116.812 79.7812C116.141 78.9219 115.242 78.4922 114.117 78.4922C112.977 78.4922 112.055 78.9297 111.352 79.8047C110.664 80.6797 110.305 81.7109 110.273 82.8984ZM128.508 90V71.7891H130.289V79.4297H130.336C130.648 78.7578 131.148 78.1797 131.836 77.6953C132.539 77.2109 133.336 76.9688 134.227 76.9688C136.945 76.9688 138.305 78.5938 138.305 81.8438V90H136.523V82.1484C136.523 79.7109 135.648 78.4922 133.898 78.4922C132.93 78.4922 132.086 78.8906 131.367 79.6875C130.648 80.4844 130.289 81.4297 130.289 82.5234V90H128.508ZM142.875 86.7656C142.875 87.3594 143.125 87.8672 143.625 88.2891C144.125 88.6953 144.812 88.8984 145.688 88.8984C146.797 88.8984 147.742 88.5391 148.523 87.8203C149.32 87.1016 149.719 86.1875 149.719 85.0781V83.3203C149.031 83.4922 147.938 83.6953 146.438 83.9297C145.219 84.1484 144.32 84.4844 143.742 84.9375C143.164 85.3906 142.875 86 142.875 86.7656ZM141.047 86.9062C141.047 84.5625 142.859 83.1094 146.484 82.5469C148.109 82.2812 149.188 82.0625 149.719 81.8906V81.1641C149.719 80.3828 149.438 79.7344 148.875 79.2188C148.312 78.7031 147.516 78.4453 146.484 78.4453C145.734 78.4453 145.008 78.625 144.305 78.9844C143.617 79.3281 143.031 79.7969 142.547 80.3906L141.375 79.4062C142 78.6875 142.75 78.1016 143.625 77.6484C144.516 77.1953 145.453 76.9688 146.438 76.9688C149.812 76.9688 151.5 78.6172 151.5 81.9141V90H149.766V87.9375C149.516 88.6094 149 89.1953 148.219 89.6953C147.438 90.1797 146.516 90.4219 145.453 90.4219C144.062 90.4219 142.977 90.0938 142.195 89.4375C141.43 88.7812 141.047 87.9375 141.047 86.9062ZM154.992 85.5703V77.3906H156.82V85.1953C156.82 87.6641 157.727 88.8984 159.539 88.8984C160.648 88.8984 161.492 88.4688 162.07 87.6094C162.664 86.75 162.961 85.7344 162.961 84.5625V77.3906H164.742V90H163.008V87.9609C162.883 88.4766 162.492 89.0156 161.836 89.5781C161.195 90.1406 160.289 90.4219 159.117 90.4219C157.914 90.4219 156.922 90.0156 156.141 89.2031C155.375 88.375 154.992 87.1641 154.992 85.5703ZM167.484 87.5156L168.844 86.7188C169.766 88.1719 171.016 88.8984 172.594 88.8984C173.547 88.8984 174.305 88.7266 174.867 88.3828C175.445 88.0391 175.734 87.5391 175.734 86.8828C175.734 86.6016 175.664 86.3516 175.523 86.1328C175.383 85.8984 175.227 85.7109 175.055 85.5703C174.898 85.4141 174.609 85.25 174.188 85.0781C173.766 84.8906 173.414 84.7578 173.133 84.6797C172.867 84.5859 172.422 84.4375 171.797 84.2344C171.25 84.0625 170.781 83.8906 170.391 83.7188C170 83.5469 169.594 83.3203 169.172 83.0391C168.75 82.7422 168.422 82.3828 168.188 81.9609C167.969 81.5391 167.859 81.0547 167.859 80.5078C167.859 79.4609 168.281 78.6094 169.125 77.9531C169.969 77.2969 171.125 76.9688 172.594 76.9688C173.625 76.9688 174.57 77.2422 175.43 77.7891C176.289 78.3359 176.906 78.9766 177.281 79.7109L176.062 80.5078C175.734 79.9609 175.258 79.4922 174.633 79.1016C174.023 78.6953 173.344 78.4922 172.594 78.4922C171.641 78.4922 170.914 78.6797 170.414 79.0547C169.93 79.4141 169.688 79.9062 169.688 80.5312C169.688 80.8906 169.781 81.2188 169.969 81.5156C170.156 81.7969 170.438 82.0469 170.812 82.2656C171.203 82.4688 171.555 82.6328 171.867 82.7578C172.195 82.8672 172.625 83.0078 173.156 83.1797C173.609 83.3203 174.008 83.4531 174.352 83.5781C174.711 83.7031 175.102 83.875 175.523 84.0938C175.945 84.3125 176.297 84.5469 176.578 84.7969C176.859 85.0312 177.094 85.3359 177.281 85.7109C177.469 86.0703 177.562 86.4609 177.562 86.8828C177.562 87.8828 177.117 88.7266 176.227 89.4141C175.352 90.0859 174.141 90.4219 172.594 90.4219C171.469 90.4219 170.469 90.1719 169.594 89.6719C168.719 89.1562 168.016 88.4375 167.484 87.5156ZM186.305 74.5547V72.1875H188.602V74.5547H186.305ZM186.586 90V77.3906H188.367V90H186.586ZM191.531 87.5156L192.891 86.7188C193.812 88.1719 195.062 88.8984 196.641 88.8984C197.594 88.8984 198.352 88.7266 198.914 88.3828C199.492 88.0391 199.781 87.5391 199.781 86.8828C199.781 86.6016 199.711 86.3516 199.57 86.1328C199.43 85.8984 199.273 85.7109 199.102 85.5703C198.945 85.4141 198.656 85.25 198.234 85.0781C197.812 84.8906 197.461 84.7578 197.18 84.6797C196.914 84.5859 196.469 84.4375 195.844 84.2344C195.297 84.0625 194.828 83.8906 194.438 83.7188C194.047 83.5469 193.641 83.3203 193.219 83.0391C192.797 82.7422 192.469 82.3828 192.234 81.9609C192.016 81.5391 191.906 81.0547 191.906 80.5078C191.906 79.4609 192.328 78.6094 193.172 77.9531C194.016 77.2969 195.172 76.9688 196.641 76.9688C197.672 76.9688 198.617 77.2422 199.477 77.7891C200.336 78.3359 200.953 78.9766 201.328 79.7109L200.109 80.5078C199.781 79.9609 199.305 79.4922 198.68 79.1016C198.07 78.6953 197.391 78.4922 196.641 78.4922C195.688 78.4922 194.961 78.6797 194.461 79.0547C193.977 79.4141 193.734 79.9062 193.734 80.5312C193.734 80.8906 193.828 81.2188 194.016 81.5156C194.203 81.7969 194.484 82.0469 194.859 82.2656C195.25 82.4688 195.602 82.6328 195.914 82.7578C196.242 82.8672 196.672 83.0078 197.203 83.1797C197.656 83.3203 198.055 83.4531 198.398 83.5781C198.758 83.7031 199.148 83.875 199.57 84.0938C199.992 84.3125 200.344 84.5469 200.625 84.7969C200.906 85.0312 201.141 85.3359 201.328 85.7109C201.516 86.0703 201.609 86.4609 201.609 86.8828C201.609 87.8828 201.164 88.7266 200.273 89.4141C199.398 90.0859 198.188 90.4219 196.641 90.4219C195.516 90.4219 194.516 90.1719 193.641 89.6719C192.766 89.1562 192.062 88.4375 191.531 87.5156ZM211.148 83.6953C211.148 85.2891 211.516 86.5547 212.25 87.4922C212.984 88.4297 213.898 88.8984 214.992 88.8984C216.07 88.8984 216.977 88.4297 217.711 87.4922C218.461 86.5547 218.836 85.2891 218.836 83.6953C218.836 82.0703 218.461 80.7969 217.711 79.875C216.961 78.9531 216.055 78.4922 214.992 78.4922C213.914 78.4922 213 78.9531 212.25 79.875C211.516 80.7969 211.148 82.0703 211.148 83.6953ZM209.32 83.6953C209.32 81.7734 209.812 80.1719 210.797 78.8906C211.797 77.6094 213.195 76.9688 214.992 76.9688C216.773 76.9688 218.164 77.6094 219.164 78.8906C220.164 80.1719 220.664 81.7734 220.664 83.6953C220.664 84.5078 220.555 85.2969 220.336 86.0625C220.133 86.8281 219.812 87.5469 219.375 88.2188C218.953 88.875 218.359 89.4062 217.594 89.8125C216.844 90.2188 215.977 90.4219 214.992 90.4219C214.023 90.4219 213.156 90.2266 212.391 89.8359C211.641 89.4297 211.047 88.8984 210.609 88.2422C210.188 87.5703 209.867 86.8516 209.648 86.0859C209.43 85.3203 209.32 84.5234 209.32 83.6953ZM223.57 90V77.3906H225.352V79.5469H225.375C225.562 78.9219 226.023 78.3359 226.758 77.7891C227.492 77.2422 228.367 76.9688 229.383 76.9688C230.555 76.9688 231.516 77.3359 232.266 78.0703C233.031 78.8047 233.414 80.0625 233.414 81.8438V90H231.586V82.1484C231.586 79.7109 230.711 78.4922 228.961 78.4922C227.992 78.4922 227.156 78.8828 226.453 79.6641C225.75 80.4453 225.398 81.3828 225.398 82.4766V90H223.57ZM241.57 78.9141V77.3906H243.727V75.4453C243.727 74.2109 244.039 73.2969 244.664 72.7031C245.289 72.0938 246.148 71.7891 247.242 71.7891H248.883V73.2891H247.477C246.195 73.2891 245.555 74.0703 245.555 75.6328V77.3906H248.555V78.9141H245.555V90H243.727V78.9141H241.57ZM251.086 74.5547V72.1875H253.383V74.5547H251.086ZM251.367 90V77.3906H253.148V90H251.367ZM257.344 90V77.3906H259.078V79.2188C259.328 78.6562 259.742 78.1406 260.32 77.6719C260.898 77.2031 261.641 76.9688 262.547 76.9688C263.219 76.9688 263.812 77.0781 264.328 77.2969V78.9375C263.766 78.7188 263.172 78.6094 262.547 78.6094C261.484 78.6094 260.656 79.0078 260.062 79.8047C259.469 80.6016 259.172 81.6562 259.172 82.9688V90H257.344ZM265.289 83.6016C265.289 81.6328 265.82 80.0391 266.883 78.8203C267.945 77.5859 269.32 76.9688 271.008 76.9688C272.727 76.9688 274.078 77.5703 275.062 78.7734C276.047 79.9609 276.539 81.4844 276.539 83.3438C276.539 83.5625 276.523 83.875 276.492 84.2812H267.117C267.117 85.5469 267.469 86.6328 268.172 87.5391C268.875 88.4453 269.852 88.8984 271.102 88.8984C271.914 88.8984 272.633 88.7109 273.258 88.3359C273.883 87.9453 274.367 87.4297 274.711 86.7891L276.258 87.2578C275.867 88.1797 275.234 88.9375 274.359 89.5312C273.484 90.125 272.398 90.4219 271.102 90.4219C269.352 90.4219 267.945 89.7969 266.883 88.5469C265.82 87.2969 265.289 85.6484 265.289 83.6016ZM267.164 82.8984H274.711C274.711 81.6641 274.375 80.625 273.703 79.7812C273.031 78.9219 272.133 78.4922 271.008 78.4922C269.867 78.4922 268.945 78.9297 268.242 79.8047C267.555 80.6797 267.195 81.7109 267.164 82.8984ZM279.75 90.2344V87.5391H282.703V90.2344H279.75ZM282.07 85.125H280.406L280.195 72.4219H282.281L282.07 85.125Z" fill="black"/>
<path d="M44.0607 105.939C43.4749 105.354 42.5251 105.354 41.9393 105.939L32.3934 115.485C31.8076 116.071 31.8076 117.021 32.3934 117.607C32.9792 118.192 33.9289 118.192 34.5147 117.607L43 109.121L51.4853 117.607C52.0711 118.192 53.0208 118.192 53.6066 117.607C54.1924 117.021 54.1924 116.071 53.6066 115.485L44.0607 105.939ZM44.5 132V107H41.5V132H44.5Z" fill="#FF3D00"/>
<path d="M331.061 105.939C330.475 105.354 329.525 105.354 328.939 105.939L319.393 115.485C318.808 116.071 318.808 117.021 319.393 117.607C319.979 118.192 320.929 118.192 321.515 117.607L330 109.121L338.485 117.607C339.071 118.192 340.021 118.192 340.607 117.607C341.192 117.021 341.192 116.071 340.607 115.485L331.061 105.939ZM331.5 132V107H328.5V132H331.5Z" fill="#FF3D00"/>
<path d="M22.3047 153.061C22.2109 153.436 22.0352 153.67 21.7773 153.764C21.5195 153.846 21.2617 153.834 21.0039 153.729C20.7578 153.623 20.5469 153.441 20.3711 153.184C20.207 152.926 20.1602 152.645 20.2305 152.34C20.4062 151.543 20.6582 150.664 20.9863 149.703C21.3262 148.73 21.6602 147.764 21.9883 146.803C21.8125 146.533 21.6719 146.264 21.5664 145.994C21.4609 145.713 21.4082 145.42 21.4082 145.115C21.4082 144.811 21.5195 144.494 21.7422 144.166C21.9766 143.826 22.252 143.516 22.5684 143.234C22.8965 142.953 23.2305 142.725 23.5703 142.549C23.9219 142.361 24.2207 142.268 24.4668 142.268C24.9004 142.268 25.2227 142.414 25.4336 142.707C25.6562 143 25.7676 143.393 25.7676 143.885C25.7676 144.154 25.7207 144.424 25.627 144.693C25.5449 144.951 25.4512 145.197 25.3457 145.432C25.2402 145.654 25.1406 145.848 25.0469 146.012C24.9648 146.176 24.918 146.281 24.9062 146.328C25.3281 147.078 25.7676 147.74 26.2246 148.314C26.6816 148.889 27.0977 149.457 27.4727 150.02C27.8594 150.582 28.1758 151.18 28.4219 151.812C28.668 152.445 28.791 153.189 28.791 154.045C28.791 154.256 28.7734 154.473 28.7383 154.695C28.7148 154.918 28.6738 155.129 28.6152 155.328C29.0371 155.246 29.4062 155.117 29.7227 154.941C30.0508 154.766 30.332 154.566 30.5664 154.344C30.8125 154.109 31.0117 153.857 31.1641 153.588C31.3281 153.318 31.4629 153.037 31.5684 152.744C31.6973 152.404 31.8262 152.158 31.9551 152.006C32.084 151.854 32.2305 151.777 32.3945 151.777C32.5469 151.777 32.6992 151.83 32.8516 151.936C33.0156 152.029 33.1562 152.152 33.2734 152.305C33.4023 152.457 33.502 152.615 33.5723 152.779C33.6543 152.943 33.6953 153.09 33.6953 153.219C33.6953 153.395 33.6484 153.605 33.5547 153.852C33.4609 154.098 33.332 154.35 33.168 154.607C33.0156 154.865 32.8398 155.117 32.6406 155.363C32.4414 155.598 32.2363 155.803 32.0254 155.979C31.4629 156.436 30.8008 156.822 30.0391 157.139C29.2773 157.443 28.334 157.637 27.209 157.719C26.7754 158.094 26.2598 158.398 25.6621 158.633C25.0762 158.879 24.4141 159.002 23.6758 159.002C23.3008 159.002 22.9141 158.955 22.5156 158.861C22.1289 158.768 21.7539 158.645 21.3906 158.492C21.0391 158.352 20.7168 158.193 20.4238 158.018C20.1309 157.842 19.8965 157.666 19.7207 157.49C19.2754 157.068 18.9883 156.646 18.8594 156.225C18.7305 155.791 18.7012 155.404 18.7715 155.064C18.8301 154.725 18.9531 154.449 19.1406 154.238C19.3281 154.016 19.5215 153.904 19.7207 153.904C19.8379 153.904 20.0195 153.957 20.2656 154.062C20.5234 154.156 20.8164 154.285 21.1445 154.449C21.4727 154.602 21.8301 154.766 22.2168 154.941C22.6035 155.117 22.9902 155.287 23.377 155.451C23.7637 155.604 24.1387 155.732 24.502 155.838C24.877 155.932 25.2168 155.979 25.5215 155.979C25.7207 155.744 25.9023 155.434 26.0664 155.047C26.2305 154.66 26.3125 154.238 26.3125 153.781C26.3125 153.219 26.2363 152.697 26.084 152.217C25.9316 151.736 25.7324 151.291 25.4863 150.881C25.2402 150.471 24.959 150.09 24.6426 149.738C24.3379 149.375 24.0273 149.035 23.7109 148.719C23.4297 149.41 23.1836 150.096 22.9727 150.775C22.7617 151.443 22.5391 152.205 22.3047 153.061ZM28.5098 141.072C28.7793 141.096 29.0781 141.113 29.4062 141.125C29.6875 141.148 30.0273 141.166 30.4258 141.178C30.8242 141.178 31.2695 141.184 31.7617 141.195V135.096C31.7617 134.838 31.7383 134.633 31.6914 134.48C31.6562 134.328 31.6152 134.211 31.5684 134.129C31.5332 134.035 31.4922 133.965 31.4453 133.918C31.4102 133.859 31.3926 133.801 31.3926 133.742C31.3926 133.672 31.4277 133.613 31.498 133.566C31.5684 133.52 31.6621 133.479 31.7793 133.443C31.8965 133.408 32.0195 133.385 32.1484 133.373C32.2891 133.35 32.4238 133.338 32.5527 133.338C33.1504 133.338 33.6191 133.496 33.959 133.812C34.3105 134.117 34.4863 134.486 34.4863 134.92V141.23C35.5879 141.23 36.748 141.219 37.9668 141.195C39.1973 141.172 40.4277 141.131 41.6582 141.072C41.8223 140.896 41.9512 140.832 42.0449 140.879C42.1504 140.926 42.2148 141.037 42.2383 141.213C42.2734 141.389 42.2793 141.605 42.2559 141.863C42.2324 142.121 42.1855 142.373 42.1152 142.619C42.0449 142.854 41.9453 143.059 41.8164 143.234C41.6992 143.41 41.5645 143.498 41.4121 143.498C39.9707 143.533 38.6934 143.557 37.5801 143.568C36.4785 143.568 35.4473 143.568 34.4863 143.568V154.977C34.4863 155.562 34.5977 155.984 34.8203 156.242C35.043 156.5 35.3418 156.629 35.7168 156.629C36.0801 156.629 36.3906 156.5 36.6484 156.242C36.918 155.984 37.1465 155.662 37.334 155.275C37.5332 154.889 37.6914 154.473 37.8086 154.027C37.9375 153.57 38.043 153.143 38.125 152.744C38.1953 152.369 38.3125 152.1 38.4766 151.936C38.6406 151.76 38.8105 151.672 38.9863 151.672C39.127 151.672 39.2734 151.719 39.4258 151.812C39.5781 151.895 39.7129 152.006 39.8301 152.146C39.959 152.287 40.0586 152.445 40.1289 152.621C40.2109 152.797 40.252 152.973 40.252 153.148C40.252 153.172 40.252 153.201 40.252 153.236C40.252 153.271 40.2402 153.324 40.2168 153.395C40.0645 153.992 39.8535 154.619 39.584 155.275C39.3262 155.932 38.9863 156.535 38.5645 157.086C38.1543 157.637 37.6621 158.094 37.0879 158.457C36.5137 158.82 35.8398 159.002 35.0664 159.002C34.5859 159.002 34.1406 158.926 33.7305 158.773C33.332 158.633 32.9863 158.398 32.6934 158.07C32.4004 157.754 32.1719 157.344 32.0078 156.84C31.8438 156.336 31.7617 155.727 31.7617 155.012V143.568C31.3633 143.568 31.0059 143.568 30.6895 143.568C30.3848 143.557 30.127 143.545 29.916 143.533C29.6699 143.521 29.4531 143.51 29.2656 143.498C28.9844 143.498 28.7383 143.375 28.5273 143.129C28.3047 142.871 28.1523 142.59 28.0703 142.285C27.9766 141.98 27.9648 141.705 28.0352 141.459C28.0938 141.201 28.252 141.072 28.5098 141.072ZM48.4785 156.629C48.8418 156.629 49.1523 156.5 49.4102 156.242C49.6797 155.984 49.9082 155.662 50.0957 155.275C50.2949 154.889 50.4531 154.473 50.5703 154.027C50.6992 153.57 50.8047 153.143 50.8867 152.744C50.9688 152.369 51.0859 152.1 51.2383 151.936C51.4023 151.76 51.5781 151.672 51.7656 151.672C51.9062 151.672 52.0469 151.719 52.1875 151.812C52.3398 151.895 52.4746 152.006 52.5918 152.146C52.7207 152.287 52.8203 152.445 52.8906 152.621C52.9727 152.797 53.0137 152.973 53.0137 153.148C53.0137 153.172 53.0137 153.201 53.0137 153.236C53.0137 153.271 53.002 153.324 52.9785 153.395C52.8262 153.992 52.6152 154.619 52.3457 155.275C52.0879 155.932 51.7539 156.535 51.3438 157.086C50.9336 157.637 50.4355 158.094 49.8496 158.457C49.2754 158.82 48.6016 159.002 47.8281 159.002C47.1953 159.002 46.6445 158.867 46.1758 158.598C45.707 158.328 45.3379 157.971 45.0684 157.525C44.7051 157.936 44.2656 158.281 43.75 158.562C43.2461 158.855 42.6543 159.002 41.9746 159.002C41.2715 159.002 40.6504 158.861 40.1113 158.58C39.584 158.299 39.1387 157.918 38.7754 157.438C38.4121 156.945 38.1367 156.371 37.9492 155.715C37.7734 155.047 37.6855 154.332 37.6855 153.57C37.6855 152.07 37.9258 150.723 38.4062 149.527C38.8867 148.332 39.5254 147.318 40.3223 146.486C41.1191 145.643 42.0273 144.998 43.0469 144.553C44.0781 144.107 45.1445 143.885 46.2461 143.885C46.7383 143.885 47.1367 144.02 47.4414 144.289C47.7461 144.559 47.8984 144.928 47.8984 145.396C47.8984 145.701 47.8633 145.918 47.793 146.047C47.7344 146.164 47.6172 146.223 47.4414 146.223C47.2773 146.223 47.1074 146.211 46.9316 146.188C46.7559 146.164 46.5742 146.152 46.3867 146.152C45.707 146.152 45.0156 146.305 44.3125 146.609C43.6094 146.902 42.9707 147.359 42.3965 147.98C41.834 148.59 41.3711 149.369 41.0078 150.318C40.6445 151.256 40.4629 152.375 40.4629 153.676C40.4629 154.625 40.6445 155.357 41.0078 155.873C41.3711 156.377 41.8691 156.629 42.502 156.629C42.9941 156.629 43.4043 156.447 43.7324 156.084C44.0605 155.709 44.3242 155.27 44.5234 154.766V149.211C44.5234 149.035 44.5117 148.889 44.4883 148.771C44.4766 148.654 44.459 148.555 44.4355 148.473C44.4238 148.391 44.4121 148.32 44.4004 148.262C44.3887 148.191 44.3828 148.127 44.3828 148.068C44.3828 147.881 44.4707 147.734 44.6465 147.629C44.834 147.512 45.0566 147.453 45.3145 147.453C45.9121 147.453 46.3867 147.611 46.7383 147.928C47.0898 148.232 47.2656 148.602 47.2656 149.035V154.977C47.2656 155.176 47.2891 155.375 47.3359 155.574C47.3828 155.762 47.4531 155.938 47.5469 156.102C47.6406 156.254 47.7637 156.383 47.916 156.488C48.0801 156.582 48.2676 156.629 48.4785 156.629ZM58.9023 159.002C58.4805 159.002 58.0469 158.938 57.6016 158.809C57.168 158.68 56.7695 158.457 56.4062 158.141C56.0547 157.824 55.7617 157.408 55.5273 156.893C55.3047 156.365 55.1934 155.703 55.1934 154.906C55.1934 153.746 55.3457 152.521 55.6504 151.232C55.9668 149.932 56.418 148.502 57.0039 146.943H54.2617H53.8574C53.8457 147.295 53.8223 147.74 53.7871 148.279C53.7637 148.818 53.7168 149.393 53.6465 150.002C53.5762 150.611 53.4824 151.227 53.3652 151.848C53.2598 152.469 53.125 153.043 52.9609 153.57C52.8438 153.945 52.6562 154.162 52.3984 154.221C52.1523 154.279 51.9062 154.238 51.6602 154.098C51.4141 153.945 51.2148 153.729 51.0625 153.447C50.9102 153.166 50.875 152.873 50.957 152.568C51.0508 152.205 51.1328 151.766 51.2031 151.25C51.2734 150.723 51.3262 150.172 51.3613 149.598C51.4082 149.012 51.4434 148.432 51.4668 147.857C51.4902 147.271 51.5078 146.75 51.5195 146.293C51.0742 146.047 50.7051 145.736 50.4121 145.361C50.1191 144.975 49.9727 144.518 49.9727 143.99C49.9727 143.744 50.0195 143.521 50.1133 143.322C50.2188 143.111 50.3535 142.936 50.5176 142.795C50.6816 142.643 50.875 142.531 51.0977 142.461C51.3203 142.379 51.5488 142.338 51.7832 142.338C51.9941 142.338 52.2109 142.367 52.4336 142.426C52.668 142.484 52.8848 142.59 53.084 142.742C53.2949 142.895 53.4824 143.094 53.6465 143.34C53.8105 143.586 53.9453 143.891 54.0508 144.254C54.3438 144.289 54.5898 144.318 54.7891 144.342C55 144.354 55.1758 144.365 55.3164 144.377C55.457 144.389 55.5742 144.395 55.668 144.395C55.7617 144.395 55.8555 144.395 55.9492 144.395H57.8301C57.9355 144.395 58.0879 144.459 58.2871 144.588C58.498 144.717 58.7031 144.887 58.9023 145.098C59.1016 145.297 59.2656 145.514 59.3945 145.748C59.5352 145.982 59.5879 146.205 59.5527 146.416C59.5527 146.486 59.5117 146.656 59.4297 146.926C59.3477 147.195 59.248 147.535 59.1309 147.945C59.0137 148.355 58.8848 148.83 58.7441 149.369C58.6035 149.896 58.4746 150.453 58.3574 151.039C58.2402 151.625 58.1406 152.234 58.0586 152.867C57.9766 153.488 57.9355 154.098 57.9355 154.695C57.9355 154.941 57.9648 155.182 58.0234 155.416C58.082 155.65 58.1699 155.861 58.2871 156.049C58.4043 156.225 58.5508 156.365 58.7266 156.471C58.9141 156.576 59.1309 156.629 59.377 156.629C59.7871 156.629 60.1387 156.5 60.4316 156.242C60.7246 155.984 60.9707 155.662 61.1699 155.275C61.3691 154.889 61.5273 154.473 61.6445 154.027C61.7734 153.57 61.8789 153.143 61.9609 152.744C62.0312 152.369 62.1484 152.1 62.3125 151.936C62.4766 151.76 62.6465 151.672 62.8223 151.672C62.9629 151.672 63.1094 151.719 63.2617 151.812C63.4141 151.895 63.5488 152.006 63.666 152.146C63.7949 152.287 63.8945 152.445 63.9648 152.621C64.0469 152.797 64.0879 152.973 64.0879 153.148C64.0879 153.207 64.082 153.254 64.0703 153.289C64.0586 153.324 64.0527 153.359 64.0527 153.395C63.8887 153.992 63.6719 154.619 63.4023 155.275C63.1445 155.932 62.8105 156.535 62.4004 157.086C61.9902 157.637 61.498 158.094 60.9238 158.457C60.3496 158.82 59.6758 159.002 58.9023 159.002ZM58.8848 141.072C59.1543 141.096 59.4531 141.113 59.7812 141.125C60.0625 141.148 60.4023 141.166 60.8008 141.178C61.1992 141.178 61.6445 141.184 62.1367 141.195V135.096C62.1367 134.838 62.1133 134.633 62.0664 134.48C62.0312 134.328 61.9902 134.211 61.9434 134.129C61.9082 134.035 61.8672 133.965 61.8203 133.918C61.7852 133.859 61.7676 133.801 61.7676 133.742C61.7676 133.672 61.8027 133.613 61.873 133.566C61.9434 133.52 62.0371 133.479 62.1543 133.443C62.2715 133.408 62.3945 133.385 62.5234 133.373C62.6641 133.35 62.7988 133.338 62.9277 133.338C63.5254 133.338 63.9941 133.496 64.334 133.812C64.6855 134.117 64.8613 134.486 64.8613 134.92V141.23C65.9629 141.23 67.123 141.219 68.3418 141.195C69.5723 141.172 70.8027 141.131 72.0332 141.072C72.1973 140.896 72.3262 140.832 72.4199 140.879C72.5254 140.926 72.5898 141.037 72.6133 141.213C72.6484 141.389 72.6543 141.605 72.6309 141.863C72.6074 142.121 72.5605 142.373 72.4902 142.619C72.4199 142.854 72.3203 143.059 72.1914 143.234C72.0742 143.41 71.9395 143.498 71.7871 143.498C70.3457 143.533 69.0684 143.557 67.9551 143.568C66.8535 143.568 65.8223 143.568 64.8613 143.568V154.977C64.8613 155.562 64.9727 155.984 65.1953 156.242C65.418 156.5 65.7168 156.629 66.0918 156.629C66.4551 156.629 66.7656 156.5 67.0234 156.242C67.293 155.984 67.5215 155.662 67.709 155.275C67.9082 154.889 68.0664 154.473 68.1836 154.027C68.3125 153.57 68.418 153.143 68.5 152.744C68.5703 152.369 68.6875 152.1 68.8516 151.936C69.0156 151.76 69.1855 151.672 69.3613 151.672C69.502 151.672 69.6484 151.719 69.8008 151.812C69.9531 151.895 70.0879 152.006 70.2051 152.146C70.334 152.287 70.4336 152.445 70.5039 152.621C70.5859 152.797 70.627 152.973 70.627 153.148C70.627 153.172 70.627 153.201 70.627 153.236C70.627 153.271 70.6152 153.324 70.5918 153.395C70.4395 153.992 70.2285 154.619 69.959 155.275C69.7012 155.932 69.3613 156.535 68.9395 157.086C68.5293 157.637 68.0371 158.094 67.4629 158.457C66.8887 158.82 66.2148 159.002 65.4414 159.002C64.9609 159.002 64.5156 158.926 64.1055 158.773C63.707 158.633 63.3613 158.398 63.0684 158.07C62.7754 157.754 62.5469 157.344 62.3828 156.84C62.2188 156.336 62.1367 155.727 62.1367 155.012V143.568C61.7383 143.568 61.3809 143.568 61.0645 143.568C60.7598 143.557 60.502 143.545 60.291 143.533C60.0449 143.521 59.8281 143.51 59.6406 143.498C59.3594 143.498 59.1133 143.375 58.9023 143.129C58.6797 142.871 58.5273 142.59 58.4453 142.285C58.3516 141.98 58.3398 141.705 58.4102 141.459C58.4688 141.201 58.627 141.072 58.8848 141.072Z" fill="black"/>
<path d="M320.545 147.523C320.545 148.191 320.428 148.877 320.193 149.58C319.971 150.283 319.631 150.951 319.174 151.584C318.729 152.205 318.172 152.768 317.504 153.271C316.848 153.764 316.086 154.139 315.219 154.396C315.336 154.701 315.488 154.994 315.676 155.275C315.875 155.545 316.109 155.779 316.379 155.979C316.648 156.178 316.959 156.336 317.311 156.453C317.674 156.57 318.09 156.629 318.559 156.629C319.262 156.629 319.865 156.5 320.369 156.242C320.873 155.973 321.295 155.621 321.635 155.188C321.986 154.754 322.268 154.268 322.479 153.729C322.689 153.189 322.848 152.645 322.953 152.094C323.035 151.695 323.199 151.432 323.445 151.303C323.703 151.162 323.961 151.127 324.219 151.197C324.488 151.268 324.717 151.42 324.904 151.654C325.104 151.877 325.186 152.146 325.15 152.463C325.104 152.826 325.021 153.242 324.904 153.711C324.799 154.18 324.635 154.654 324.412 155.135C324.189 155.615 323.902 156.09 323.551 156.559C323.211 157.016 322.789 157.426 322.285 157.789C321.781 158.152 321.189 158.445 320.51 158.668C319.83 158.891 319.051 159.002 318.172 159.002C317.352 159.002 316.555 158.838 315.781 158.51C315.02 158.193 314.34 157.736 313.742 157.139C313.156 156.529 312.682 155.785 312.318 154.906C311.967 154.016 311.791 153.008 311.791 151.883C311.791 150.746 311.949 149.691 312.266 148.719C312.582 147.734 312.998 146.885 313.514 146.17C314.029 145.455 314.615 144.898 315.271 144.5C315.928 144.09 316.602 143.885 317.293 143.885C317.797 143.885 318.248 143.973 318.646 144.148C319.057 144.324 319.402 144.576 319.684 144.904C319.965 145.221 320.176 145.602 320.316 146.047C320.469 146.492 320.545 146.984 320.545 147.523ZM314.744 151.777C314.744 151.883 314.75 151.988 314.762 152.094C314.773 152.199 314.779 152.311 314.779 152.428C315.225 152.217 315.629 151.947 315.992 151.619C316.355 151.291 316.666 150.916 316.924 150.494C317.182 150.072 317.381 149.615 317.521 149.123C317.662 148.619 317.732 148.098 317.732 147.559C317.732 147.16 317.662 146.85 317.521 146.627C317.393 146.404 317.211 146.293 316.977 146.293C316.684 146.293 316.42 146.393 316.186 146.592C315.963 146.791 315.764 147.055 315.588 147.383C315.424 147.699 315.283 148.062 315.166 148.473C315.061 148.871 314.973 149.275 314.902 149.686C314.832 150.096 314.785 150.488 314.762 150.863C314.738 151.227 314.732 151.531 314.744 151.777ZM322.953 146.012C322.953 145.672 322.924 145.426 322.865 145.273C322.818 145.121 322.795 144.98 322.795 144.852C322.795 144.676 322.889 144.535 323.076 144.43C323.264 144.312 323.486 144.254 323.744 144.254C324.342 144.254 324.811 144.412 325.15 144.729C325.502 145.033 325.678 145.402 325.678 145.836V147.453C325.924 146.949 326.188 146.48 326.469 146.047C326.762 145.613 327.072 145.238 327.4 144.922C327.74 144.594 328.098 144.342 328.473 144.166C328.859 143.979 329.275 143.885 329.721 143.885C330.318 143.885 330.811 143.996 331.197 144.219C331.584 144.441 331.889 144.729 332.111 145.08C332.334 145.432 332.486 145.824 332.568 146.258C332.662 146.691 332.709 147.113 332.709 147.523V154.977C332.709 155.059 332.715 155.193 332.727 155.381C332.738 155.557 332.773 155.738 332.832 155.926C332.891 156.113 332.979 156.277 333.096 156.418C333.225 156.559 333.406 156.629 333.641 156.629C334.004 156.629 334.314 156.5 334.572 156.242C334.842 155.984 335.07 155.662 335.258 155.275C335.457 154.889 335.615 154.473 335.732 154.027C335.861 153.57 335.967 153.143 336.049 152.744C336.119 152.369 336.236 152.1 336.4 151.936C336.564 151.76 336.734 151.672 336.91 151.672C337.051 151.672 337.197 151.719 337.35 151.812C337.502 151.895 337.637 152.006 337.754 152.146C337.883 152.287 337.982 152.445 338.053 152.621C338.135 152.797 338.176 152.973 338.176 153.148C338.176 153.172 338.176 153.201 338.176 153.236C338.176 153.271 338.164 153.324 338.141 153.395C337.988 153.992 337.777 154.619 337.508 155.275C337.25 155.932 336.91 156.535 336.488 157.086C336.078 157.637 335.586 158.094 335.012 158.457C334.438 158.82 333.764 159.002 332.99 159.002C332.51 159.002 332.082 158.908 331.707 158.721C331.344 158.545 331.027 158.305 330.758 158C330.5 157.695 330.301 157.338 330.16 156.928C330.031 156.518 329.967 156.084 329.967 155.627V148.314C329.967 148.033 329.961 147.77 329.949 147.523C329.938 147.277 329.902 147.061 329.844 146.873C329.797 146.686 329.721 146.539 329.615 146.434C329.521 146.316 329.387 146.258 329.211 146.258C328.953 146.258 328.637 146.434 328.262 146.785C327.887 147.137 327.518 147.594 327.154 148.156C326.791 148.719 326.469 149.357 326.188 150.072C325.918 150.775 325.748 151.484 325.678 152.199V157.455C325.678 157.631 325.672 157.812 325.66 158C325.66 158.176 325.625 158.334 325.555 158.475C325.496 158.627 325.396 158.75 325.256 158.844C325.127 158.949 324.934 159.002 324.676 159.002C324.5 159.002 324.307 158.979 324.096 158.932C323.896 158.896 323.709 158.82 323.533 158.703C323.369 158.598 323.229 158.439 323.111 158.229C323.006 158.029 322.953 157.76 322.953 157.42V146.012ZM339.986 159.002C339.283 159.002 338.645 158.879 338.07 158.633C337.496 158.387 337.004 158.023 336.594 157.543C336.195 157.051 335.885 156.447 335.662 155.732C335.451 155.006 335.346 154.168 335.346 153.219C335.346 151.836 335.539 150.605 335.926 149.527C336.312 148.438 336.84 147.506 337.508 146.732C338.176 145.947 338.949 145.326 339.828 144.869C340.707 144.4 341.639 144.096 342.623 143.955V135.816C342.623 135.559 342.6 135.354 342.553 135.201C342.518 135.049 342.477 134.932 342.43 134.85C342.395 134.756 342.354 134.686 342.307 134.639C342.271 134.58 342.254 134.521 342.254 134.463C342.254 134.393 342.289 134.334 342.359 134.287C342.43 134.24 342.523 134.199 342.641 134.164C342.758 134.129 342.881 134.105 343.01 134.094C343.15 134.07 343.285 134.059 343.414 134.059C344.012 134.059 344.48 134.217 344.82 134.533C345.172 134.838 345.348 135.207 345.348 135.641V154.977C345.348 155.176 345.371 155.375 345.418 155.574C345.465 155.762 345.535 155.938 345.629 156.102C345.734 156.254 345.863 156.383 346.016 156.488C346.18 156.582 346.367 156.629 346.578 156.629C346.941 156.629 347.252 156.5 347.51 156.242C347.779 155.984 348.008 155.662 348.195 155.275C348.395 154.889 348.553 154.473 348.67 154.027C348.799 153.57 348.904 153.143 348.986 152.744C349.057 152.369 349.174 152.1 349.338 151.936C349.502 151.76 349.672 151.672 349.848 151.672C349.988 151.672 350.135 151.719 350.287 151.812C350.439 151.895 350.574 152.006 350.691 152.146C350.82 152.287 350.92 152.445 350.99 152.621C351.072 152.797 351.113 152.973 351.113 153.148C351.113 153.172 351.113 153.201 351.113 153.236C351.113 153.271 351.102 153.324 351.078 153.395C350.926 153.992 350.715 154.619 350.445 155.275C350.188 155.932 349.848 156.535 349.426 157.086C349.016 157.637 348.523 158.094 347.949 158.457C347.375 158.82 346.701 159.002 345.928 159.002C345.307 159.002 344.762 158.873 344.293 158.615C343.824 158.357 343.455 158.018 343.186 157.596C342.787 158.006 342.324 158.34 341.797 158.598C341.281 158.867 340.678 159.002 339.986 159.002ZM340.531 156.629C341 156.629 341.404 156.494 341.744 156.225C342.096 155.955 342.389 155.621 342.623 155.223V146.328C342.037 146.434 341.469 146.633 340.918 146.926C340.379 147.207 339.898 147.605 339.477 148.121C339.066 148.637 338.738 149.293 338.492 150.09C338.246 150.875 338.123 151.83 338.123 152.955C338.123 153.611 338.188 154.174 338.316 154.643C338.457 155.1 338.633 155.475 338.844 155.768C339.066 156.061 339.324 156.277 339.617 156.418C339.91 156.559 340.215 156.629 340.531 156.629Z" fill="black"/>
<line y1="54" x2="374" y2="54" stroke="#FF3D00" stroke-width="2"/>
<line x1="1.00276" y1="55" x2="1.00276" y2="68" stroke="#FF3D00" stroke-width="2"/>
<line x1="373.003" y1="55" x2="373.003" y2="68" stroke="#FF3D00" stroke-width="2"/>
<path d="M186.5 40L207.718 53.5H165.282L186.5 40Z" fill="#FF3D00"/>
<path d="M156.545 14.5234C156.545 15.1914 156.428 15.877 156.193 16.5801C155.971 17.2832 155.631 17.9512 155.174 18.584C154.729 19.2051 154.172 19.7676 153.504 20.2715C152.848 20.7637 152.086 21.1387 151.219 21.3965C151.336 21.7012 151.488 21.9941 151.676 22.2754C151.875 22.5449 152.109 22.7793 152.379 22.9785C152.648 23.1777 152.959 23.3359 153.311 23.4531C153.674 23.5703 154.09 23.6289 154.559 23.6289C155.262 23.6289 155.865 23.5 156.369 23.2422C156.873 22.9727 157.295 22.6211 157.635 22.1875C157.986 21.7539 158.268 21.2676 158.479 20.7285C158.689 20.1895 158.848 19.6445 158.953 19.0938C159.035 18.6953 159.199 18.4316 159.445 18.3027C159.703 18.1621 159.961 18.127 160.219 18.1973C160.488 18.2676 160.717 18.4199 160.904 18.6543C161.104 18.877 161.186 19.1465 161.15 19.4629C161.104 19.8262 161.021 20.2422 160.904 20.7109C160.799 21.1797 160.635 21.6543 160.412 22.1348C160.189 22.6152 159.902 23.0898 159.551 23.5586C159.211 24.0156 158.789 24.4258 158.285 24.7891C157.781 25.1523 157.189 25.4453 156.51 25.668C155.83 25.8906 155.051 26.002 154.172 26.002C153.352 26.002 152.555 25.8379 151.781 25.5098C151.02 25.1934 150.34 24.7363 149.742 24.1387C149.156 23.5293 148.682 22.7852 148.318 21.9062C147.967 21.0156 147.791 20.0078 147.791 18.8828C147.791 17.7461 147.949 16.6914 148.266 15.7188C148.582 14.7344 148.998 13.8848 149.514 13.1699C150.029 12.4551 150.615 11.8984 151.271 11.5C151.928 11.0898 152.602 10.8848 153.293 10.8848C153.797 10.8848 154.248 10.9727 154.646 11.1484C155.057 11.3242 155.402 11.5762 155.684 11.9043C155.965 12.2207 156.176 12.6016 156.316 13.0469C156.469 13.4922 156.545 13.9844 156.545 14.5234ZM150.744 18.7773C150.744 18.8828 150.75 18.9883 150.762 19.0938C150.773 19.1992 150.779 19.3105 150.779 19.4277C151.225 19.2168 151.629 18.9473 151.992 18.6191C152.355 18.291 152.666 17.916 152.924 17.4941C153.182 17.0723 153.381 16.6152 153.521 16.123C153.662 15.6191 153.732 15.0977 153.732 14.5586C153.732 14.1602 153.662 13.8496 153.521 13.627C153.393 13.4043 153.211 13.293 152.977 13.293C152.684 13.293 152.42 13.3926 152.186 13.5918C151.963 13.791 151.764 14.0547 151.588 14.3828C151.424 14.6992 151.283 15.0625 151.166 15.4727C151.061 15.8711 150.973 16.2754 150.902 16.6855C150.832 17.0957 150.785 17.4883 150.762 17.8633C150.738 18.2266 150.732 18.5312 150.744 18.7773ZM161.678 14.3477C161.807 14.1016 161.93 13.7734 162.047 13.3633C162.176 12.9414 162.293 12.4785 162.398 11.9746C162.516 11.4707 162.621 10.9434 162.715 10.3926C162.809 9.8418 162.891 9.30273 162.961 8.77539C163.031 8.24805 163.084 7.75586 163.119 7.29883C163.166 6.83008 163.189 6.43164 163.189 6.10352C163.189 4.9082 163.102 4.03516 162.926 3.48438C162.75 2.92188 162.516 2.64062 162.223 2.64062C162.129 2.64062 162.047 2.6875 161.977 2.78125C161.906 2.875 161.848 2.99805 161.801 3.15039C161.754 3.29102 161.719 3.44922 161.695 3.625C161.684 3.78906 161.678 3.94141 161.678 4.08203V14.3477ZM166.793 19.7793C166.863 19.4277 166.969 19.1758 167.109 19.0234C167.262 18.8594 167.42 18.7715 167.584 18.7598C167.76 18.7363 167.936 18.7773 168.111 18.8828C168.287 18.9766 168.439 19.1055 168.568 19.2695C168.697 19.4336 168.791 19.6211 168.85 19.832C168.92 20.0312 168.932 20.2305 168.885 20.4297C168.721 20.9102 168.486 21.4727 168.182 22.1172C167.877 22.7617 167.49 23.3711 167.021 23.9453C166.553 24.5195 166.002 25.0059 165.369 25.4043C164.736 25.8027 164.01 26.002 163.189 26.002C162.498 26.002 161.889 25.8848 161.361 25.6504C160.834 25.4277 160.389 25.1113 160.025 24.7012C159.674 24.2793 159.404 23.7812 159.217 23.207C159.041 22.6211 158.953 21.9707 158.953 21.2559V4.87305C158.953 4.20508 159.035 3.58984 159.199 3.02734C159.375 2.45312 159.609 1.9668 159.902 1.56836C160.207 1.1582 160.559 0.841797 160.957 0.619141C161.355 0.384766 161.777 0.267578 162.223 0.267578C162.75 0.267578 163.195 0.367188 163.559 0.566406C163.922 0.753906 164.221 1.00586 164.455 1.32227C164.689 1.63867 164.871 2.00195 165 2.41211C165.141 2.82227 165.24 3.24414 165.299 3.67773C165.357 4.09961 165.393 4.52148 165.404 4.94336C165.416 5.35352 165.422 5.72852 165.422 6.06836C165.422 6.94727 165.34 7.87305 165.176 8.8457C165.012 9.80664 164.801 10.7559 164.543 11.6934C164.297 12.6309 164.021 13.5332 163.717 14.4004C163.424 15.2559 163.137 16.0176 162.855 16.6855C162.586 17.3535 162.34 17.8984 162.117 18.3203C161.906 18.7422 161.76 18.9883 161.678 19.0586V21.1504C161.678 21.877 161.83 22.4746 162.135 22.9434C162.439 23.4004 162.926 23.6289 163.594 23.6289C164.004 23.6289 164.385 23.5059 164.736 23.2598C165.1 23.002 165.416 22.6855 165.686 22.3105C165.967 21.9238 166.201 21.5078 166.389 21.0625C166.576 20.6055 166.711 20.1777 166.793 19.7793ZM175.178 14.5234C175.178 15.1914 175.061 15.877 174.826 16.5801C174.604 17.2832 174.264 17.9512 173.807 18.584C173.361 19.2051 172.805 19.7676 172.137 20.2715C171.48 20.7637 170.719 21.1387 169.852 21.3965C169.969 21.7012 170.121 21.9941 170.309 22.2754C170.508 22.5449 170.742 22.7793 171.012 22.9785C171.281 23.1777 171.592 23.3359 171.943 23.4531C172.307 23.5703 172.723 23.6289 173.191 23.6289C173.895 23.6289 174.498 23.5 175.002 23.2422C175.506 22.9727 175.928 22.6211 176.268 22.1875C176.619 21.7539 176.9 21.2676 177.111 20.7285C177.322 20.1895 177.48 19.6445 177.586 19.0938C177.668 18.6953 177.832 18.4316 178.078 18.3027C178.336 18.1621 178.594 18.127 178.852 18.1973C179.121 18.2676 179.35 18.4199 179.537 18.6543C179.736 18.877 179.818 19.1465 179.783 19.4629C179.736 19.8262 179.654 20.2422 179.537 20.7109C179.432 21.1797 179.268 21.6543 179.045 22.1348C178.822 22.6152 178.535 23.0898 178.184 23.5586C177.844 24.0156 177.422 24.4258 176.918 24.7891C176.414 25.1523 175.822 25.4453 175.143 25.668C174.463 25.8906 173.684 26.002 172.805 26.002C171.984 26.002 171.188 25.8379 170.414 25.5098C169.652 25.1934 168.973 24.7363 168.375 24.1387C167.789 23.5293 167.314 22.7852 166.951 21.9062C166.6 21.0156 166.424 20.0078 166.424 18.8828C166.424 17.7461 166.582 16.6914 166.898 15.7188C167.215 14.7344 167.631 13.8848 168.146 13.1699C168.662 12.4551 169.248 11.8984 169.904 11.5C170.561 11.0898 171.234 10.8848 171.926 10.8848C172.43 10.8848 172.881 10.9727 173.279 11.1484C173.689 11.3242 174.035 11.5762 174.316 11.9043C174.598 12.2207 174.809 12.6016 174.949 13.0469C175.102 13.4922 175.178 13.9844 175.178 14.5234ZM169.377 18.7773C169.377 18.8828 169.383 18.9883 169.395 19.0938C169.406 19.1992 169.412 19.3105 169.412 19.4277C169.857 19.2168 170.262 18.9473 170.625 18.6191C170.988 18.291 171.299 17.916 171.557 17.4941C171.814 17.0723 172.014 16.6152 172.154 16.123C172.295 15.6191 172.365 15.0977 172.365 14.5586C172.365 14.1602 172.295 13.8496 172.154 13.627C172.025 13.4043 171.844 13.293 171.609 13.293C171.316 13.293 171.053 13.3926 170.818 13.5918C170.596 13.791 170.396 14.0547 170.221 14.3828C170.057 14.6992 169.916 15.0625 169.799 15.4727C169.693 15.8711 169.605 16.2754 169.535 16.6855C169.465 17.0957 169.418 17.4883 169.395 17.8633C169.371 18.2266 169.365 18.5312 169.377 18.7773ZM199.066 20.3945C198.902 20.9922 198.686 21.6191 198.416 22.2754C198.158 22.9316 197.824 23.5352 197.414 24.0859C197.004 24.6367 196.512 25.0938 195.938 25.457C195.363 25.8203 194.689 26.002 193.916 26.002C193.436 26.002 193.008 25.9082 192.633 25.7207C192.27 25.5449 191.953 25.3047 191.684 25C191.426 24.6953 191.227 24.3379 191.086 23.9277C190.957 23.5176 190.893 23.084 190.893 22.627V15.3145C190.893 15.0332 190.887 14.7695 190.875 14.5234C190.863 14.2773 190.834 14.0605 190.787 13.873C190.74 13.6855 190.67 13.5391 190.576 13.4336C190.494 13.3164 190.377 13.2578 190.225 13.2578C189.979 13.2578 189.68 13.4336 189.328 13.7852C188.977 14.1367 188.637 14.5938 188.309 15.1562C187.98 15.7188 187.688 16.3574 187.43 17.0723C187.172 17.7754 187.02 18.4844 186.973 19.1992V24.4551C186.973 24.6309 186.967 24.8125 186.955 25C186.955 25.1758 186.92 25.334 186.85 25.4746C186.791 25.627 186.691 25.75 186.551 25.8438C186.422 25.9492 186.229 26.002 185.971 26.002C185.795 26.002 185.602 25.9785 185.391 25.9316C185.191 25.8965 185.004 25.8203 184.828 25.7031C184.664 25.5977 184.523 25.4395 184.406 25.2285C184.301 25.0293 184.248 24.7598 184.248 24.4199V15.3145C184.248 15.0332 184.236 14.7695 184.213 14.5234C184.201 14.2773 184.172 14.0605 184.125 13.873C184.078 13.6855 184.008 13.5391 183.914 13.4336C183.832 13.3164 183.715 13.2578 183.562 13.2578C183.316 13.2578 183.018 13.4336 182.666 13.7852C182.326 14.1367 181.986 14.5938 181.646 15.1562C181.318 15.7188 181.025 16.3574 180.768 17.0723C180.521 17.7754 180.369 18.4844 180.311 19.1992V24.4551C180.311 24.6309 180.305 24.8125 180.293 25C180.293 25.1758 180.258 25.334 180.188 25.4746C180.129 25.627 180.029 25.75 179.889 25.8438C179.76 25.9492 179.566 26.002 179.309 26.002C179.133 26.002 178.939 25.9785 178.729 25.9316C178.529 25.8965 178.342 25.8203 178.166 25.7031C178.002 25.5977 177.861 25.4395 177.744 25.2285C177.639 25.0293 177.586 24.7598 177.586 24.4199V13.0117C177.586 12.6719 177.557 12.4258 177.498 12.2734C177.451 12.1211 177.428 11.9805 177.428 11.8516C177.428 11.6758 177.521 11.5352 177.709 11.4297C177.896 11.3125 178.119 11.2539 178.377 11.2539C178.975 11.2539 179.443 11.4121 179.783 11.7285C180.135 12.0332 180.311 12.4023 180.311 12.8359V14.3477C180.545 13.8555 180.797 13.3984 181.066 12.9766C181.348 12.5547 181.646 12.1914 181.963 11.8867C182.279 11.5703 182.613 11.3242 182.965 11.1484C183.328 10.9727 183.715 10.8848 184.125 10.8848C184.664 10.8848 185.109 10.9844 185.461 11.1836C185.824 11.3828 186.111 11.6465 186.322 11.9746C186.545 12.3027 186.703 12.6719 186.797 13.082C186.891 13.4805 186.949 13.8789 186.973 14.2773C187.195 13.7969 187.441 13.3516 187.711 12.9414C187.98 12.5312 188.273 12.1738 188.59 11.8691C188.906 11.5645 189.24 11.3242 189.592 11.1484C189.955 10.9727 190.342 10.8848 190.752 10.8848C191.338 10.8848 191.818 10.9961 192.193 11.2188C192.568 11.4414 192.861 11.7285 193.072 12.0801C193.283 12.4316 193.43 12.8242 193.512 13.2578C193.594 13.6914 193.635 14.1133 193.635 14.5234V21.9766C193.635 22.0586 193.641 22.1934 193.652 22.3809C193.664 22.5566 193.699 22.7383 193.758 22.9258C193.816 23.1133 193.904 23.2773 194.021 23.418C194.15 23.5586 194.332 23.6289 194.566 23.6289C194.93 23.6289 195.24 23.5 195.498 23.2422C195.768 22.9844 195.996 22.6621 196.184 22.2754C196.383 21.8887 196.547 21.4727 196.676 21.0273C196.805 20.5703 196.91 20.1426 196.992 19.7441C197.062 19.3691 197.174 19.0996 197.326 18.9355C197.49 18.7598 197.666 18.6719 197.854 18.6719C197.994 18.6719 198.135 18.7188 198.275 18.8125C198.428 18.8945 198.562 19.0059 198.68 19.1465C198.809 19.2871 198.908 19.4453 198.979 19.6211C199.061 19.7969 199.102 19.9727 199.102 20.1484C199.102 20.1719 199.102 20.2012 199.102 20.2363C199.102 20.2715 199.09 20.3242 199.066 20.3945ZM205.412 14.5234C205.412 15.1914 205.295 15.877 205.061 16.5801C204.838 17.2832 204.498 17.9512 204.041 18.584C203.596 19.2051 203.039 19.7676 202.371 20.2715C201.715 20.7637 200.953 21.1387 200.086 21.3965C200.203 21.7012 200.355 21.9941 200.543 22.2754C200.742 22.5449 200.977 22.7793 201.246 22.9785C201.516 23.1777 201.826 23.3359 202.178 23.4531C202.541 23.5703 202.957 23.6289 203.426 23.6289C204.129 23.6289 204.732 23.5 205.236 23.2422C205.74 22.9727 206.162 22.6211 206.502 22.1875C206.854 21.7539 207.135 21.2676 207.346 20.7285C207.557 20.1895 207.715 19.6445 207.82 19.0938C207.902 18.6953 208.066 18.4316 208.312 18.3027C208.57 18.1621 208.828 18.127 209.086 18.1973C209.355 18.2676 209.584 18.4199 209.771 18.6543C209.971 18.877 210.053 19.1465 210.018 19.4629C209.971 19.8262 209.889 20.2422 209.771 20.7109C209.666 21.1797 209.502 21.6543 209.279 22.1348C209.057 22.6152 208.77 23.0898 208.418 23.5586C208.078 24.0156 207.656 24.4258 207.152 24.7891C206.648 25.1523 206.057 25.4453 205.377 25.668C204.697 25.8906 203.918 26.002 203.039 26.002C202.219 26.002 201.422 25.8379 200.648 25.5098C199.887 25.1934 199.207 24.7363 198.609 24.1387C198.023 23.5293 197.549 22.7852 197.186 21.9062C196.834 21.0156 196.658 20.0078 196.658 18.8828C196.658 17.7461 196.816 16.6914 197.133 15.7188C197.449 14.7344 197.865 13.8848 198.381 13.1699C198.896 12.4551 199.482 11.8984 200.139 11.5C200.795 11.0898 201.469 10.8848 202.16 10.8848C202.664 10.8848 203.115 10.9727 203.514 11.1484C203.924 11.3242 204.27 11.5762 204.551 11.9043C204.832 12.2207 205.043 12.6016 205.184 13.0469C205.336 13.4922 205.412 13.9844 205.412 14.5234ZM199.611 18.7773C199.611 18.8828 199.617 18.9883 199.629 19.0938C199.641 19.1992 199.646 19.3105 199.646 19.4277C200.092 19.2168 200.496 18.9473 200.859 18.6191C201.223 18.291 201.533 17.916 201.791 17.4941C202.049 17.0723 202.248 16.6152 202.389 16.123C202.529 15.6191 202.6 15.0977 202.6 14.5586C202.6 14.1602 202.529 13.8496 202.389 13.627C202.26 13.4043 202.078 13.293 201.844 13.293C201.551 13.293 201.287 13.3926 201.053 13.5918C200.83 13.791 200.631 14.0547 200.455 14.3828C200.291 14.6992 200.15 15.0625 200.033 15.4727C199.928 15.8711 199.84 16.2754 199.77 16.6855C199.699 17.0957 199.652 17.4883 199.629 17.8633C199.605 18.2266 199.6 18.5312 199.611 18.7773ZM207.82 13.0117C207.82 12.6719 207.791 12.4258 207.732 12.2734C207.686 12.1211 207.662 11.9805 207.662 11.8516C207.662 11.6758 207.756 11.5352 207.943 11.4297C208.131 11.3125 208.354 11.2539 208.611 11.2539C209.209 11.2539 209.678 11.4121 210.018 11.7285C210.369 12.0332 210.545 12.4023 210.545 12.8359V14.4531C210.791 13.9492 211.055 13.4805 211.336 13.0469C211.629 12.6133 211.939 12.2383 212.268 11.9219C212.607 11.5938 212.965 11.3418 213.34 11.166C213.727 10.9785 214.143 10.8848 214.588 10.8848C215.186 10.8848 215.678 10.9961 216.064 11.2188C216.451 11.4414 216.756 11.7285 216.979 12.0801C217.201 12.4316 217.354 12.8242 217.436 13.2578C217.529 13.6914 217.576 14.1133 217.576 14.5234V21.9766C217.576 22.0586 217.582 22.1934 217.594 22.3809C217.605 22.5566 217.641 22.7383 217.699 22.9258C217.758 23.1133 217.846 23.2773 217.963 23.418C218.092 23.5586 218.273 23.6289 218.508 23.6289C218.871 23.6289 219.182 23.5 219.439 23.2422C219.709 22.9844 219.938 22.6621 220.125 22.2754C220.324 21.8887 220.482 21.4727 220.6 21.0273C220.729 20.5703 220.834 20.1426 220.916 19.7441C220.986 19.3691 221.104 19.0996 221.268 18.9355C221.432 18.7598 221.602 18.6719 221.777 18.6719C221.918 18.6719 222.064 18.7188 222.217 18.8125C222.369 18.8945 222.504 19.0059 222.621 19.1465C222.75 19.2871 222.85 19.4453 222.92 19.6211C223.002 19.7969 223.043 19.9727 223.043 20.1484C223.043 20.1719 223.043 20.2012 223.043 20.2363C223.043 20.2715 223.031 20.3242 223.008 20.3945C222.855 20.9922 222.645 21.6191 222.375 22.2754C222.117 22.9316 221.777 23.5352 221.355 24.0859C220.945 24.6367 220.453 25.0938 219.879 25.457C219.305 25.8203 218.631 26.002 217.857 26.002C217.377 26.002 216.949 25.9082 216.574 25.7207C216.211 25.5449 215.895 25.3047 215.625 25C215.367 24.6953 215.168 24.3379 215.027 23.9277C214.898 23.5176 214.834 23.084 214.834 22.627V15.3145C214.834 15.0332 214.828 14.7695 214.816 14.5234C214.805 14.2773 214.77 14.0605 214.711 13.873C214.664 13.6855 214.588 13.5391 214.482 13.4336C214.389 13.3164 214.254 13.2578 214.078 13.2578C213.82 13.2578 213.504 13.4336 213.129 13.7852C212.754 14.1367 212.385 14.5938 212.021 15.1562C211.658 15.7188 211.336 16.3574 211.055 17.0723C210.785 17.7754 210.615 18.4844 210.545 19.1992V24.4551C210.545 24.6309 210.539 24.8125 210.527 25C210.527 25.1758 210.492 25.334 210.422 25.4746C210.363 25.627 210.264 25.75 210.123 25.8438C209.994 25.9492 209.801 26.002 209.543 26.002C209.367 26.002 209.174 25.9785 208.963 25.9316C208.764 25.8965 208.576 25.8203 208.4 25.7031C208.236 25.5977 208.096 25.4395 207.979 25.2285C207.873 25.0293 207.82 24.7598 207.82 24.4199V13.0117ZM217.576 8.07227C217.846 8.0957 218.145 8.11328 218.473 8.125C218.754 8.14844 219.094 8.16602 219.492 8.17773C219.891 8.17773 220.336 8.18359 220.828 8.19531V2.0957C220.828 1.83789 220.805 1.63281 220.758 1.48047C220.723 1.32812 220.682 1.21094 220.635 1.12891C220.6 1.03516 220.559 0.964844 220.512 0.917969C220.477 0.859375 220.459 0.800781 220.459 0.742188C220.459 0.671875 220.494 0.613281 220.564 0.566406C220.635 0.519531 220.729 0.478516 220.846 0.443359C220.963 0.408203 221.086 0.384766 221.215 0.373047C221.355 0.349609 221.49 0.337891 221.619 0.337891C222.217 0.337891 222.686 0.496094 223.025 0.8125C223.377 1.11719 223.553 1.48633 223.553 1.91992V8.23047C224.654 8.23047 225.814 8.21875 227.033 8.19531C228.264 8.17188 229.494 8.13086 230.725 8.07227C230.889 7.89648 231.018 7.83203 231.111 7.87891C231.217 7.92578 231.281 8.03711 231.305 8.21289C231.34 8.38867 231.346 8.60547 231.322 8.86328C231.299 9.12109 231.252 9.37305 231.182 9.61914C231.111 9.85352 231.012 10.0586 230.883 10.2344C230.766 10.4102 230.631 10.498 230.479 10.498C229.037 10.5332 227.76 10.5566 226.646 10.5684C225.545 10.5684 224.514 10.5684 223.553 10.5684V21.9766C223.553 22.5625 223.664 22.9844 223.887 23.2422C224.109 23.5 224.408 23.6289 224.783 23.6289C225.146 23.6289 225.457 23.5 225.715 23.2422C225.984 22.9844 226.213 22.6621 226.4 22.2754C226.6 21.8887 226.758 21.4727 226.875 21.0273C227.004 20.5703 227.109 20.1426 227.191 19.7441C227.262 19.3691 227.379 19.0996 227.543 18.9355C227.707 18.7598 227.877 18.6719 228.053 18.6719C228.193 18.6719 228.34 18.7188 228.492 18.8125C228.645 18.8945 228.779 19.0059 228.896 19.1465C229.025 19.2871 229.125 19.4453 229.195 19.6211C229.277 19.7969 229.318 19.9727 229.318 20.1484C229.318 20.1719 229.318 20.2012 229.318 20.2363C229.318 20.2715 229.307 20.3242 229.283 20.3945C229.131 20.9922 228.92 21.6191 228.65 22.2754C228.393 22.9316 228.053 23.5352 227.631 24.0859C227.221 24.6367 226.729 25.0938 226.154 25.457C225.58 25.8203 224.906 26.002 224.133 26.002C223.652 26.002 223.207 25.9258 222.797 25.7734C222.398 25.6328 222.053 25.3984 221.76 25.0703C221.467 24.7539 221.238 24.3438 221.074 23.8398C220.91 23.3359 220.828 22.7266 220.828 22.0117V10.5684C220.43 10.5684 220.072 10.5684 219.756 10.5684C219.451 10.5566 219.193 10.5449 218.982 10.5332C218.736 10.5215 218.52 10.5098 218.332 10.498C218.051 10.498 217.805 10.375 217.594 10.1289C217.371 9.87109 217.219 9.58984 217.137 9.28516C217.043 8.98047 217.031 8.70508 217.102 8.45898C217.16 8.20117 217.318 8.07227 217.576 8.07227Z" fill="black"/>
</svg>
