<svg width="491" height="160" viewBox="0 0 491 160" fill="none" xmlns="http://www.w3.org/2000/svg">
<path d="M0.265625 86.3359V84.6719L10.1562 77.3125L11.1406 78.6719L2.04688 85.5156L11.1406 92.3594L10.1562 93.7188L0.265625 86.3359ZM16.1328 87.6719C16.1328 89.2344 16.4531 90.5 17.0938 91.4688C17.7344 92.4219 18.6172 92.8984 19.7422 92.8984C20.8047 92.8984 21.6875 92.4297 22.3906 91.4922C23.0938 90.5547 23.4453 89.2812 23.4453 87.6719C23.4453 86.1562 23.1094 84.9141 22.4375 83.9453C21.7812 82.9766 20.8828 82.4922 19.7422 82.4922C18.6797 82.4922 17.8125 82.9844 17.1406 83.9688C16.4688 84.9375 16.1328 86.1719 16.1328 87.6719ZM14.3516 99.5078V81.3906H16.0859V83.6641C16.4453 82.8516 16.9609 82.2031 17.6328 81.7188C18.3203 81.2188 19.1016 80.9688 19.9766 80.9688C21.5078 80.9688 22.7734 81.5781 23.7734 82.7969C24.7734 84.0156 25.2734 85.6406 25.2734 87.6719C25.2734 89.8438 24.75 91.5156 23.7031 92.6875C22.6562 93.8438 21.4141 94.4219 19.9766 94.4219C19.0391 94.4219 18.2422 94.1797 17.5859 93.6953C16.9297 93.1953 16.4453 92.5703 16.1328 91.8203V99.5078H14.3516ZM33.0078 91.5156L34.3672 90.7188C35.2891 92.1719 36.5391 92.8984 38.1172 92.8984C39.0703 92.8984 39.8281 92.7266 40.3906 92.3828C40.9688 92.0391 41.2578 91.5391 41.2578 90.8828C41.2578 90.6016 41.1875 90.3516 41.0469 90.1328C40.9062 89.8984 40.75 89.7109 40.5781 89.5703C40.4219 89.4141 40.1328 89.25 39.7109 89.0781C39.2891 88.8906 38.9375 88.7578 38.6562 88.6797C38.3906 88.5859 37.9453 88.4375 37.3203 88.2344C36.7734 88.0625 36.3047 87.8906 35.9141 87.7188C35.5234 87.5469 35.1172 87.3203 34.6953 87.0391C34.2734 86.7422 33.9453 86.3828 33.7109 85.9609C33.4922 85.5391 33.3828 85.0547 33.3828 84.5078C33.3828 83.4609 33.8047 82.6094 34.6484 81.9531C35.4922 81.2969 36.6484 80.9688 38.1172 80.9688C39.1484 80.9688 40.0938 81.2422 40.9531 81.7891C41.8125 82.3359 42.4297 82.9766 42.8047 83.7109L41.5859 84.5078C41.2578 83.9609 40.7812 83.4922 40.1562 83.1016C39.5469 82.6953 38.8672 82.4922 38.1172 82.4922C37.1641 82.4922 36.4375 82.6797 35.9375 83.0547C35.4531 83.4141 35.2109 83.9062 35.2109 84.5312C35.2109 84.8906 35.3047 85.2188 35.4922 85.5156C35.6797 85.7969 35.9609 86.0469 36.3359 86.2656C36.7266 86.4688 37.0781 86.6328 37.3906 86.7578C37.7188 86.8672 38.1484 87.0078 38.6797 87.1797C39.1328 87.3203 39.5312 87.4531 39.875 87.5781C40.2344 87.7031 40.625 87.875 41.0469 88.0938C41.4688 88.3125 41.8203 88.5469 42.1016 88.7969C42.3828 89.0312 42.6172 89.3359 42.8047 89.7109C42.9922 90.0703 43.0859 90.4609 43.0859 90.8828C43.0859 91.8828 42.6406 92.7266 41.75 93.4141C40.875 94.0859 39.6641 94.4219 38.1172 94.4219C36.9922 94.4219 35.9922 94.1719 35.1172 93.6719C34.2422 93.1562 33.5391 92.4375 33.0078 91.5156ZM44.375 82.9141V81.3906H46.5781V77.3594H48.4062V81.3906H51.7344V82.9141H48.4062V90.2969C48.4062 91.0781 48.5547 91.6328 48.8516 91.9609C49.1484 92.2891 49.625 92.4531 50.2812 92.4531H51.7344V94H50.0469C47.7344 94 46.5781 92.8203 46.5781 90.4609V82.9141H44.375ZM52.6484 81.3906H54.7578L57.3594 88.7734C57.75 89.8672 58.1016 90.9297 58.4141 91.9609H58.5078C58.7422 91.1953 59.0859 90.1328 59.5391 88.7734L62.0234 81.3906H64.0859L58.6484 96.1094C58.1797 97.3594 57.6328 98.2344 57.0078 98.7344C56.3984 99.25 55.6484 99.5078 54.7578 99.5078H54.0547V98.0078H54.4766C55.0703 98.0078 55.5703 97.8359 55.9766 97.4922C56.3984 97.1484 56.7734 96.5312 57.1016 95.6406L57.5703 94.1641L52.6484 81.3906ZM66.4062 94V75.7891H68.1875V94H66.4062ZM71.375 87.6016C71.375 85.6328 71.9062 84.0391 72.9688 82.8203C74.0312 81.5859 75.4062 80.9688 77.0938 80.9688C78.8125 80.9688 80.1641 81.5703 81.1484 82.7734C82.1328 83.9609 82.625 85.4844 82.625 87.3438C82.625 87.5625 82.6094 87.875 82.5781 88.2812H73.2031C73.2031 89.5469 73.5547 90.6328 74.2578 91.5391C74.9609 92.4453 75.9375 92.8984 77.1875 92.8984C78 92.8984 78.7188 92.7109 79.3438 92.3359C79.9688 91.9453 80.4531 91.4297 80.7969 90.7891L82.3438 91.2578C81.9531 92.1797 81.3203 92.9375 80.4453 93.5312C79.5703 94.125 78.4844 94.4219 77.1875 94.4219C75.4375 94.4219 74.0312 93.7969 72.9688 92.5469C71.9062 91.2969 71.375 89.6484 71.375 87.6016ZM73.25 86.8984H80.7969C80.7969 85.6641 80.4609 84.625 79.7891 83.7812C79.1172 82.9219 78.2188 82.4922 77.0938 82.4922C75.9531 82.4922 75.0312 82.9297 74.3281 83.8047C73.6406 84.6797 73.2812 85.7109 73.25 86.8984ZM84.7344 88.4219V86.8281H95.7969V88.4219H84.7344ZM84.7344 83.7812V82.1875H95.7969V83.7812H84.7344ZM104.234 80.9453V78.9297C104.234 76.4453 105 74.5625 106.531 73.2812L107.586 74.1719C106.992 74.7344 106.578 75.3281 106.344 75.9531C106.109 76.5625 105.992 77.3281 105.992 78.25H107.375V80.9453H104.234ZM98.8438 80.9453V78.9297C98.8438 76.3203 99.6094 74.375 101.141 73.0938L102.195 73.9844C101.133 74.9688 100.602 76.3906 100.602 78.25H101.984V80.9453H98.8438ZM110.164 87.6953C110.164 85.6953 110.672 84.0781 111.688 82.8438C112.703 81.5938 114.07 80.9688 115.789 80.9688C116.914 80.9688 117.875 81.2969 118.672 81.9531C119.484 82.5938 120.023 83.3594 120.289 84.25L118.742 84.6953C118.508 84.0703 118.125 83.5469 117.594 83.125C117.078 82.7031 116.477 82.4922 115.789 82.4922C114.633 82.4922 113.711 82.9844 113.023 83.9688C112.336 84.9531 111.992 86.1953 111.992 87.6953C111.992 89.2891 112.352 90.5547 113.07 91.4922C113.789 92.4297 114.695 92.8984 115.789 92.8984C116.523 92.8984 117.188 92.6641 117.781 92.1953C118.391 91.7109 118.82 91.1562 119.07 90.5312L120.617 91.0234C120.289 91.9609 119.688 92.7656 118.812 93.4375C117.953 94.0938 116.945 94.4219 115.789 94.4219C114.117 94.4219 112.758 93.8125 111.711 92.5938C110.68 91.375 110.164 89.7422 110.164 87.6953ZM124.039 87.6953C124.039 89.2891 124.406 90.5547 125.141 91.4922C125.875 92.4297 126.789 92.8984 127.883 92.8984C128.961 92.8984 129.867 92.4297 130.602 91.4922C131.352 90.5547 131.727 89.2891 131.727 87.6953C131.727 86.0703 131.352 84.7969 130.602 83.875C129.852 82.9531 128.945 82.4922 127.883 82.4922C126.805 82.4922 125.891 82.9531 125.141 83.875C124.406 84.7969 124.039 86.0703 124.039 87.6953ZM122.211 87.6953C122.211 85.7734 122.703 84.1719 123.688 82.8906C124.688 81.6094 126.086 80.9688 127.883 80.9688C129.664 80.9688 131.055 81.6094 132.055 82.8906C133.055 84.1719 133.555 85.7734 133.555 87.6953C133.555 88.5078 133.445 89.2969 133.227 90.0625C133.023 90.8281 132.703 91.5469 132.266 92.2188C131.844 92.875 131.25 93.4062 130.484 93.8125C129.734 94.2188 128.867 94.4219 127.883 94.4219C126.914 94.4219 126.047 94.2266 125.281 93.8359C124.531 93.4297 123.938 92.8984 123.5 92.2422C123.078 91.5703 122.758 90.8516 122.539 90.0859C122.32 89.3203 122.211 88.5234 122.211 87.6953ZM136.742 94V75.7891H138.523V94H136.742ZM143.539 87.6953C143.539 89.2891 143.906 90.5547 144.641 91.4922C145.375 92.4297 146.289 92.8984 147.383 92.8984C148.461 92.8984 149.367 92.4297 150.102 91.4922C150.852 90.5547 151.227 89.2891 151.227 87.6953C151.227 86.0703 150.852 84.7969 150.102 83.875C149.352 82.9531 148.445 82.4922 147.383 82.4922C146.305 82.4922 145.391 82.9531 144.641 83.875C143.906 84.7969 143.539 86.0703 143.539 87.6953ZM141.711 87.6953C141.711 85.7734 142.203 84.1719 143.188 82.8906C144.188 81.6094 145.586 80.9688 147.383 80.9688C149.164 80.9688 150.555 81.6094 151.555 82.8906C152.555 84.1719 153.055 85.7734 153.055 87.6953C153.055 88.5078 152.945 89.2969 152.727 90.0625C152.523 90.8281 152.203 91.5469 151.766 92.2188C151.344 92.875 150.75 93.4062 149.984 93.8125C149.234 94.2188 148.367 94.4219 147.383 94.4219C146.414 94.4219 145.547 94.2266 144.781 93.8359C144.031 93.4297 143.438 92.8984 143 92.2422C142.578 91.5703 142.258 90.8516 142.039 90.0859C141.82 89.3203 141.711 88.5234 141.711 87.6953ZM155.961 94V81.3906H157.695V83.2188C157.945 82.6562 158.359 82.1406 158.938 81.6719C159.516 81.2031 160.258 80.9688 161.164 80.9688C161.836 80.9688 162.43 81.0781 162.945 81.2969V82.9375C162.383 82.7188 161.789 82.6094 161.164 82.6094C160.102 82.6094 159.273 83.0078 158.68 83.8047C158.086 84.6016 157.789 85.6562 157.789 86.9688V94H155.961ZM165.523 92.0312V89.2422H168.477V92.0312H165.523ZM165.523 82.75V79.9609H168.477V82.75H165.523ZM178.859 94V81.3906H180.594V83.2188C180.844 82.6562 181.258 82.1406 181.836 81.6719C182.414 81.2031 183.156 80.9688 184.062 80.9688C184.734 80.9688 185.328 81.0781 185.844 81.2969V82.9375C185.281 82.7188 184.688 82.6094 184.062 82.6094C183 82.6094 182.172 83.0078 181.578 83.8047C180.984 84.6016 180.688 85.6562 180.688 86.9688V94H178.859ZM186.805 87.6016C186.805 85.6328 187.336 84.0391 188.398 82.8203C189.461 81.5859 190.836 80.9688 192.523 80.9688C194.242 80.9688 195.594 81.5703 196.578 82.7734C197.562 83.9609 198.055 85.4844 198.055 87.3438C198.055 87.5625 198.039 87.875 198.008 88.2812H188.633C188.633 89.5469 188.984 90.6328 189.688 91.5391C190.391 92.4453 191.367 92.8984 192.617 92.8984C193.43 92.8984 194.148 92.7109 194.773 92.3359C195.398 91.9453 195.883 91.4297 196.227 90.7891L197.773 91.2578C197.383 92.1797 196.75 92.9375 195.875 93.5312C195 94.125 193.914 94.4219 192.617 94.4219C190.867 94.4219 189.461 93.7969 188.398 92.5469C187.336 91.2969 186.805 89.6484 186.805 87.6016ZM188.68 86.8984H196.227C196.227 85.6641 195.891 84.625 195.219 83.7812C194.547 82.9219 193.648 82.4922 192.523 82.4922C191.383 82.4922 190.461 82.9297 189.758 83.8047C189.07 84.6797 188.711 85.7109 188.68 86.8984ZM200.07 87.6719C200.07 85.5938 200.57 83.9609 201.57 82.7734C202.57 81.5703 203.836 80.9688 205.367 80.9688C206.289 80.9688 207.086 81.2344 207.758 81.7656C208.445 82.2969 208.93 82.9062 209.211 83.5938V75.7891H210.992V94H209.258V91.7266C208.93 92.5078 208.422 93.1562 207.734 93.6719C207.062 94.1719 206.273 94.4219 205.367 94.4219C204.727 94.4219 204.102 94.2891 203.492 94.0234C202.898 93.7734 202.336 93.3984 201.805 92.8984C201.289 92.3828 200.867 91.6797 200.539 90.7891C200.227 89.8828 200.07 88.8438 200.07 87.6719ZM201.898 87.6719C201.898 89.25 202.242 90.5156 202.93 91.4688C203.617 92.4219 204.508 92.8984 205.602 92.8984C206.617 92.8984 207.477 92.4297 208.18 91.4922C208.898 90.5391 209.258 89.2656 209.258 87.6719C209.258 86.0938 208.898 84.8359 208.18 83.8984C207.477 82.9609 206.617 82.4922 205.602 82.4922C204.492 82.4922 203.594 82.9688 202.906 83.9219C202.234 84.8594 201.898 86.1094 201.898 87.6719ZM214.555 81.0859C215.148 80.5234 215.562 79.9375 215.797 79.3281C216.031 78.7031 216.148 77.9297 216.148 77.0078H214.766V74.3125H217.906V76.3281C217.906 78.8125 217.141 80.6953 215.609 81.9766L214.555 81.0859ZM219.969 81.2734C220.594 80.6953 221.016 80.0859 221.234 79.4453C221.453 78.7891 221.562 77.9766 221.562 77.0078H220.18V74.3125H223.32V76.3281C223.32 78.9375 222.555 80.8828 221.023 82.1641L219.969 81.2734ZM227.352 93.7188L226.414 92.3594L235.461 85.5156L226.414 78.6719L227.352 77.3125L237.289 84.6719V86.3359L227.352 93.7188ZM444.641 86.3359V84.6719L454.531 77.3125L455.516 78.6719L446.422 85.5156L455.516 92.3594L454.531 93.7188L444.641 86.3359ZM456.406 95.3359L463.156 75.3438H465.078L458.328 95.3359H456.406ZM468.57 87.6719C468.57 89.2344 468.891 90.5 469.531 91.4688C470.172 92.4219 471.055 92.8984 472.18 92.8984C473.242 92.8984 474.125 92.4297 474.828 91.4922C475.531 90.5547 475.883 89.2812 475.883 87.6719C475.883 86.1562 475.547 84.9141 474.875 83.9453C474.219 82.9766 473.32 82.4922 472.18 82.4922C471.117 82.4922 470.25 82.9844 469.578 83.9688C468.906 84.9375 468.57 86.1719 468.57 87.6719ZM466.789 99.5078V81.3906H468.523V83.6641C468.883 82.8516 469.398 82.2031 470.07 81.7188C470.758 81.2188 471.539 80.9688 472.414 80.9688C473.945 80.9688 475.211 81.5781 476.211 82.7969C477.211 84.0156 477.711 85.6406 477.711 87.6719C477.711 89.8438 477.188 91.5156 476.141 92.6875C475.094 93.8438 473.852 94.4219 472.414 94.4219C471.477 94.4219 470.68 94.1797 470.023 93.6953C469.367 93.1953 468.883 92.5703 468.57 91.8203V99.5078H466.789ZM480.898 93.7188L479.961 92.3594L489.008 85.5156L479.961 78.6719L480.898 77.3125L490.836 84.6719V86.3359L480.898 93.7188Z" fill="#FF4500"/>
<path d="M239.469 90.6953L241.203 90.0859C242.25 91.8984 243.875 92.8047 246.078 92.8047C247.297 92.8047 248.289 92.5078 249.055 91.9141C249.82 91.3203 250.203 90.5078 250.203 89.4766C250.203 88.9609 250.094 88.5078 249.875 88.1172C249.656 87.7109 249.305 87.3594 248.82 87.0625C248.352 86.7656 247.914 86.5312 247.508 86.3594C247.102 86.1875 246.547 85.9844 245.844 85.75C245.281 85.5625 244.883 85.4297 244.648 85.3516C244.414 85.2734 244.039 85.1328 243.523 84.9297C243.023 84.7266 242.648 84.5469 242.398 84.3906C242.164 84.2344 241.867 84.0234 241.508 83.7578C241.148 83.4766 240.883 83.1953 240.711 82.9141C240.555 82.6328 240.406 82.2969 240.266 81.9062C240.141 81.5 240.078 81.0703 240.078 80.6172C240.078 79.2266 240.609 78.1172 241.672 77.2891C242.734 76.4453 244.156 76.0234 245.938 76.0234C247.297 76.0234 248.477 76.3359 249.477 76.9609C250.492 77.5859 251.219 78.3672 251.656 79.3047L250.062 79.8672C249.141 78.3672 247.75 77.6172 245.891 77.6172C244.672 77.6172 243.719 77.8906 243.031 78.4375C242.344 78.9844 242 79.7109 242 80.6172C242 81.0234 242.094 81.4062 242.281 81.7656C242.469 82.1094 242.672 82.3906 242.891 82.6094C243.125 82.8125 243.492 83.0391 243.992 83.2891C244.508 83.5234 244.906 83.6953 245.188 83.8047C245.484 83.8984 245.961 84.0547 246.617 84.2734C246.773 84.3203 246.891 84.3594 246.969 84.3906C247.734 84.6406 248.375 84.8828 248.891 85.1172C249.406 85.3516 249.938 85.6641 250.484 86.0547C251.031 86.4453 251.438 86.9219 251.703 87.4844C251.984 88.0312 252.125 88.6719 252.125 89.4062C252.125 90.9844 251.57 92.2188 250.461 93.1094C249.367 93.9844 247.891 94.4219 246.031 94.4219C244.438 94.4219 243.086 94.0859 241.977 93.4141C240.867 92.7422 240.031 91.8359 239.469 90.6953ZM255.102 94V75.7891H256.883V83.4297H256.93C257.242 82.7578 257.742 82.1797 258.43 81.6953C259.133 81.2109 259.93 80.9688 260.82 80.9688C263.539 80.9688 264.898 82.5938 264.898 85.8438V94H263.117V86.1484C263.117 83.7109 262.242 82.4922 260.492 82.4922C259.523 82.4922 258.68 82.8906 257.961 83.6875C257.242 84.4844 256.883 85.4297 256.883 86.5234V94H255.102ZM267.688 87.6016C267.688 85.6328 268.219 84.0391 269.281 82.8203C270.344 81.5859 271.719 80.9688 273.406 80.9688C275.125 80.9688 276.477 81.5703 277.461 82.7734C278.445 83.9609 278.938 85.4844 278.938 87.3438C278.938 87.5625 278.922 87.875 278.891 88.2812H269.516C269.516 89.5469 269.867 90.6328 270.57 91.5391C271.273 92.4453 272.25 92.8984 273.5 92.8984C274.312 92.8984 275.031 92.7109 275.656 92.3359C276.281 91.9453 276.766 91.4297 277.109 90.7891L278.656 91.2578C278.266 92.1797 277.633 92.9375 276.758 93.5312C275.883 94.125 274.797 94.4219 273.5 94.4219C271.75 94.4219 270.344 93.7969 269.281 92.5469C268.219 91.2969 267.688 89.6484 267.688 87.6016ZM269.562 86.8984H277.109C277.109 85.6641 276.773 84.625 276.102 83.7812C275.43 82.9219 274.531 82.4922 273.406 82.4922C272.266 82.4922 271.344 82.9297 270.641 83.8047C269.953 84.6797 269.594 85.7109 269.562 86.8984ZM282.359 77.0078V74.3125H285.5V76.3281C285.5 78.8125 284.734 80.6953 283.203 81.9766L282.148 81.0859C282.742 80.5234 283.156 79.9375 283.391 79.3281C283.625 78.7031 283.742 77.9297 283.742 77.0078H282.359ZM289.016 91.5156L290.375 90.7188C291.297 92.1719 292.547 92.8984 294.125 92.8984C295.078 92.8984 295.836 92.7266 296.398 92.3828C296.977 92.0391 297.266 91.5391 297.266 90.8828C297.266 90.6016 297.195 90.3516 297.055 90.1328C296.914 89.8984 296.758 89.7109 296.586 89.5703C296.43 89.4141 296.141 89.25 295.719 89.0781C295.297 88.8906 294.945 88.7578 294.664 88.6797C294.398 88.5859 293.953 88.4375 293.328 88.2344C292.781 88.0625 292.312 87.8906 291.922 87.7188C291.531 87.5469 291.125 87.3203 290.703 87.0391C290.281 86.7422 289.953 86.3828 289.719 85.9609C289.5 85.5391 289.391 85.0547 289.391 84.5078C289.391 83.4609 289.812 82.6094 290.656 81.9531C291.5 81.2969 292.656 80.9688 294.125 80.9688C295.156 80.9688 296.102 81.2422 296.961 81.7891C297.82 82.3359 298.438 82.9766 298.812 83.7109L297.594 84.5078C297.266 83.9609 296.789 83.4922 296.164 83.1016C295.555 82.6953 294.875 82.4922 294.125 82.4922C293.172 82.4922 292.445 82.6797 291.945 83.0547C291.461 83.4141 291.219 83.9062 291.219 84.5312C291.219 84.8906 291.312 85.2188 291.5 85.5156C291.688 85.7969 291.969 86.0469 292.344 86.2656C292.734 86.4688 293.086 86.6328 293.398 86.7578C293.727 86.8672 294.156 87.0078 294.688 87.1797C295.141 87.3203 295.539 87.4531 295.883 87.5781C296.242 87.7031 296.633 87.875 297.055 88.0938C297.477 88.3125 297.828 88.5469 298.109 88.7969C298.391 89.0312 298.625 89.3359 298.812 89.7109C299 90.0703 299.094 90.4609 299.094 90.8828C299.094 91.8828 298.648 92.7266 297.758 93.4141C296.883 94.0859 295.672 94.4219 294.125 94.4219C293 94.4219 292 94.1719 291.125 93.6719C290.25 93.1562 289.547 92.4375 289.016 91.5156ZM308.586 90.7656C308.586 91.3594 308.836 91.8672 309.336 92.2891C309.836 92.6953 310.523 92.8984 311.398 92.8984C312.508 92.8984 313.453 92.5391 314.234 91.8203C315.031 91.1016 315.43 90.1875 315.43 89.0781V87.3203C314.742 87.4922 313.648 87.6953 312.148 87.9297C310.93 88.1484 310.031 88.4844 309.453 88.9375C308.875 89.3906 308.586 90 308.586 90.7656ZM306.758 90.9062C306.758 88.5625 308.57 87.1094 312.195 86.5469C313.82 86.2812 314.898 86.0625 315.43 85.8906V85.1641C315.43 84.3828 315.148 83.7344 314.586 83.2188C314.023 82.7031 313.227 82.4453 312.195 82.4453C311.445 82.4453 310.719 82.625 310.016 82.9844C309.328 83.3281 308.742 83.7969 308.258 84.3906L307.086 83.4062C307.711 82.6875 308.461 82.1016 309.336 81.6484C310.227 81.1953 311.164 80.9688 312.148 80.9688C315.523 80.9688 317.211 82.6172 317.211 85.9141V94H315.477V91.9375C315.227 92.6094 314.711 93.1953 313.93 93.6953C313.148 94.1797 312.227 94.4219 311.164 94.4219C309.773 94.4219 308.688 94.0938 307.906 93.4375C307.141 92.7812 306.758 91.9375 306.758 90.9062ZM326.844 94V75.7891H328.625V83.6406C328.844 82.9844 329.305 82.375 330.008 81.8125C330.711 81.25 331.531 80.9688 332.469 80.9688C334.031 80.9688 335.305 81.5703 336.289 82.7734C337.273 83.9609 337.766 85.5938 337.766 87.6719C337.766 88.8281 337.602 89.8594 337.273 90.7656C336.961 91.6562 336.539 92.3594 336.008 92.875C335.492 93.3906 334.93 93.7734 334.32 94.0234C333.727 94.2891 333.109 94.4219 332.469 94.4219C331.578 94.4219 330.789 94.1641 330.102 93.6484C329.414 93.1172 328.922 92.4844 328.625 91.75V94H326.844ZM328.578 87.6719C328.578 89.2656 328.93 90.5391 329.633 91.4922C330.352 92.4297 331.219 92.8984 332.234 92.8984C333.312 92.8984 334.195 92.4375 334.883 91.5156C335.586 90.5781 335.938 89.2969 335.938 87.6719C335.938 86.0938 335.594 84.8359 334.906 83.8984C334.219 82.9609 333.328 82.4922 332.234 82.4922C331.219 82.4922 330.352 82.9609 329.633 83.8984C328.93 84.8359 328.578 86.0938 328.578 87.6719ZM340.672 94V81.3906H342.406V83.2188C342.656 82.6562 343.07 82.1406 343.648 81.6719C344.227 81.2031 344.969 80.9688 345.875 80.9688C346.547 80.9688 347.141 81.0781 347.656 81.2969V82.9375C347.094 82.7188 346.5 82.6094 345.875 82.6094C344.812 82.6094 343.984 83.0078 343.391 83.8047C342.797 84.6016 342.5 85.6562 342.5 86.9688V94H340.672ZM349.648 78.5547V76.1875H351.945V78.5547H349.648ZM349.93 94V81.3906H351.711V94H349.93ZM355.062 87.6953C355.062 85.6953 355.57 84.0781 356.586 82.8438C357.602 81.5938 358.969 80.9688 360.688 80.9688C361.812 80.9688 362.773 81.2969 363.57 81.9531C364.383 82.5938 364.922 83.3594 365.188 84.25L363.641 84.6953C363.406 84.0703 363.023 83.5469 362.492 83.125C361.977 82.7031 361.375 82.4922 360.688 82.4922C359.531 82.4922 358.609 82.9844 357.922 83.9688C357.234 84.9531 356.891 86.1953 356.891 87.6953C356.891 89.2891 357.25 90.5547 357.969 91.4922C358.688 92.4297 359.594 92.8984 360.688 92.8984C361.422 92.8984 362.086 92.6641 362.68 92.1953C363.289 91.7109 363.719 91.1562 363.969 90.5312L365.516 91.0234C365.188 91.9609 364.586 92.7656 363.711 93.4375C362.852 94.0938 361.844 94.4219 360.688 94.4219C359.016 94.4219 357.656 93.8125 356.609 92.5938C355.578 91.375 355.062 89.7422 355.062 87.6953ZM368.141 94V75.7891H369.969V87.7188L375.453 81.3906H377.844L373.344 86.4297L378.359 94H376.156L372.172 87.6953L369.969 90.1562V94H368.141ZM386.094 94V75.7891H387.875V83.4297H387.922C388.234 82.7578 388.734 82.1797 389.422 81.6953C390.125 81.2109 390.922 80.9688 391.812 80.9688C394.531 80.9688 395.891 82.5938 395.891 85.8438V94H394.109V86.1484C394.109 83.7109 393.234 82.4922 391.484 82.4922C390.516 82.4922 389.672 82.8906 388.953 83.6875C388.234 84.4844 387.875 85.4297 387.875 86.5234V94H386.094ZM400.461 90.7656C400.461 91.3594 400.711 91.8672 401.211 92.2891C401.711 92.6953 402.398 92.8984 403.273 92.8984C404.383 92.8984 405.328 92.5391 406.109 91.8203C406.906 91.1016 407.305 90.1875 407.305 89.0781V87.3203C406.617 87.4922 405.523 87.6953 404.023 87.9297C402.805 88.1484 401.906 88.4844 401.328 88.9375C400.75 89.3906 400.461 90 400.461 90.7656ZM398.633 90.9062C398.633 88.5625 400.445 87.1094 404.07 86.5469C405.695 86.2812 406.773 86.0625 407.305 85.8906V85.1641C407.305 84.3828 407.023 83.7344 406.461 83.2188C405.898 82.7031 405.102 82.4453 404.07 82.4453C403.32 82.4453 402.594 82.625 401.891 82.9844C401.203 83.3281 400.617 83.7969 400.133 84.3906L398.961 83.4062C399.586 82.6875 400.336 82.1016 401.211 81.6484C402.102 81.1953 403.039 80.9688 404.023 80.9688C407.398 80.9688 409.086 82.6172 409.086 85.9141V94H407.352V91.9375C407.102 92.6094 406.586 93.1953 405.805 93.6953C405.023 94.1797 404.102 94.4219 403.039 94.4219C401.648 94.4219 400.562 94.0938 399.781 93.4375C399.016 92.7812 398.633 91.9375 398.633 90.9062ZM412.578 89.5703V81.3906H414.406V89.1953C414.406 91.6641 415.312 92.8984 417.125 92.8984C418.234 92.8984 419.078 92.4688 419.656 91.6094C420.25 90.75 420.547 89.7344 420.547 88.5625V81.3906H422.328V94H420.594V91.9609C420.469 92.4766 420.078 93.0156 419.422 93.5781C418.781 94.1406 417.875 94.4219 416.703 94.4219C415.5 94.4219 414.508 94.0156 413.727 93.2031C412.961 92.375 412.578 91.1641 412.578 89.5703ZM425.07 91.5156L426.43 90.7188C427.352 92.1719 428.602 92.8984 430.18 92.8984C431.133 92.8984 431.891 92.7266 432.453 92.3828C433.031 92.0391 433.32 91.5391 433.32 90.8828C433.32 90.6016 433.25 90.3516 433.109 90.1328C432.969 89.8984 432.812 89.7109 432.641 89.5703C432.484 89.4141 432.195 89.25 431.773 89.0781C431.352 88.8906 431 88.7578 430.719 88.6797C430.453 88.5859 430.008 88.4375 429.383 88.2344C428.836 88.0625 428.367 87.8906 427.977 87.7188C427.586 87.5469 427.18 87.3203 426.758 87.0391C426.336 86.7422 426.008 86.3828 425.773 85.9609C425.555 85.5391 425.445 85.0547 425.445 84.5078C425.445 83.4609 425.867 82.6094 426.711 81.9531C427.555 81.2969 428.711 80.9688 430.18 80.9688C431.211 80.9688 432.156 81.2422 433.016 81.7891C433.875 82.3359 434.492 82.9766 434.867 83.7109L433.648 84.5078C433.32 83.9609 432.844 83.4922 432.219 83.1016C431.609 82.6953 430.93 82.4922 430.18 82.4922C429.227 82.4922 428.5 82.6797 428 83.0547C427.516 83.4141 427.273 83.9062 427.273 84.5312C427.273 84.8906 427.367 85.2188 427.555 85.5156C427.742 85.7969 428.023 86.0469 428.398 86.2656C428.789 86.4688 429.141 86.6328 429.453 86.7578C429.781 86.8672 430.211 87.0078 430.742 87.1797C431.195 87.3203 431.594 87.4531 431.938 87.5781C432.297 87.7031 432.688 87.875 433.109 88.0938C433.531 88.3125 433.883 88.5469 434.164 88.7969C434.445 89.0312 434.68 89.3359 434.867 89.7109C435.055 90.0703 435.148 90.4609 435.148 90.8828C435.148 91.8828 434.703 92.7266 433.812 93.4141C432.938 94.0859 431.727 94.4219 430.18 94.4219C429.055 94.4219 428.055 94.1719 427.18 93.6719C426.305 93.1562 425.602 92.4375 425.07 91.5156ZM438.195 94.2344V91.5391H441.148V94.2344H438.195ZM440.516 89.125H438.852L438.641 76.4219H440.727L440.516 89.125Z" fill="black"/>
<path d="M59.0607 105.939C58.4749 105.354 57.5251 105.354 56.9393 105.939L47.3934 115.485C46.8076 116.071 46.8076 117.021 47.3934 117.607C47.9792 118.192 48.9289 118.192 49.5147 117.607L58 109.121L66.4853 117.607C67.0711 118.192 68.0208 118.192 68.6066 117.607C69.1924 117.021 69.1924 116.071 68.6066 115.485L59.0607 105.939ZM59.5 132V107H56.5V132H59.5Z" fill="#FF3D00"/>
<path d="M165.061 105.939C164.475 105.354 163.525 105.354 162.939 105.939L153.393 115.485C152.808 116.071 152.808 117.021 153.393 117.607C153.979 118.192 154.929 118.192 155.515 117.607L164 109.121L172.485 117.607C173.071 118.192 174.021 118.192 174.607 117.607C175.192 117.021 175.192 116.071 174.607 115.485L165.061 105.939ZM165.5 132V107H162.5V132H165.5Z" fill="#FF3D00"/>
<path d="M28.2656 146.012C28.2656 145.672 28.2363 145.426 28.1777 145.273C28.1309 145.121 28.1074 144.98 28.1074 144.852C28.1074 144.676 28.2012 144.535 28.3887 144.43C28.5762 144.312 28.7988 144.254 29.0566 144.254C29.6543 144.254 30.123 144.412 30.4629 144.729C30.8145 145.033 30.9902 145.402 30.9902 145.836V147.453C31.2363 146.949 31.5 146.48 31.7812 146.047C32.0742 145.613 32.3848 145.238 32.7129 144.922C33.0527 144.594 33.4102 144.342 33.7852 144.166C34.1719 143.979 34.5879 143.885 35.0332 143.885C35.6309 143.885 36.123 143.996 36.5098 144.219C36.8965 144.441 37.2012 144.729 37.4238 145.08C37.6465 145.432 37.7988 145.824 37.8809 146.258C37.9746 146.691 38.0215 147.113 38.0215 147.523V154.977C38.0215 155.059 38.0273 155.193 38.0391 155.381C38.0508 155.557 38.0859 155.738 38.1445 155.926C38.2031 156.113 38.291 156.277 38.4082 156.418C38.5371 156.559 38.7188 156.629 38.9531 156.629C39.3164 156.629 39.627 156.5 39.8848 156.242C40.1543 155.984 40.3828 155.662 40.5703 155.275C40.7695 154.889 40.9277 154.473 41.0449 154.027C41.1738 153.57 41.2793 153.143 41.3613 152.744C41.4316 152.369 41.5488 152.1 41.7129 151.936C41.877 151.76 42.0469 151.672 42.2227 151.672C42.3633 151.672 42.5098 151.719 42.6621 151.812C42.8145 151.895 42.9492 152.006 43.0664 152.146C43.1953 152.287 43.2949 152.445 43.3652 152.621C43.4473 152.797 43.4883 152.973 43.4883 153.148C43.4883 153.172 43.4883 153.201 43.4883 153.236C43.4883 153.271 43.4766 153.324 43.4531 153.395C43.3008 153.992 43.0898 154.619 42.8203 155.275C42.5625 155.932 42.2227 156.535 41.8008 157.086C41.3906 157.637 40.8984 158.094 40.3242 158.457C39.75 158.82 39.0762 159.002 38.3027 159.002C37.8223 159.002 37.3945 158.908 37.0195 158.721C36.6562 158.545 36.3398 158.305 36.0703 158C35.8125 157.695 35.6133 157.338 35.4727 156.928C35.3438 156.518 35.2793 156.084 35.2793 155.627V148.314C35.2793 148.033 35.2734 147.77 35.2617 147.523C35.25 147.277 35.2148 147.061 35.1562 146.873C35.1094 146.686 35.0332 146.539 34.9277 146.434C34.834 146.316 34.6992 146.258 34.5234 146.258C34.2656 146.258 33.9492 146.434 33.5742 146.785C33.1992 147.137 32.8301 147.594 32.4668 148.156C32.1035 148.719 31.7812 149.357 31.5 150.072C31.2305 150.775 31.0605 151.484 30.9902 152.199V157.455C30.9902 157.631 30.9844 157.812 30.9727 158C30.9727 158.176 30.9375 158.334 30.8672 158.475C30.8086 158.627 30.709 158.75 30.5684 158.844C30.4395 158.949 30.2461 159.002 29.9883 159.002C29.8125 159.002 29.6191 158.979 29.4082 158.932C29.209 158.896 29.0215 158.82 28.8457 158.703C28.6816 158.598 28.541 158.439 28.4238 158.229C28.3184 158.029 28.2656 157.76 28.2656 157.42V146.012ZM51.4512 156.629C51.8145 156.629 52.125 156.5 52.3828 156.242C52.6523 155.984 52.8809 155.662 53.0684 155.275C53.2676 154.889 53.4258 154.473 53.543 154.027C53.6719 153.57 53.7773 153.143 53.8594 152.744C53.9414 152.369 54.0586 152.1 54.2109 151.936C54.375 151.76 54.5508 151.672 54.7383 151.672C54.8789 151.672 55.0195 151.719 55.1602 151.812C55.3125 151.895 55.4473 152.006 55.5645 152.146C55.6934 152.287 55.793 152.445 55.8633 152.621C55.9453 152.797 55.9863 152.973 55.9863 153.148C55.9863 153.172 55.9863 153.201 55.9863 153.236C55.9863 153.271 55.9746 153.324 55.9512 153.395C55.7988 153.992 55.5879 154.619 55.3184 155.275C55.0605 155.932 54.7266 156.535 54.3164 157.086C53.9062 157.637 53.4082 158.094 52.8223 158.457C52.248 158.82 51.5742 159.002 50.8008 159.002C50.168 159.002 49.6172 158.867 49.1484 158.598C48.6797 158.328 48.3105 157.971 48.041 157.525C47.6777 157.936 47.2383 158.281 46.7227 158.562C46.2188 158.855 45.627 159.002 44.9473 159.002C44.2441 159.002 43.623 158.861 43.084 158.58C42.5566 158.299 42.1113 157.918 41.748 157.438C41.3848 156.945 41.1094 156.371 40.9219 155.715C40.7461 155.047 40.6582 154.332 40.6582 153.57C40.6582 152.07 40.8984 150.723 41.3789 149.527C41.8594 148.332 42.498 147.318 43.2949 146.486C44.0918 145.643 45 144.998 46.0195 144.553C47.0508 144.107 48.1172 143.885 49.2188 143.885C49.7109 143.885 50.1094 144.02 50.4141 144.289C50.7188 144.559 50.8711 144.928 50.8711 145.396C50.8711 145.701 50.8359 145.918 50.7656 146.047C50.707 146.164 50.5898 146.223 50.4141 146.223C50.25 146.223 50.0801 146.211 49.9043 146.188C49.7285 146.164 49.5469 146.152 49.3594 146.152C48.6797 146.152 47.9883 146.305 47.2852 146.609C46.582 146.902 45.9434 147.359 45.3691 147.98C44.8066 148.59 44.3438 149.369 43.9805 150.318C43.6172 151.256 43.4355 152.375 43.4355 153.676C43.4355 154.625 43.6172 155.357 43.9805 155.873C44.3438 156.377 44.8418 156.629 45.4746 156.629C45.9668 156.629 46.377 156.447 46.7051 156.084C47.0332 155.709 47.2969 155.27 47.4961 154.766V149.211C47.4961 149.035 47.4844 148.889 47.4609 148.771C47.4492 148.654 47.4316 148.555 47.4082 148.473C47.3965 148.391 47.3848 148.32 47.373 148.262C47.3613 148.191 47.3555 148.127 47.3555 148.068C47.3555 147.881 47.4434 147.734 47.6191 147.629C47.8066 147.512 48.0293 147.453 48.2871 147.453C48.8848 147.453 49.3594 147.611 49.7109 147.928C50.0625 148.232 50.2383 148.602 50.2383 149.035V154.977C50.2383 155.176 50.2617 155.375 50.3086 155.574C50.3555 155.762 50.4258 155.938 50.5195 156.102C50.6133 156.254 50.7363 156.383 50.8887 156.488C51.0527 156.582 51.2402 156.629 51.4512 156.629ZM75.5156 153.395C75.3516 153.992 75.1348 154.619 74.8652 155.275C74.6074 155.932 74.2734 156.535 73.8633 157.086C73.4531 157.637 72.9609 158.094 72.3867 158.457C71.8125 158.82 71.1387 159.002 70.3652 159.002C69.8848 159.002 69.457 158.908 69.082 158.721C68.7188 158.545 68.4023 158.305 68.1328 158C67.875 157.695 67.6758 157.338 67.5352 156.928C67.4062 156.518 67.3418 156.084 67.3418 155.627V148.314C67.3418 148.033 67.3359 147.77 67.3242 147.523C67.3125 147.277 67.2832 147.061 67.2363 146.873C67.1895 146.686 67.1191 146.539 67.0254 146.434C66.9434 146.316 66.8262 146.258 66.6738 146.258C66.4277 146.258 66.1289 146.434 65.7773 146.785C65.4258 147.137 65.0859 147.594 64.7578 148.156C64.4297 148.719 64.1367 149.357 63.8789 150.072C63.6211 150.775 63.4688 151.484 63.4219 152.199V157.455C63.4219 157.631 63.416 157.812 63.4043 158C63.4043 158.176 63.3691 158.334 63.2988 158.475C63.2402 158.627 63.1406 158.75 63 158.844C62.8711 158.949 62.6777 159.002 62.4199 159.002C62.2441 159.002 62.0508 158.979 61.8398 158.932C61.6406 158.896 61.4531 158.82 61.2773 158.703C61.1133 158.598 60.9727 158.439 60.8555 158.229C60.75 158.029 60.6973 157.76 60.6973 157.42V148.314C60.6973 148.033 60.6855 147.77 60.6621 147.523C60.6504 147.277 60.6211 147.061 60.5742 146.873C60.5273 146.686 60.457 146.539 60.3633 146.434C60.2812 146.316 60.1641 146.258 60.0117 146.258C59.7656 146.258 59.4668 146.434 59.1152 146.785C58.7754 147.137 58.4355 147.594 58.0957 148.156C57.7676 148.719 57.4746 149.357 57.2168 150.072C56.9707 150.775 56.8184 151.484 56.7598 152.199V157.455C56.7598 157.631 56.7539 157.812 56.7422 158C56.7422 158.176 56.707 158.334 56.6367 158.475C56.5781 158.627 56.4785 158.75 56.3379 158.844C56.209 158.949 56.0156 159.002 55.7578 159.002C55.582 159.002 55.3887 158.979 55.1777 158.932C54.9785 158.896 54.791 158.82 54.6152 158.703C54.4512 158.598 54.3105 158.439 54.1934 158.229C54.0879 158.029 54.0352 157.76 54.0352 157.42V146.012C54.0352 145.672 54.0059 145.426 53.9473 145.273C53.9004 145.121 53.877 144.98 53.877 144.852C53.877 144.676 53.9707 144.535 54.1582 144.43C54.3457 144.312 54.5684 144.254 54.8262 144.254C55.4238 144.254 55.8926 144.412 56.2324 144.729C56.584 145.033 56.7598 145.402 56.7598 145.836V147.348C56.9941 146.855 57.2461 146.398 57.5156 145.977C57.7969 145.555 58.0957 145.191 58.4121 144.887C58.7285 144.57 59.0625 144.324 59.4141 144.148C59.7773 143.973 60.1641 143.885 60.5742 143.885C61.1133 143.885 61.5586 143.984 61.9102 144.184C62.2734 144.383 62.5605 144.646 62.7715 144.975C62.9941 145.303 63.1523 145.672 63.2461 146.082C63.3398 146.48 63.3984 146.879 63.4219 147.277C63.6445 146.797 63.8906 146.352 64.1602 145.941C64.4297 145.531 64.7227 145.174 65.0391 144.869C65.3555 144.564 65.6895 144.324 66.041 144.148C66.4043 143.973 66.791 143.885 67.2012 143.885C67.7871 143.885 68.2676 143.996 68.6426 144.219C69.0176 144.441 69.3105 144.729 69.5215 145.08C69.7324 145.432 69.8789 145.824 69.9609 146.258C70.043 146.691 70.084 147.113 70.084 147.523V154.977C70.084 155.059 70.0898 155.193 70.1016 155.381C70.1133 155.557 70.1484 155.738 70.207 155.926C70.2656 156.113 70.3535 156.277 70.4707 156.418C70.5996 156.559 70.7812 156.629 71.0156 156.629C71.3789 156.629 71.6895 156.5 71.9473 156.242C72.2168 155.984 72.4453 155.662 72.6328 155.275C72.832 154.889 72.9961 154.473 73.125 154.027C73.2539 153.57 73.3594 153.143 73.4414 152.744C73.5117 152.369 73.623 152.1 73.7754 151.936C73.9395 151.76 74.1152 151.672 74.3027 151.672C74.4434 151.672 74.584 151.719 74.7246 151.812C74.877 151.895 75.0117 152.006 75.1289 152.146C75.2578 152.287 75.3574 152.445 75.4277 152.621C75.5098 152.797 75.5508 152.973 75.5508 153.148C75.5508 153.172 75.5508 153.201 75.5508 153.236C75.5508 153.271 75.5391 153.324 75.5156 153.395ZM81.8613 147.523C81.8613 148.191 81.7441 148.877 81.5098 149.58C81.2871 150.283 80.9473 150.951 80.4902 151.584C80.0449 152.205 79.4883 152.768 78.8203 153.271C78.1641 153.764 77.4023 154.139 76.5352 154.396C76.6523 154.701 76.8047 154.994 76.9922 155.275C77.1914 155.545 77.4258 155.779 77.6953 155.979C77.9648 156.178 78.2754 156.336 78.627 156.453C78.9902 156.57 79.4062 156.629 79.875 156.629C80.5781 156.629 81.1816 156.5 81.6855 156.242C82.1895 155.973 82.6113 155.621 82.9512 155.188C83.3027 154.754 83.584 154.268 83.7949 153.729C84.0059 153.189 84.1641 152.645 84.2695 152.094C84.3516 151.695 84.5156 151.432 84.7617 151.303C85.0195 151.162 85.2773 151.127 85.5352 151.197C85.8047 151.268 86.0332 151.42 86.2207 151.654C86.4199 151.877 86.502 152.146 86.4668 152.463C86.4199 152.826 86.3379 153.242 86.2207 153.711C86.1152 154.18 85.9512 154.654 85.7285 155.135C85.5059 155.615 85.2188 156.09 84.8672 156.559C84.5273 157.016 84.1055 157.426 83.6016 157.789C83.0977 158.152 82.5059 158.445 81.8262 158.668C81.1465 158.891 80.3672 159.002 79.4883 159.002C78.668 159.002 77.8711 158.838 77.0977 158.51C76.3359 158.193 75.6562 157.736 75.0586 157.139C74.4727 156.529 73.998 155.785 73.6348 154.906C73.2832 154.016 73.1074 153.008 73.1074 151.883C73.1074 150.746 73.2656 149.691 73.582 148.719C73.8984 147.734 74.3145 146.885 74.8301 146.17C75.3457 145.455 75.9316 144.898 76.5879 144.5C77.2441 144.09 77.918 143.885 78.6094 143.885C79.1133 143.885 79.5645 143.973 79.9629 144.148C80.373 144.324 80.7188 144.576 81 144.904C81.2812 145.221 81.4922 145.602 81.6328 146.047C81.7852 146.492 81.8613 146.984 81.8613 147.523ZM76.0605 151.777C76.0605 151.883 76.0664 151.988 76.0781 152.094C76.0898 152.199 76.0957 152.311 76.0957 152.428C76.541 152.217 76.9453 151.947 77.3086 151.619C77.6719 151.291 77.9824 150.916 78.2402 150.494C78.498 150.072 78.6973 149.615 78.8379 149.123C78.9785 148.619 79.0488 148.098 79.0488 147.559C79.0488 147.16 78.9785 146.85 78.8379 146.627C78.709 146.404 78.5273 146.293 78.293 146.293C78 146.293 77.7363 146.393 77.502 146.592C77.2793 146.791 77.0801 147.055 76.9043 147.383C76.7402 147.699 76.5996 148.062 76.4824 148.473C76.377 148.871 76.2891 149.275 76.2188 149.686C76.1484 150.096 76.1016 150.488 76.0781 150.863C76.0547 151.227 76.0488 151.531 76.0605 151.777Z" fill="black"/>
<path d="M142.266 146.012C142.266 145.672 142.236 145.426 142.178 145.273C142.131 145.121 142.107 144.98 142.107 144.852C142.107 144.676 142.201 144.535 142.389 144.43C142.576 144.312 142.799 144.254 143.057 144.254C143.654 144.254 144.123 144.412 144.463 144.729C144.814 145.033 144.99 145.402 144.99 145.836V155.521C144.99 155.861 145.043 156.131 145.148 156.33C145.254 156.529 145.465 156.629 145.781 156.629C146.227 156.629 146.672 156.482 147.117 156.189C147.574 155.885 147.979 155.451 148.33 154.889C148.693 154.314 148.986 153.617 149.209 152.797C149.443 151.977 149.561 151.045 149.561 150.002C149.561 149.275 149.502 148.672 149.385 148.191C149.279 147.711 149.15 147.324 148.998 147.031C148.846 146.727 148.682 146.498 148.506 146.346C148.342 146.193 148.201 146.07 148.084 145.977C147.99 145.906 147.885 145.865 147.768 145.854C147.65 145.83 147.592 145.766 147.592 145.66C147.592 145.496 147.633 145.314 147.715 145.115C147.809 144.904 147.926 144.711 148.066 144.535C148.207 144.348 148.365 144.195 148.541 144.078C148.717 143.949 148.893 143.885 149.068 143.885C149.432 143.885 149.801 144.066 150.176 144.43C150.551 144.781 150.891 145.25 151.195 145.836C151.512 146.422 151.77 147.09 151.969 147.84C152.168 148.578 152.268 149.334 152.268 150.107C152.268 151.326 152.104 152.475 151.775 153.553C151.447 154.631 150.979 155.574 150.369 156.383C149.771 157.191 149.045 157.83 148.189 158.299C147.334 158.768 146.379 159.002 145.324 159.002C144.75 159.002 144.264 158.908 143.865 158.721C143.479 158.533 143.168 158.281 142.934 157.965C142.699 157.648 142.529 157.279 142.424 156.857C142.318 156.424 142.266 155.967 142.266 155.486V146.012ZM164.15 156.629C164.514 156.629 164.824 156.5 165.082 156.242C165.352 155.984 165.58 155.662 165.768 155.275C165.967 154.889 166.125 154.473 166.242 154.027C166.371 153.57 166.477 153.143 166.559 152.744C166.641 152.369 166.758 152.1 166.91 151.936C167.074 151.76 167.25 151.672 167.438 151.672C167.578 151.672 167.719 151.719 167.859 151.812C168.012 151.895 168.146 152.006 168.264 152.146C168.393 152.287 168.492 152.445 168.562 152.621C168.645 152.797 168.686 152.973 168.686 153.148C168.686 153.172 168.686 153.201 168.686 153.236C168.686 153.271 168.674 153.324 168.65 153.395C168.498 153.992 168.287 154.619 168.018 155.275C167.76 155.932 167.426 156.535 167.016 157.086C166.605 157.637 166.107 158.094 165.521 158.457C164.947 158.82 164.273 159.002 163.5 159.002C162.867 159.002 162.316 158.867 161.848 158.598C161.379 158.328 161.01 157.971 160.74 157.525C160.377 157.936 159.938 158.281 159.422 158.562C158.918 158.855 158.326 159.002 157.646 159.002C156.943 159.002 156.322 158.861 155.783 158.58C155.256 158.299 154.811 157.918 154.447 157.438C154.084 156.945 153.809 156.371 153.621 155.715C153.445 155.047 153.357 154.332 153.357 153.57C153.357 152.07 153.598 150.723 154.078 149.527C154.559 148.332 155.197 147.318 155.994 146.486C156.791 145.643 157.699 144.998 158.719 144.553C159.75 144.107 160.816 143.885 161.918 143.885C162.41 143.885 162.809 144.02 163.113 144.289C163.418 144.559 163.57 144.928 163.57 145.396C163.57 145.701 163.535 145.918 163.465 146.047C163.406 146.164 163.289 146.223 163.113 146.223C162.949 146.223 162.779 146.211 162.604 146.188C162.428 146.164 162.246 146.152 162.059 146.152C161.379 146.152 160.688 146.305 159.984 146.609C159.281 146.902 158.643 147.359 158.068 147.98C157.506 148.59 157.043 149.369 156.68 150.318C156.316 151.256 156.135 152.375 156.135 153.676C156.135 154.625 156.316 155.357 156.68 155.873C157.043 156.377 157.541 156.629 158.174 156.629C158.666 156.629 159.076 156.447 159.404 156.084C159.732 155.709 159.996 155.27 160.195 154.766V149.211C160.195 149.035 160.184 148.889 160.16 148.771C160.148 148.654 160.131 148.555 160.107 148.473C160.096 148.391 160.084 148.32 160.072 148.262C160.061 148.191 160.055 148.127 160.055 148.068C160.055 147.881 160.143 147.734 160.318 147.629C160.506 147.512 160.729 147.453 160.986 147.453C161.584 147.453 162.059 147.611 162.41 147.928C162.762 148.232 162.938 148.602 162.938 149.035V154.977C162.938 155.176 162.961 155.375 163.008 155.574C163.055 155.762 163.125 155.938 163.219 156.102C163.312 156.254 163.436 156.383 163.588 156.488C163.752 156.582 163.939 156.629 164.15 156.629ZM169.459 147.348C169.588 147.102 169.711 146.773 169.828 146.363C169.957 145.941 170.074 145.479 170.18 144.975C170.297 144.471 170.402 143.943 170.496 143.393C170.59 142.842 170.672 142.303 170.742 141.775C170.812 141.248 170.865 140.756 170.9 140.299C170.947 139.83 170.971 139.432 170.971 139.104C170.971 137.908 170.883 137.035 170.707 136.484C170.531 135.922 170.297 135.641 170.004 135.641C169.91 135.641 169.828 135.688 169.758 135.781C169.688 135.875 169.629 135.998 169.582 136.15C169.535 136.291 169.5 136.449 169.477 136.625C169.465 136.789 169.459 136.941 169.459 137.082V147.348ZM174.574 152.779C174.645 152.428 174.75 152.176 174.891 152.023C175.043 151.859 175.201 151.771 175.365 151.76C175.541 151.736 175.717 151.777 175.893 151.883C176.068 151.977 176.221 152.105 176.35 152.27C176.479 152.434 176.572 152.621 176.631 152.832C176.701 153.031 176.713 153.23 176.666 153.43C176.502 153.91 176.268 154.473 175.963 155.117C175.658 155.762 175.271 156.371 174.803 156.945C174.334 157.52 173.783 158.006 173.15 158.404C172.518 158.803 171.791 159.002 170.971 159.002C170.279 159.002 169.67 158.885 169.143 158.65C168.615 158.428 168.17 158.111 167.807 157.701C167.455 157.279 167.186 156.781 166.998 156.207C166.822 155.621 166.734 154.971 166.734 154.256V137.873C166.734 137.205 166.816 136.59 166.98 136.027C167.156 135.453 167.391 134.967 167.684 134.568C167.988 134.158 168.34 133.842 168.738 133.619C169.137 133.385 169.559 133.268 170.004 133.268C170.531 133.268 170.977 133.367 171.34 133.566C171.703 133.754 172.002 134.006 172.236 134.322C172.471 134.639 172.652 135.002 172.781 135.412C172.922 135.822 173.021 136.244 173.08 136.678C173.139 137.1 173.174 137.521 173.186 137.943C173.197 138.354 173.203 138.729 173.203 139.068C173.203 139.947 173.121 140.873 172.957 141.846C172.793 142.807 172.582 143.756 172.324 144.693C172.078 145.631 171.803 146.533 171.498 147.4C171.205 148.256 170.918 149.018 170.637 149.686C170.367 150.354 170.121 150.898 169.898 151.32C169.688 151.742 169.541 151.988 169.459 152.059V154.15C169.459 154.877 169.611 155.475 169.916 155.943C170.221 156.4 170.707 156.629 171.375 156.629C171.785 156.629 172.166 156.506 172.518 156.26C172.881 156.002 173.197 155.686 173.467 155.311C173.748 154.924 173.982 154.508 174.17 154.062C174.357 153.605 174.492 153.178 174.574 152.779ZM184.576 159.002C184.166 159.002 183.791 158.938 183.451 158.809C183.123 158.68 182.83 158.498 182.572 158.264C182.326 158.041 182.121 157.777 181.957 157.473C181.793 157.156 181.682 156.816 181.623 156.453C181.189 157.215 180.68 157.836 180.094 158.316C179.508 158.797 178.816 159.037 178.02 159.037C177.422 159.037 176.883 158.914 176.402 158.668C175.934 158.422 175.535 158.076 175.207 157.631C174.879 157.174 174.627 156.629 174.451 155.996C174.287 155.352 174.205 154.637 174.205 153.852C174.205 152.902 174.27 151.947 174.398 150.986C174.539 150.025 174.691 149.158 174.855 148.385C175.043 147.482 175.26 146.609 175.506 145.766C175.564 145.613 175.605 145.461 175.629 145.309C175.664 145.145 175.734 144.998 175.84 144.869C175.945 144.74 176.109 144.635 176.332 144.553C176.566 144.471 176.924 144.43 177.404 144.43C177.85 144.43 178.137 144.512 178.266 144.676C178.395 144.828 178.441 145.01 178.406 145.221C178.383 145.432 178.312 145.648 178.195 145.871C178.09 146.094 178.02 146.275 177.984 146.416C177.82 147.084 177.674 147.693 177.545 148.244C177.416 148.795 177.305 149.352 177.211 149.914C177.129 150.465 177.064 151.045 177.018 151.654C176.971 152.252 176.947 152.926 176.947 153.676C176.947 154.66 177.088 155.404 177.369 155.908C177.662 156.412 178.072 156.664 178.6 156.664C178.963 156.664 179.297 156.529 179.602 156.26C179.918 155.99 180.199 155.633 180.445 155.188C180.703 154.73 180.926 154.215 181.113 153.641C181.301 153.055 181.447 152.445 181.553 151.812V146.012C181.553 145.754 181.529 145.549 181.482 145.396C181.447 145.244 181.406 145.127 181.359 145.045C181.324 144.951 181.283 144.881 181.236 144.834C181.201 144.775 181.184 144.711 181.184 144.641C181.184 144.582 181.219 144.529 181.289 144.482C181.359 144.436 181.453 144.395 181.57 144.359C181.688 144.324 181.811 144.301 181.939 144.289C182.08 144.266 182.215 144.254 182.344 144.254C182.941 144.254 183.41 144.412 183.75 144.729C184.102 145.033 184.277 145.402 184.277 145.836V154.977C184.277 155.059 184.283 155.193 184.295 155.381C184.307 155.557 184.342 155.738 184.4 155.926C184.459 156.113 184.553 156.277 184.682 156.418C184.811 156.559 184.992 156.629 185.227 156.629C185.59 156.629 185.9 156.5 186.158 156.242C186.428 155.984 186.656 155.662 186.844 155.275C187.043 154.889 187.201 154.473 187.318 154.027C187.447 153.57 187.553 153.143 187.635 152.744C187.705 152.369 187.822 152.1 187.986 151.936C188.15 151.76 188.32 151.672 188.496 151.672C188.637 151.672 188.783 151.719 188.936 151.812C189.088 151.895 189.223 152.006 189.34 152.146C189.469 152.287 189.568 152.445 189.639 152.621C189.721 152.797 189.762 152.973 189.762 153.148C189.762 153.172 189.762 153.201 189.762 153.236C189.762 153.271 189.75 153.324 189.727 153.395C189.562 153.992 189.346 154.619 189.076 155.275C188.818 155.932 188.484 156.535 188.074 157.086C187.664 157.637 187.172 158.094 186.598 158.457C186.023 158.82 185.35 159.002 184.576 159.002ZM196.072 147.523C196.072 148.191 195.955 148.877 195.721 149.58C195.498 150.283 195.158 150.951 194.701 151.584C194.256 152.205 193.699 152.768 193.031 153.271C192.375 153.764 191.613 154.139 190.746 154.396C190.863 154.701 191.016 154.994 191.203 155.275C191.402 155.545 191.637 155.779 191.906 155.979C192.176 156.178 192.486 156.336 192.838 156.453C193.201 156.57 193.617 156.629 194.086 156.629C194.789 156.629 195.393 156.5 195.896 156.242C196.4 155.973 196.822 155.621 197.162 155.188C197.514 154.754 197.795 154.268 198.006 153.729C198.217 153.189 198.375 152.645 198.48 152.094C198.562 151.695 198.727 151.432 198.973 151.303C199.23 151.162 199.488 151.127 199.746 151.197C200.016 151.268 200.244 151.42 200.432 151.654C200.631 151.877 200.713 152.146 200.678 152.463C200.631 152.826 200.549 153.242 200.432 153.711C200.326 154.18 200.162 154.654 199.939 155.135C199.717 155.615 199.43 156.09 199.078 156.559C198.738 157.016 198.316 157.426 197.812 157.789C197.309 158.152 196.717 158.445 196.037 158.668C195.357 158.891 194.578 159.002 193.699 159.002C192.879 159.002 192.082 158.838 191.309 158.51C190.547 158.193 189.867 157.736 189.27 157.139C188.684 156.529 188.209 155.785 187.846 154.906C187.494 154.016 187.318 153.008 187.318 151.883C187.318 150.746 187.477 149.691 187.793 148.719C188.109 147.734 188.525 146.885 189.041 146.17C189.557 145.455 190.143 144.898 190.799 144.5C191.455 144.09 192.129 143.885 192.82 143.885C193.324 143.885 193.775 143.973 194.174 144.148C194.584 144.324 194.93 144.576 195.211 144.904C195.492 145.221 195.703 145.602 195.844 146.047C195.996 146.492 196.072 146.984 196.072 147.523ZM190.271 151.777C190.271 151.883 190.277 151.988 190.289 152.094C190.301 152.199 190.307 152.311 190.307 152.428C190.752 152.217 191.156 151.947 191.52 151.619C191.883 151.291 192.193 150.916 192.451 150.494C192.709 150.072 192.908 149.615 193.049 149.123C193.189 148.619 193.26 148.098 193.26 147.559C193.26 147.16 193.189 146.85 193.049 146.627C192.92 146.404 192.738 146.293 192.504 146.293C192.211 146.293 191.947 146.393 191.713 146.592C191.49 146.791 191.291 147.055 191.115 147.383C190.951 147.699 190.811 148.062 190.693 148.473C190.588 148.871 190.5 149.275 190.43 149.686C190.359 150.096 190.312 150.488 190.289 150.863C190.266 151.227 190.26 151.531 190.271 151.777Z" fill="black"/>
<line x1="32" y1="54" x2="225" y2="54" stroke="#FF3D00" stroke-width="2"/>
<line x1="33.0028" y1="55" x2="33.0028" y2="68" stroke="#FF3D00" stroke-width="2"/>
<line x1="224" y1="54" x2="224" y2="67" stroke="#FF3D00" stroke-width="2"/>
<path d="M128.5 40L149.718 53.5H107.282L128.5 40Z" fill="#FF3D00"/>
<path d="M95.4434 23.6289C95.8066 23.6289 96.1172 23.5 96.375 23.2422C96.6445 22.9844 96.873 22.6621 97.0605 22.2754C97.2598 21.8887 97.418 21.4727 97.5352 21.0273C97.6641 20.5703 97.7695 20.1426 97.8516 19.7441C97.9336 19.3691 98.0508 19.0996 98.2031 18.9355C98.3672 18.7598 98.543 18.6719 98.7305 18.6719C98.8711 18.6719 99.0117 18.7188 99.1523 18.8125C99.3047 18.8945 99.4395 19.0059 99.5566 19.1465C99.6855 19.2871 99.7852 19.4453 99.8555 19.6211C99.9375 19.7969 99.9785 19.9727 99.9785 20.1484C99.9785 20.1719 99.9785 20.2012 99.9785 20.2363C99.9785 20.2715 99.9668 20.3242 99.9434 20.3945C99.791 20.9922 99.5801 21.6191 99.3105 22.2754C99.0527 22.9316 98.7188 23.5352 98.3086 24.0859C97.8984 24.6367 97.4004 25.0938 96.8145 25.457C96.2402 25.8203 95.5664 26.002 94.793 26.002C94.1602 26.002 93.6094 25.8672 93.1406 25.5977C92.6719 25.3281 92.3027 24.9707 92.0332 24.5254C91.6699 24.9355 91.2305 25.2812 90.7148 25.5625C90.2109 25.8555 89.6191 26.002 88.9395 26.002C88.2363 26.002 87.6152 25.8613 87.0762 25.5801C86.5488 25.2988 86.1035 24.918 85.7402 24.4375C85.377 23.9453 85.1016 23.3711 84.9141 22.7148C84.7383 22.0469 84.6504 21.332 84.6504 20.5703C84.6504 19.0703 84.8906 17.7227 85.3711 16.5273C85.8516 15.332 86.4902 14.3184 87.2871 13.4863C88.084 12.6426 88.9922 11.998 90.0117 11.5527C91.043 11.1074 92.1094 10.8848 93.2109 10.8848C93.7031 10.8848 94.1016 11.0195 94.4062 11.2891C94.7109 11.5586 94.8633 11.9277 94.8633 12.3965C94.8633 12.7012 94.8281 12.918 94.7578 13.0469C94.6992 13.1641 94.582 13.2227 94.4062 13.2227C94.2422 13.2227 94.0723 13.2109 93.8965 13.1875C93.7207 13.1641 93.5391 13.1523 93.3516 13.1523C92.6719 13.1523 91.9805 13.3047 91.2773 13.6094C90.5742 13.9023 89.9355 14.3594 89.3613 14.9805C88.7988 15.5898 88.3359 16.3691 87.9727 17.3184C87.6094 18.2559 87.4277 19.375 87.4277 20.6758C87.4277 21.625 87.6094 22.3574 87.9727 22.873C88.3359 23.377 88.834 23.6289 89.4668 23.6289C89.959 23.6289 90.3691 23.4473 90.6973 23.084C91.0254 22.709 91.2891 22.2695 91.4883 21.7656V16.2109C91.4883 16.0352 91.4766 15.8887 91.4531 15.7715C91.4414 15.6543 91.4238 15.5547 91.4004 15.4727C91.3887 15.3906 91.377 15.3203 91.3652 15.2617C91.3535 15.1914 91.3477 15.127 91.3477 15.0684C91.3477 14.8809 91.4355 14.7344 91.6113 14.6289C91.7988 14.5117 92.0215 14.4531 92.2793 14.4531C92.877 14.4531 93.3516 14.6113 93.7031 14.9277C94.0547 15.2324 94.2305 15.6016 94.2305 16.0352V21.9766C94.2305 22.1758 94.2539 22.375 94.3008 22.5742C94.3477 22.7617 94.418 22.9375 94.5117 23.1016C94.6055 23.2539 94.7285 23.3828 94.8809 23.4883C95.0449 23.582 95.2324 23.6289 95.4434 23.6289ZM94.7754 8.07227C95.0449 8.0957 95.3438 8.11328 95.6719 8.125C95.9531 8.14844 96.293 8.16602 96.6914 8.17773C97.0898 8.17773 97.5352 8.18359 98.0273 8.19531V2.0957C98.0273 1.83789 98.0039 1.63281 97.957 1.48047C97.9219 1.32812 97.8809 1.21094 97.834 1.12891C97.7988 1.03516 97.7578 0.964844 97.7109 0.917969C97.6758 0.859375 97.6582 0.800781 97.6582 0.742188C97.6582 0.671875 97.6934 0.613281 97.7637 0.566406C97.834 0.519531 97.9277 0.478516 98.0449 0.443359C98.1621 0.408203 98.2852 0.384766 98.4141 0.373047C98.5547 0.349609 98.6895 0.337891 98.8184 0.337891C99.416 0.337891 99.8848 0.496094 100.225 0.8125C100.576 1.11719 100.752 1.48633 100.752 1.91992V8.23047C101.854 8.23047 103.014 8.21875 104.232 8.19531C105.463 8.17188 106.693 8.13086 107.924 8.07227C108.088 7.89648 108.217 7.83203 108.311 7.87891C108.416 7.92578 108.48 8.03711 108.504 8.21289C108.539 8.38867 108.545 8.60547 108.521 8.86328C108.498 9.12109 108.451 9.37305 108.381 9.61914C108.311 9.85352 108.211 10.0586 108.082 10.2344C107.965 10.4102 107.83 10.498 107.678 10.498C106.236 10.5332 104.959 10.5566 103.846 10.5684C102.744 10.5684 101.713 10.5684 100.752 10.5684V21.9766C100.752 22.5625 100.863 22.9844 101.086 23.2422C101.309 23.5 101.607 23.6289 101.982 23.6289C102.346 23.6289 102.656 23.5 102.914 23.2422C103.184 22.9844 103.412 22.6621 103.6 22.2754C103.799 21.8887 103.957 21.4727 104.074 21.0273C104.203 20.5703 104.309 20.1426 104.391 19.7441C104.461 19.3691 104.578 19.0996 104.742 18.9355C104.906 18.7598 105.076 18.6719 105.252 18.6719C105.393 18.6719 105.539 18.7188 105.691 18.8125C105.844 18.8945 105.979 19.0059 106.096 19.1465C106.225 19.2871 106.324 19.4453 106.395 19.6211C106.477 19.7969 106.518 19.9727 106.518 20.1484C106.518 20.1719 106.518 20.2012 106.518 20.2363C106.518 20.2715 106.506 20.3242 106.482 20.3945C106.33 20.9922 106.119 21.6191 105.85 22.2754C105.592 22.9316 105.252 23.5352 104.83 24.0859C104.42 24.6367 103.928 25.0938 103.354 25.457C102.779 25.8203 102.105 26.002 101.332 26.002C100.852 26.002 100.406 25.9258 99.9961 25.7734C99.5977 25.6328 99.252 25.3984 98.959 25.0703C98.666 24.7539 98.4375 24.3438 98.2734 23.8398C98.1094 23.3359 98.0273 22.7266 98.0273 22.0117V10.5684C97.6289 10.5684 97.2715 10.5684 96.9551 10.5684C96.6504 10.5566 96.3926 10.5449 96.1816 10.5332C95.9355 10.5215 95.7188 10.5098 95.5312 10.498C95.25 10.498 95.0039 10.375 94.793 10.1289C94.5703 9.87109 94.418 9.58984 94.3359 9.28516C94.2422 8.98047 94.2305 8.70508 94.3008 8.45898C94.3594 8.20117 94.5176 8.07227 94.7754 8.07227ZM101.314 8.07227C101.584 8.0957 101.883 8.11328 102.211 8.125C102.492 8.14844 102.832 8.16602 103.23 8.17773C103.629 8.17773 104.074 8.18359 104.566 8.19531V2.0957C104.566 1.83789 104.543 1.63281 104.496 1.48047C104.461 1.32812 104.42 1.21094 104.373 1.12891C104.338 1.03516 104.297 0.964844 104.25 0.917969C104.215 0.859375 104.197 0.800781 104.197 0.742188C104.197 0.671875 104.232 0.613281 104.303 0.566406C104.373 0.519531 104.467 0.478516 104.584 0.443359C104.701 0.408203 104.824 0.384766 104.953 0.373047C105.094 0.349609 105.229 0.337891 105.357 0.337891C105.955 0.337891 106.424 0.496094 106.764 0.8125C107.115 1.11719 107.291 1.48633 107.291 1.91992V8.23047C108.393 8.23047 109.553 8.21875 110.771 8.19531C112.002 8.17188 113.232 8.13086 114.463 8.07227C114.627 7.89648 114.756 7.83203 114.85 7.87891C114.955 7.92578 115.02 8.03711 115.043 8.21289C115.078 8.38867 115.084 8.60547 115.061 8.86328C115.037 9.12109 114.99 9.37305 114.92 9.61914C114.85 9.85352 114.75 10.0586 114.621 10.2344C114.504 10.4102 114.369 10.498 114.217 10.498C112.775 10.5332 111.498 10.5566 110.385 10.5684C109.283 10.5684 108.252 10.5684 107.291 10.5684V21.9766C107.291 22.5625 107.402 22.9844 107.625 23.2422C107.848 23.5 108.146 23.6289 108.521 23.6289C108.885 23.6289 109.195 23.5 109.453 23.2422C109.723 22.9844 109.951 22.6621 110.139 22.2754C110.338 21.8887 110.496 21.4727 110.613 21.0273C110.742 20.5703 110.848 20.1426 110.93 19.7441C111 19.3691 111.117 19.0996 111.281 18.9355C111.445 18.7598 111.615 18.6719 111.791 18.6719C111.932 18.6719 112.078 18.7188 112.23 18.8125C112.383 18.8945 112.518 19.0059 112.635 19.1465C112.764 19.2871 112.863 19.4453 112.934 19.6211C113.016 19.7969 113.057 19.9727 113.057 20.1484C113.057 20.1719 113.057 20.2012 113.057 20.2363C113.057 20.2715 113.045 20.3242 113.021 20.3945C112.869 20.9922 112.658 21.6191 112.389 22.2754C112.131 22.9316 111.791 23.5352 111.369 24.0859C110.959 24.6367 110.467 25.0938 109.893 25.457C109.318 25.8203 108.645 26.002 107.871 26.002C107.391 26.002 106.945 25.9258 106.535 25.7734C106.137 25.6328 105.791 25.3984 105.498 25.0703C105.205 24.7539 104.977 24.3438 104.812 23.8398C104.648 23.3359 104.566 22.7266 104.566 22.0117V10.5684C104.168 10.5684 103.811 10.5684 103.494 10.5684C103.189 10.5566 102.932 10.5449 102.721 10.5332C102.475 10.5215 102.258 10.5098 102.07 10.498C101.789 10.498 101.543 10.375 101.332 10.1289C101.109 9.87109 100.957 9.58984 100.875 9.28516C100.781 8.98047 100.77 8.70508 100.84 8.45898C100.898 8.20117 101.057 8.07227 101.314 8.07227ZM118.945 26.002C118.523 26.002 118.09 25.9375 117.645 25.8086C117.211 25.6797 116.812 25.457 116.449 25.1406C116.098 24.8242 115.805 24.4082 115.57 23.8926C115.348 23.3652 115.236 22.7031 115.236 21.9062C115.236 20.7461 115.389 19.5215 115.693 18.2324C116.01 16.9316 116.461 15.502 117.047 13.9434H114.305H113.9C113.889 14.2949 113.865 14.7402 113.83 15.2793C113.807 15.8184 113.76 16.3926 113.689 17.002C113.619 17.6113 113.525 18.2266 113.408 18.8477C113.303 19.4688 113.168 20.043 113.004 20.5703C112.887 20.9453 112.699 21.1621 112.441 21.2207C112.195 21.2793 111.949 21.2383 111.703 21.0977C111.457 20.9453 111.258 20.7285 111.105 20.4473C110.953 20.166 110.918 19.873 111 19.5684C111.094 19.2051 111.176 18.7656 111.246 18.25C111.316 17.7227 111.369 17.1719 111.404 16.5977C111.451 16.0117 111.486 15.4316 111.51 14.8574C111.533 14.2715 111.551 13.75 111.562 13.293C111.117 13.0469 110.748 12.7363 110.455 12.3613C110.162 11.9746 110.016 11.5176 110.016 10.9902C110.016 10.7441 110.062 10.5215 110.156 10.3223C110.262 10.1113 110.396 9.93555 110.561 9.79492C110.725 9.64258 110.918 9.53125 111.141 9.46094C111.363 9.37891 111.592 9.33789 111.826 9.33789C112.037 9.33789 112.254 9.36719 112.477 9.42578C112.711 9.48438 112.928 9.58984 113.127 9.74219C113.338 9.89453 113.525 10.0938 113.689 10.3398C113.854 10.5859 113.988 10.8906 114.094 11.2539C114.387 11.2891 114.633 11.3184 114.832 11.3418C115.043 11.3535 115.219 11.3652 115.359 11.377C115.5 11.3887 115.617 11.3945 115.711 11.3945C115.805 11.3945 115.898 11.3945 115.992 11.3945H117.873C117.979 11.3945 118.131 11.459 118.33 11.5879C118.541 11.7168 118.746 11.8867 118.945 12.0977C119.145 12.2969 119.309 12.5137 119.438 12.748C119.578 12.9824 119.631 13.2051 119.596 13.416C119.596 13.4863 119.555 13.6562 119.473 13.9258C119.391 14.1953 119.291 14.5352 119.174 14.9453C119.057 15.3555 118.928 15.8301 118.787 16.3691C118.646 16.8965 118.518 17.4531 118.4 18.0391C118.283 18.625 118.184 19.2344 118.102 19.8672C118.02 20.4883 117.979 21.0977 117.979 21.6953C117.979 21.9414 118.008 22.1816 118.066 22.416C118.125 22.6504 118.213 22.8613 118.33 23.0488C118.447 23.2246 118.594 23.3652 118.77 23.4707C118.957 23.5762 119.174 23.6289 119.42 23.6289C119.83 23.6289 120.182 23.5 120.475 23.2422C120.768 22.9844 121.014 22.6621 121.213 22.2754C121.412 21.8887 121.57 21.4727 121.688 21.0273C121.816 20.5703 121.922 20.1426 122.004 19.7441C122.074 19.3691 122.191 19.0996 122.355 18.9355C122.52 18.7598 122.689 18.6719 122.865 18.6719C123.006 18.6719 123.152 18.7188 123.305 18.8125C123.457 18.8945 123.592 19.0059 123.709 19.1465C123.838 19.2871 123.938 19.4453 124.008 19.6211C124.09 19.7969 124.131 19.9727 124.131 20.1484C124.131 20.207 124.125 20.2539 124.113 20.2891C124.102 20.3242 124.096 20.3594 124.096 20.3945C123.932 20.9922 123.715 21.6191 123.445 22.2754C123.188 22.9316 122.854 23.5352 122.443 24.0859C122.033 24.6367 121.541 25.0938 120.967 25.457C120.393 25.8203 119.719 26.002 118.945 26.002ZM124.078 7.68555C123.785 7.68555 123.504 7.62695 123.234 7.50977C122.977 7.39258 122.748 7.23438 122.549 7.03516C122.361 6.83594 122.209 6.60742 122.092 6.34961C121.975 6.08008 121.916 5.79297 121.916 5.48828C121.916 5.17188 121.975 4.87891 122.092 4.60938C122.209 4.33984 122.361 4.11133 122.549 3.92383C122.748 3.72461 122.977 3.57227 123.234 3.4668C123.504 3.34961 123.785 3.29102 124.078 3.29102C124.395 3.29102 124.688 3.34961 124.957 3.4668C125.227 3.57227 125.455 3.72461 125.643 3.92383C125.842 4.11133 125.994 4.33984 126.1 4.60938C126.217 4.87891 126.275 5.17188 126.275 5.48828C126.275 5.79297 126.217 6.08008 126.1 6.34961C125.994 6.60742 125.842 6.83594 125.643 7.03516C125.455 7.23438 125.227 7.39258 124.957 7.50977C124.688 7.62695 124.395 7.68555 124.078 7.68555ZM124.904 21.9766C124.904 22.0586 124.91 22.1934 124.922 22.3809C124.934 22.5566 124.969 22.7383 125.027 22.9258C125.086 23.1133 125.18 23.2773 125.309 23.418C125.438 23.5586 125.619 23.6289 125.854 23.6289C126.205 23.6289 126.51 23.5 126.768 23.2422C127.037 22.9844 127.266 22.6621 127.453 22.2754C127.652 21.8887 127.816 21.4727 127.945 21.0273C128.074 20.5703 128.18 20.1426 128.262 19.7441C128.332 19.3809 128.438 19.1172 128.578 18.9531C128.73 18.7891 128.889 18.7012 129.053 18.6895C129.229 18.666 129.398 18.707 129.562 18.8125C129.738 18.918 129.891 19.0586 130.02 19.2344C130.16 19.3984 130.26 19.5859 130.318 19.7969C130.389 20.0078 130.4 20.207 130.354 20.3945C130.189 20.9922 129.973 21.6191 129.703 22.2754C129.445 22.9316 129.111 23.5352 128.701 24.0859C128.291 24.6367 127.799 25.0938 127.225 25.457C126.65 25.8203 125.977 26.002 125.203 26.002C124.723 26.002 124.295 25.9082 123.92 25.7207C123.545 25.5449 123.229 25.3047 122.971 25C122.713 24.6953 122.514 24.3379 122.373 23.9277C122.244 23.5176 122.18 23.084 122.18 22.627V13.0117C122.18 12.6719 122.15 12.4258 122.092 12.2734C122.045 12.1211 122.021 11.9805 122.021 11.8516C122.021 11.6758 122.115 11.5352 122.303 11.4297C122.49 11.3125 122.713 11.2539 122.971 11.2539C123.568 11.2539 124.037 11.4121 124.377 11.7285C124.729 12.0332 124.904 12.4023 124.904 12.8359V21.9766ZM132.322 15.8242C132.322 15.0977 132.398 14.4707 132.551 13.9434C132.715 13.4043 132.938 12.9648 133.219 12.625C133.5 12.2734 133.822 12.0156 134.186 11.8516C134.561 11.6875 134.959 11.6055 135.381 11.6055C135.861 11.6055 136.33 11.7227 136.787 11.957C137.244 12.1914 137.648 12.5488 138 13.0293C138.363 13.5098 138.65 14.1191 138.861 14.8574C139.084 15.5957 139.195 16.4688 139.195 17.4766C139.195 18.1797 139.148 18.8828 139.055 19.5859C138.973 20.2773 138.838 20.9395 138.65 21.5723C138.779 21.6191 138.902 21.6484 139.02 21.6602C139.148 21.6602 139.277 21.6602 139.406 21.6602C139.793 21.6602 140.133 21.5898 140.426 21.4492C140.73 21.3086 140.988 21.1211 141.199 20.8867C141.422 20.6523 141.598 20.377 141.727 20.0605C141.855 19.7441 141.949 19.4102 142.008 19.0586C142.031 18.918 142.107 18.8008 142.236 18.707C142.377 18.6133 142.535 18.5488 142.711 18.5137C142.887 18.4785 143.068 18.4785 143.256 18.5137C143.455 18.5488 143.625 18.6309 143.766 18.7598C143.906 18.877 144.006 19.0469 144.064 19.2695C144.135 19.4805 144.135 19.7559 144.064 20.0957C143.959 20.5879 143.783 21.0508 143.537 21.4844C143.303 21.9062 143.004 22.2812 142.641 22.6094C142.277 22.9375 141.85 23.1953 141.357 23.3828C140.865 23.5703 140.314 23.6641 139.705 23.6641C139.377 23.6641 139.061 23.6465 138.756 23.6113C138.451 23.5762 138.152 23.5117 137.859 23.418C137.414 24.1914 136.834 24.8125 136.119 25.2812C135.404 25.7617 134.52 26.002 133.465 26.002C132.633 26.002 131.9 25.8555 131.268 25.5625C130.646 25.2695 130.119 24.8594 129.686 24.332C129.264 23.793 128.941 23.1543 128.719 22.416C128.508 21.6777 128.402 20.8691 128.402 19.9902V2.81641C128.402 2.55859 128.379 2.35352 128.332 2.20117C128.297 2.04883 128.256 1.93164 128.209 1.84961C128.174 1.75586 128.133 1.68555 128.086 1.63867C128.051 1.58008 128.033 1.52148 128.033 1.46289C128.033 1.39258 128.068 1.33398 128.139 1.28711C128.209 1.24023 128.303 1.19922 128.42 1.16406C128.537 1.12891 128.66 1.10547 128.789 1.09375C128.93 1.07031 129.064 1.05859 129.193 1.05859C129.791 1.05859 130.26 1.2168 130.6 1.5332C130.951 1.83789 131.127 2.20703 131.127 2.64062V19.498C131.127 20.0957 131.18 20.6465 131.285 21.1504C131.391 21.6543 131.549 22.0938 131.76 22.4688C131.971 22.832 132.234 23.1191 132.551 23.3301C132.879 23.5293 133.26 23.6289 133.693 23.6289C134.139 23.6289 134.52 23.5176 134.836 23.2949C135.152 23.0605 135.416 22.75 135.627 22.3633C135.111 22 134.648 21.5781 134.238 21.0977C133.84 20.6055 133.494 20.0781 133.201 19.5156C132.92 18.9414 132.703 18.3438 132.551 17.7227C132.398 17.0898 132.322 16.457 132.322 15.8242ZM134.555 15.6836C134.555 16.5508 134.707 17.3711 135.012 18.1445C135.328 18.918 135.75 19.5859 136.277 20.1484C136.348 19.7266 136.395 19.3105 136.418 18.9004C136.441 18.4785 136.453 18.0977 136.453 17.7578C136.453 16.5508 136.324 15.6191 136.066 14.9629C135.82 14.3066 135.533 13.9785 135.205 13.9785C134.971 13.9785 134.801 14.1367 134.695 14.4531C134.602 14.7578 134.555 15.168 134.555 15.6836ZM151.904 26.002C151.494 26.002 151.119 25.9375 150.779 25.8086C150.451 25.6797 150.158 25.498 149.9 25.2637C149.654 25.041 149.449 24.7773 149.285 24.4727C149.121 24.1562 149.01 23.8164 148.951 23.4531C148.518 24.2148 148.008 24.8359 147.422 25.3164C146.836 25.7969 146.145 26.0371 145.348 26.0371C144.75 26.0371 144.211 25.9141 143.73 25.668C143.262 25.4219 142.863 25.0762 142.535 24.6309C142.207 24.1738 141.955 23.6289 141.779 22.9961C141.615 22.3516 141.533 21.6367 141.533 20.8516C141.533 19.9023 141.598 18.9473 141.727 17.9863C141.867 17.0254 142.02 16.1582 142.184 15.3848C142.371 14.4824 142.588 13.6094 142.834 12.7656C142.893 12.6133 142.934 12.4609 142.957 12.3086C142.992 12.1445 143.062 11.998 143.168 11.8691C143.273 11.7402 143.438 11.6348 143.66 11.5527C143.895 11.4707 144.252 11.4297 144.732 11.4297C145.178 11.4297 145.465 11.5117 145.594 11.6758C145.723 11.8281 145.77 12.0098 145.734 12.2207C145.711 12.4316 145.641 12.6484 145.523 12.8711C145.418 13.0938 145.348 13.2754 145.312 13.416C145.148 14.084 145.002 14.6934 144.873 15.2441C144.744 15.7949 144.633 16.3516 144.539 16.9141C144.457 17.4648 144.393 18.0449 144.346 18.6543C144.299 19.252 144.275 19.9258 144.275 20.6758C144.275 21.6602 144.416 22.4043 144.697 22.9082C144.99 23.4121 145.4 23.6641 145.928 23.6641C146.291 23.6641 146.625 23.5293 146.93 23.2598C147.246 22.9902 147.527 22.6328 147.773 22.1875C148.031 21.7305 148.254 21.2148 148.441 20.6406C148.629 20.0547 148.775 19.4453 148.881 18.8125V13.0117C148.881 12.7539 148.857 12.5488 148.811 12.3965C148.775 12.2441 148.734 12.127 148.688 12.0449C148.652 11.9512 148.611 11.8809 148.564 11.834C148.529 11.7754 148.512 11.7109 148.512 11.6406C148.512 11.582 148.547 11.5293 148.617 11.4824C148.688 11.4355 148.781 11.3945 148.898 11.3594C149.016 11.3242 149.139 11.3008 149.268 11.2891C149.408 11.2656 149.543 11.2539 149.672 11.2539C150.27 11.2539 150.738 11.4121 151.078 11.7285C151.43 12.0332 151.605 12.4023 151.605 12.8359V21.9766C151.605 22.0586 151.611 22.1934 151.623 22.3809C151.635 22.5566 151.67 22.7383 151.729 22.9258C151.787 23.1133 151.881 23.2773 152.01 23.418C152.139 23.5586 152.32 23.6289 152.555 23.6289C152.918 23.6289 153.229 23.5 153.486 23.2422C153.756 22.9844 153.984 22.6621 154.172 22.2754C154.371 21.8887 154.529 21.4727 154.646 21.0273C154.775 20.5703 154.881 20.1426 154.963 19.7441C155.033 19.3691 155.15 19.0996 155.314 18.9355C155.479 18.7598 155.648 18.6719 155.824 18.6719C155.965 18.6719 156.111 18.7188 156.264 18.8125C156.416 18.8945 156.551 19.0059 156.668 19.1465C156.797 19.2871 156.896 19.4453 156.967 19.6211C157.049 19.7969 157.09 19.9727 157.09 20.1484C157.09 20.1719 157.09 20.2012 157.09 20.2363C157.09 20.2715 157.078 20.3242 157.055 20.3945C156.891 20.9922 156.674 21.6191 156.404 22.2754C156.146 22.9316 155.812 23.5352 155.402 24.0859C154.992 24.6367 154.5 25.0938 153.926 25.457C153.352 25.8203 152.678 26.002 151.904 26.002ZM151.869 8.07227C152.139 8.0957 152.438 8.11328 152.766 8.125C153.047 8.14844 153.387 8.16602 153.785 8.17773C154.184 8.17773 154.629 8.18359 155.121 8.19531V2.0957C155.121 1.83789 155.098 1.63281 155.051 1.48047C155.016 1.32812 154.975 1.21094 154.928 1.12891C154.893 1.03516 154.852 0.964844 154.805 0.917969C154.77 0.859375 154.752 0.800781 154.752 0.742188C154.752 0.671875 154.787 0.613281 154.857 0.566406C154.928 0.519531 155.021 0.478516 155.139 0.443359C155.256 0.408203 155.379 0.384766 155.508 0.373047C155.648 0.349609 155.783 0.337891 155.912 0.337891C156.51 0.337891 156.979 0.496094 157.318 0.8125C157.67 1.11719 157.846 1.48633 157.846 1.91992V8.23047C158.947 8.23047 160.107 8.21875 161.326 8.19531C162.557 8.17188 163.787 8.13086 165.018 8.07227C165.182 7.89648 165.311 7.83203 165.404 7.87891C165.51 7.92578 165.574 8.03711 165.598 8.21289C165.633 8.38867 165.639 8.60547 165.615 8.86328C165.592 9.12109 165.545 9.37305 165.475 9.61914C165.404 9.85352 165.305 10.0586 165.176 10.2344C165.059 10.4102 164.924 10.498 164.771 10.498C163.33 10.5332 162.053 10.5566 160.939 10.5684C159.838 10.5684 158.807 10.5684 157.846 10.5684V21.9766C157.846 22.5625 157.957 22.9844 158.18 23.2422C158.402 23.5 158.701 23.6289 159.076 23.6289C159.439 23.6289 159.75 23.5 160.008 23.2422C160.277 22.9844 160.506 22.6621 160.693 22.2754C160.893 21.8887 161.051 21.4727 161.168 21.0273C161.297 20.5703 161.402 20.1426 161.484 19.7441C161.555 19.3691 161.672 19.0996 161.836 18.9355C162 18.7598 162.17 18.6719 162.346 18.6719C162.486 18.6719 162.633 18.7188 162.785 18.8125C162.938 18.8945 163.072 19.0059 163.189 19.1465C163.318 19.2871 163.418 19.4453 163.488 19.6211C163.57 19.7969 163.611 19.9727 163.611 20.1484C163.611 20.1719 163.611 20.2012 163.611 20.2363C163.611 20.2715 163.6 20.3242 163.576 20.3945C163.424 20.9922 163.213 21.6191 162.943 22.2754C162.686 22.9316 162.346 23.5352 161.924 24.0859C161.514 24.6367 161.021 25.0938 160.447 25.457C159.873 25.8203 159.199 26.002 158.426 26.002C157.945 26.002 157.5 25.9258 157.09 25.7734C156.691 25.6328 156.346 25.3984 156.053 25.0703C155.76 24.7539 155.531 24.3438 155.367 23.8398C155.203 23.3359 155.121 22.7266 155.121 22.0117V10.5684C154.723 10.5684 154.365 10.5684 154.049 10.5684C153.744 10.5566 153.486 10.5449 153.275 10.5332C153.029 10.5215 152.812 10.5098 152.625 10.498C152.344 10.498 152.098 10.375 151.887 10.1289C151.664 9.87109 151.512 9.58984 151.43 9.28516C151.336 8.98047 151.324 8.70508 151.395 8.45898C151.453 8.20117 151.611 8.07227 151.869 8.07227ZM169.939 14.5234C169.939 15.1914 169.822 15.877 169.588 16.5801C169.365 17.2832 169.025 17.9512 168.568 18.584C168.123 19.2051 167.566 19.7676 166.898 20.2715C166.242 20.7637 165.48 21.1387 164.613 21.3965C164.73 21.7012 164.883 21.9941 165.07 22.2754C165.27 22.5449 165.504 22.7793 165.773 22.9785C166.043 23.1777 166.354 23.3359 166.705 23.4531C167.068 23.5703 167.484 23.6289 167.953 23.6289C168.656 23.6289 169.26 23.5 169.764 23.2422C170.268 22.9727 170.689 22.6211 171.029 22.1875C171.381 21.7539 171.662 21.2676 171.873 20.7285C172.084 20.1895 172.242 19.6445 172.348 19.0938C172.43 18.6953 172.594 18.4316 172.84 18.3027C173.098 18.1621 173.355 18.127 173.613 18.1973C173.883 18.2676 174.111 18.4199 174.299 18.6543C174.498 18.877 174.58 19.1465 174.545 19.4629C174.498 19.8262 174.416 20.2422 174.299 20.7109C174.193 21.1797 174.029 21.6543 173.807 22.1348C173.584 22.6152 173.297 23.0898 172.945 23.5586C172.605 24.0156 172.184 24.4258 171.68 24.7891C171.176 25.1523 170.584 25.4453 169.904 25.668C169.225 25.8906 168.445 26.002 167.566 26.002C166.746 26.002 165.949 25.8379 165.176 25.5098C164.414 25.1934 163.734 24.7363 163.137 24.1387C162.551 23.5293 162.076 22.7852 161.713 21.9062C161.361 21.0156 161.186 20.0078 161.186 18.8828C161.186 17.7461 161.344 16.6914 161.66 15.7188C161.977 14.7344 162.393 13.8848 162.908 13.1699C163.424 12.4551 164.01 11.8984 164.666 11.5C165.322 11.0898 165.996 10.8848 166.688 10.8848C167.191 10.8848 167.643 10.9727 168.041 11.1484C168.451 11.3242 168.797 11.5762 169.078 11.9043C169.359 12.2207 169.57 12.6016 169.711 13.0469C169.863 13.4922 169.939 13.9844 169.939 14.5234ZM164.139 18.7773C164.139 18.8828 164.145 18.9883 164.156 19.0938C164.168 19.1992 164.174 19.3105 164.174 19.4277C164.619 19.2168 165.023 18.9473 165.387 18.6191C165.75 18.291 166.061 17.916 166.318 17.4941C166.576 17.0723 166.775 16.6152 166.916 16.123C167.057 15.6191 167.127 15.0977 167.127 14.5586C167.127 14.1602 167.057 13.8496 166.916 13.627C166.787 13.4043 166.605 13.293 166.371 13.293C166.078 13.293 165.814 13.3926 165.58 13.5918C165.357 13.791 165.158 14.0547 164.982 14.3828C164.818 14.6992 164.678 15.0625 164.561 15.4727C164.455 15.8711 164.367 16.2754 164.297 16.6855C164.227 17.0957 164.18 17.4883 164.156 17.8633C164.133 18.2266 164.127 18.5312 164.139 18.7773Z" fill="black"/>
</svg>
